<?xml version="1.0" encoding="UTF-8"?>
<svg width="183px" height="46px" viewBox="0 0 183 46" version="1.1" xmlns="http://www.w3.org/2000/svg" xmlns:xlink="http://www.w3.org/1999/xlink">
    <title>00. Logo/Truora/Color</title>
    <defs>
        <linearGradient x1="-0.0303490137%" y1="50%" x2="100%" y2="50%" id="linearGradient-1">
            <stop stop-color="#6300FF" offset="0%"></stop>
            <stop stop-color="#0000FF" offset="100%"></stop>
        </linearGradient>
        <linearGradient x1="0.017545159%" y1="49.9775906%" x2="99.9613221%" y2="49.9775906%" id="linearGradient-2">
            <stop stop-color="#6300FF" offset="0%"></stop>
            <stop stop-color="#0000FF" offset="100%"></stop>
        </linearGradient>
        <linearGradient x1="-0.0101801894%" y1="49.9291355%" x2="99.9898198%" y2="49.9291355%" id="linearGradient-3">
            <stop stop-color="#6300FF" offset="0%"></stop>
            <stop stop-color="#0000FF" offset="100%"></stop>
        </linearGradient>
        <radialGradient cx="52.4590583%" cy="51.3183536%" fx="52.4590583%" fy="51.3183536%" r="55.3690264%" gradientTransform="translate(0.524591,0.513184),scale(0.906643,1.000000),translate(-0.524591,-0.513184)" id="radialGradient-4">
            <stop stop-color="#030238" offset="0%"></stop>
            <stop stop-color="#4500FF" offset="100%"></stop>
        </radialGradient>
        <linearGradient x1="-0.0303490133%" y1="49.9590667%" x2="99.9999987%" y2="49.9590667%" id="linearGradient-5">
            <stop stop-color="#6300FF" offset="0%"></stop>
            <stop stop-color="#0000FF" offset="100%"></stop>
        </linearGradient>
        <linearGradient x1="-8.80489865%" y1="-6.95775088%" x2="101.999998%" y2="99.9830411%" id="linearGradient-6">
            <stop stop-color="#8846EC" offset="0%"></stop>
            <stop stop-color="#1E08EF" offset="100%"></stop>
        </linearGradient>
    </defs>
    <g id="Design-2022" stroke="none" stroke-width="1" fill="none" fill-rule="evenodd">
        <g id="09.0-Projects-TruConnect" transform="translate(-52.000000, -186.000000)">
            <g id="Left" transform="translate(52.000000, 182.233696)">
                <g id="Logos-/-Truora-/-_Main" transform="translate(0.000000, 3.975000)">
                    <g fill-rule="nonzero">
                        <g id="Logos-/-Truora-/-T-Color" transform="translate(0.122647, 0.002637)">
                            <path d="M30.358113,0 L30.358113,0 C22.2075103,0.0613800313 15.5554927,6.54896701 15.2785288,14.7068333 L15.1461977,14.7068333 L15.1461977,45.6121403 C21.4334269,45.6107448 27.0711643,41.7337314 29.3302393,35.8579224 C29.1948309,35.8579224 29.0563448,35.8579224 28.9178589,35.8579224 C25.626336,35.8621209 22.6126165,34.0108439 21.1245846,31.0706459 C19.6365527,28.1304479 19.9275202,24.6018473 21.8770069,21.9459237 C23.8264935,19.2900002 27.1026327,17.9588796 30.3488806,18.5037359 L30.3488806,15.2122651 L30.4689018,15.2122651 C38.8194228,15.1547103 45.5603869,8.36275108 45.5669508,0 L30.358113,0 Z" id="Path" fill="url(#linearGradient-1)"></path>
                            <path d="M28.2734036,31.8400536 L25.6662899,29.4146964 C25.0453888,28.8372812 24.6786626,28.0357767 24.646908,27.1867689 C24.6151535,26.3377611 24.9209758,25.5109124 25.4969968,24.8883927 L25.4969968,24.8883927 L28.3441988,27.5392927 L36.0393395,20.983104 C37.3874969,19.8369551 39.4033443,19.9926032 40.5610041,21.3322319 L40.5610041,21.3322319 L28.2734036,31.8400536 Z" id="Path" fill="url(#linearGradient-2)"></path>
                            <path d="M15.0467052,0 L15.0467052,0 C6.71800699,0.0674207799 0.00141298237,6.8354493 0,15.1619303 L30.1640379,15.1619303 L30.1640379,0 L15.0467052,0 Z" id="Path" fill="url(#linearGradient-3)"></path>
                            <path d="M20.1097423,26.5308207 C20.1590303,26.5274765 20.1654389,26.1122656 20.2685862,25.5136002 C20.3299562,25.1574093 20.4355508,24.7345357 20.5773723,24.2996115 C20.8175037,23.5631993 21.2079457,22.771315 21.707946,22.0506534 C21.9487514,21.7035753 22.2188438,21.3742766 22.5020566,21.0728859 C22.6989977,20.8633042 22.9008579,20.6667913 23.1095775,20.4889584 C23.4038014,20.2382744 23.7006098,20.0093095 24.0055702,19.8053564 C24.8901993,19.2137291 25.8224814,18.8162699 26.7947709,18.5816538 C27.2925159,18.4615465 27.9802126,18.3336307 28.8658637,18.3383251 C29.056332,18.3393347 29.3350612,18.3442523 29.6953904,18.3801617 C29.8118355,18.3917664 30.0053497,18.4177875 30.2759331,18.4582253 C30.2619689,16.2988339 30.2619689,15.2094765 30.2759331,15.190153 C31.5166377,13.4732814 35.3562288,14.0238418 36.330306,13.6658791 C36.5279055,13.5932635 36.4286147,12.5363582 36.4286147,11.9589733 C36.4286147,7.01971316 33.9859711,2.65174086 30.24432,0 C27.7260514,-0.000314618645 18.838207,0 14.808526,0 C14.2846231,0.0123734623 13.5077578,0.11857824 13.1865846,0.134061927 C9.55003874,2.79729462 7.18802604,7.10191911 7.18802604,11.9589733 C7.18802604,13.067847 7.54805876,14.142694 8.26812419,15.1835142 C8.93544983,15.1835142 11.2157894,15.1835142 15.1091431,15.1835142 C15.1091431,18.0023709 15.1091431,19.6888106 15.1091431,20.2428334 C15.1091431,22.0743814 15.1091431,24.1788918 15.1091431,24.9726825 C16.949876,25.9289281 18.4848032,26.4376792 19.7596769,26.519367 C19.8788493,26.5270029 19.9958015,26.5385517 20.1097423,26.5308207 Z" id="sombra" fill="url(#radialGradient-4)"></path>
                            <path d="M30.3581126,0 L30.3581126,0 C22.20751,0.0612879532 15.5554927,6.5391427 15.2785288,14.6847711 L15.1461977,30.0711618 C15.1461977,21.8607141 21.8024872,15.2048311 30.0134364,15.2048311 L30.3488803,15.2048311 L30.3488803,15.2048311 L30.4689014,15.2048311 C38.8254205,15.147319 45.5688396,8.35620641 45.5669512,0 L30.3581126,0 Z" id="Path" fill="url(#linearGradient-5)"></path>
                        </g>
                        <path d="M122.809218,16.7972945 C124.196334,16.7867348 125.570793,17.061936 126.84715,17.60579 C128.072581,18.1318093 129.188285,18.8838225 130.136111,19.8226324 C131.076717,20.7678308 131.826359,21.885811 132.343948,23.1152955 C132.889782,24.3925045 133.166909,25.7686039 133.158047,27.1577728 C133.167638,28.5385861 132.890407,29.9063184 132.343948,31.1741697 C131.820059,32.400238 131.071173,33.5170904 130.136111,34.4668328 C129.195974,35.4199078 128.078669,36.179644 126.84715,36.7032356 C124.264632,37.7899967 121.353804,37.7899967 118.771285,36.7032356 C117.55138,36.175954 116.445424,35.416414 115.51489,34.4668328 C114.579828,33.5170904 113.830942,32.400238 113.307053,31.1741697 C112.760594,29.9063184 112.483362,28.5385861 112.492953,27.1577728 C112.484091,25.7686039 112.761219,24.3925045 113.307053,23.1152955 C113.82464,21.885811 114.574282,20.7678308 115.51489,19.8226324 C116.453048,18.8871904 117.557442,18.1353577 118.771285,17.60579 C120.047644,17.061936 121.422103,16.7867348 122.809218,16.7972945 Z M96.6211465,17.17605 L96.6211465,28.0218579 C96.6211465,31.1756961 98.340365,32.4555146 100.632658,32.4555146 C102.924951,32.4555146 104.650682,31.1495774 104.650682,28.0218579 L104.650682,17.1825796 L109.92556,17.1825796 L109.919048,28.4854656 C109.919048,34.7082562 105.536341,37.391957 100.626146,37.391957 C95.7159501,37.391957 91.313707,34.7082562 91.313707,28.4854656 L91.313707,17.17605 L96.6211465,17.17605 Z M165.122827,19.0296558 L165.304669,19.2479969 C165.308277,18.0479479 166.286393,17.0770186 167.491711,17.0770241 L170.510351,17.0770241 L170.497255,36.7592072 L165.304669,36.7592072 L165.304669,34.5817149 C163.87275,36.3478462 161.689755,37.3403944 159.411445,37.2612039 C153.963485,37.2612039 149.844776,32.8149472 149.844776,26.9083365 C149.844776,21.0017257 153.963485,16.5489496 159.411445,16.5489496 C161.59948,16.4705782 163.698962,17.387104 165.122827,19.0296558 Z M75.5257212,8.33159062 C75.5257212,11.2709293 73.1438558,13.653734 70.2056759,13.653734 L66.6786102,13.653734 L66.6786102,31.1912767 C66.675088,34.2620844 64.2453336,36.7641293 61.2038383,36.8822043 L60.9855728,36.8865594 L60.9855728,13.653734 L52.1646366,13.653734 C52.1646366,10.7143954 54.546502,8.33159062 57.4846819,8.33159062 L75.5257212,8.33159062 Z M89.1316277,16.970228 L88.340753,22.2375484 C87.320368,21.8170056 86.2287875,21.5954491 85.1249655,21.5848445 C82.6608356,21.5848445 80.9679718,23.0925905 80.9679718,26.023231 L80.9679718,31.4472002 C80.9697066,32.8556975 80.4106177,34.2070996 79.4138813,35.2036702 C78.479441,36.1379552 77.2322291,36.6885083 75.9177902,36.7536779 L75.6540788,36.7602099 L75.6540788,17.0746607 L80.804568,17.0746607 L80.804568,19.2285835 C82.0464371,17.3749045 83.9419217,16.5459705 86.3668346,16.5459705 C87.3060463,16.5269666 88.2414612,16.6705059 89.1316277,16.970228 Z M149.074631,16.9703085 L148.277606,22.2376074 C147.257715,21.8170663 146.166665,21.5955107 145.063377,21.5849062 C142.600442,21.5849062 140.908398,23.092646 140.908398,26.0232746 L140.908398,31.4472218 C140.910132,32.8557134 140.351315,34.20711 139.355062,35.2036765 C138.421074,36.1379577 137.174467,36.6885086 135.860665,36.7536779 L135.597082,36.7602099 L135.597082,17.0747408 L140.751607,17.0747408 L140.751607,19.2286548 C141.992874,17.3749833 143.880907,16.5460527 146.304644,16.5460527 C147.24557,16.5265567 148.182762,16.6700985 149.074631,16.9703085 Z M122.809218,21.6678278 C121.360552,21.6398922 119.96493,22.2134024 118.953644,23.2522181 C117.897525,24.2766895 117.310738,25.6922225 117.331959,27.164293 C117.328914,27.8751341 117.473055,28.5788929 117.755291,29.2311726 C118.048992,29.8932742 118.454363,30.4998112 118.953644,31.0242068 C119.960477,32.0741249 121.355474,32.661533 122.809218,32.647718 C123.526323,32.6501294 124.236825,32.5105282 124.899824,32.2369501 C125.568969,31.9655036 126.171191,31.5517057 126.664792,31.0242068 C128.234601,29.4618226 128.707783,27.1056407 127.863104,25.0572736 C127.018424,23.0089065 125.022781,21.67308 122.809218,21.6743479 L122.809218,21.6678278 Z M160.35436,21.4841641 C157.309527,21.4841641 155.253447,23.8963562 155.253447,26.9083365 C155.253447,29.9137974 157.217855,32.3259894 160.35436,32.3259894 C163.490865,32.3259894 165.455274,30.011589 165.455274,26.9083365 C165.455274,23.805084 163.399193,21.4841641 160.35436,21.4841641 Z" id="Truora" fill="#1C1C1E"></path>
                    </g>
                    <rect id="Rectangle" fill="url(#linearGradient-6)" x="175.331892" y="30.475" width="6.69205696" height="6.625" rx="1"></rect>
                </g>
            </g>
        </g>
    </g>
</svg>