<?xml version="1.0" encoding="UTF-8"?>
<svg width="23px" height="18px" viewBox="0 0 23 18" version="1.1" xmlns="http://www.w3.org/2000/svg" xmlns:xlink="http://www.w3.org/1999/xlink">
    <!-- Generator: Sketch 51.3 (57544) - http://www.bohemiancoding.com/sketch -->
    <title>email</title>
    <desc>Created with Sketch.</desc>
    <defs></defs>
    <g id="Desktop-New" stroke="none" stroke-width="1" fill="none" fill-rule="evenodd">
        <g id="02.0-Contact" transform="translate(-749.000000, -481.000000)" fill="#D8D8D8" fill-rule="nonzero">
            <g id="form" transform="translate(332.000000, 337.000000)">
                <g transform="translate(78.000000, 116.000000)" id="Email">
                    <g transform="translate(321.000000, 0.000000)">
                        <g id="email" transform="translate(18.000000, 28.000000)">
                            <path d="M19.3369692,0 L2.94874514,0 C1.32278935,0 0,1.30911362 0,2.91816335 L0,15.0818367 C0,16.6909295 1.32278935,18 2.94874514,18 L19.3369692,18 C20.9629249,18 22.2857143,16.6908864 22.2857143,15.0818367 L22.2857143,2.91816335 C22.2857143,1.30907055 20.9629249,0 19.3369692,0 Z M20.4852583,15.0818367 C20.4852583,15.7084158 19.9701147,16.2182167 19.3369692,16.2182167 L2.94874514,16.2182167 C2.31559956,16.2182167 1.80045603,15.7084158 1.80045603,15.0818367 L1.80045603,2.91816335 C1.80045603,2.2915842 2.31559956,1.78178329 2.94874514,1.78178329 L19.3369692,1.78178329 C19.9701147,1.78178329 20.4852583,2.2915842 20.4852583,2.91816335 L20.4852583,15.0818367 Z" id="Shape"></path>
                            <path d="M22.1229173,2.93845521 C21.8378594,2.54928452 21.2766232,2.45462251 20.8691676,2.72704615 L11.1428136,9.23264751 L1.41650321,2.72700456 C1.00922171,2.45453932 0.447898407,2.54924293 0.162797007,2.93841362 C-0.122304392,3.32758431 -0.0232370964,3.86394695 0.384044399,4.1363706 L10.6266277,10.9873885 C10.7816271,11.0910759 10.9622204,11.1428571 11.1428571,11.1428571 C11.3234504,11.1428571 11.5040871,11.0910343 11.6590865,10.9873885 L21.9016699,4.13641219 C22.3089514,3.86398855 22.4080187,3.3276259 22.1229173,2.93845521 Z" id="Shape"></path>
                        </g>
                    </g>
                </g>
            </g>
        </g>
    </g>
</svg>