<?xml version="1.0" encoding="UTF-8"?>
<svg width="18px" height="18px" viewBox="0 0 18 18" version="1.1" xmlns="http://www.w3.org/2000/svg" xmlns:xlink="http://www.w3.org/1999/xlink">
    <!-- Generator: Sketch 51.3 (57544) - http://www.bohemiancoding.com/sketch -->
    <title>phone-call</title>
    <desc>Created with Sketch.</desc>
    <defs></defs>
    <g id="Desktop-New" stroke="none" stroke-width="1" fill="none" fill-rule="evenodd">
        <g id="02.0-Contact" transform="translate(-428.000000, -557.000000)" fill="#D8D8D8" fill-rule="nonzero">
            <g id="form" transform="translate(332.000000, 337.000000)">
                <g transform="translate(78.000000, 116.000000)" id="Teléfono">
                    <g transform="translate(0.000000, 86.000000)">
                        <g id="phone-call" transform="translate(18.000000, 18.000000)">
                            <path d="M14.7143181,6.81032949 C14.5436618,5.93556514 14.1203389,5.1400963 13.490164,4.50988792 C12.8599555,3.87971305 12.064453,3.45639025 11.1896885,3.28570043 C10.8139899,3.21233699 10.4499209,3.45756326 10.3765909,3.83329534 C10.3032945,4.20906095 10.5484538,4.57306293 10.9241859,4.64635934 C12.1590982,4.88726222 13.1126891,5.84088642 13.3536255,7.07579858 C13.4182081,7.40672165 13.7082434,7.63636364 14.0332345,7.63636364 C14.0772392,7.63636364 14.1218806,7.63217431 14.1667566,7.62339349 C14.5424553,7.55009708 14.7876145,7.18606158 14.7143181,6.81032949 Z" id="Shape"></path>
                            <path d="M17.9954456,6.83791512 C17.8001915,5.09844669 17.0112666,3.45925741 15.7740102,2.22233063 C14.5367884,0.985369121 12.8982709,0.197719368 11.1603052,0.00445281352 C10.7664325,-0.0393325126 10.4118256,0.244733906 10.3680851,0.638906009 C10.3243446,1.03311284 10.6080856,1.38815245 11.0018889,1.4319725 C13.9489451,1.75968536 16.2384713,4.04867526 16.569595,6.99836873 C16.6108033,7.36524879 16.9212881,7.63636364 17.2816184,7.63636364 C17.3083622,7.63636364 17.3354529,7.63487056 17.3626476,7.63181496 C17.7563816,7.58747407 18.0397064,7.23208723 17.9954456,6.83791512 Z" id="Shape"></path>
                            <path d="M15.4368025,10.8887423 C15.4345877,10.8884571 15.432373,10.8881361 15.4301583,10.8878509 C14.715261,10.793752 14.0101872,10.6183908 13.3361913,10.367401 C12.4820868,10.0468444 11.5107081,10.2536195 10.861753,10.8941265 C10.8607528,10.8951249 10.8597526,10.8960877 10.8587881,10.8970861 L10.2462334,11.5085326 C8.72331258,10.548503 7.43293967,9.26046452 6.47120587,7.74033446 L7.08379633,7.12885224 C7.08476081,7.12785384 7.08572529,7.1268911 7.0867255,7.1258927 C7.7284291,6.47814729 7.93554319,5.50863293 7.6150486,4.65760684 C7.36296097,3.98318997 7.18731765,3.27935607 7.09301251,2.56575214 C7.09276246,2.56350574 7.09240524,2.56122369 7.09208375,2.5589773 C6.92808568,1.40090862 5.92105684,0.536011957 4.75060148,0.545532381 L2.34349855,0.545532381 C2.2740914,0.545603695 2.20375548,0.54877717 2.13441977,0.555052806 C0.846404485,0.671223375 -0.106791842,1.81171314 0.00962499275,3.0973983 C0.00998220918,3.10124925 0.0103394256,3.10506456 0.0107680853,3.10891551 C0.285253192,5.6888435 1.17704401,8.20359046 2.58976356,10.3813429 C3.87188478,12.3945739 5.61542246,14.1349217 7.63230216,15.4148304 C9.80389229,16.8199309 12.3114802,17.7100371 14.8842601,17.9891246 C14.8887968,17.9896595 14.8933334,17.9900873 14.8978343,17.9904796 C14.9678845,17.9967552 15.0388991,17.9999643 15.1093422,17.9999643 C15.1123071,17.9999643 15.1152363,17.9999643 15.1181654,18 C16.4114318,17.9947228 17.4592905,16.9402021 17.4540394,15.6523062 L17.4540394,13.2549778 C17.4785087,12.0707012 16.6129376,11.0543692 15.4368025,10.8887423 Z M15.9764851,13.2467054 L15.9764851,15.6552657 C15.9784498,16.1329271 15.5906913,16.5230863 15.1123785,16.5250474 C15.0868375,16.5249048 15.0614752,16.5240846 15.0361128,16.5219809 C12.6935589,16.266641 10.4105887,15.4553368 8.43343145,14.1754637 C8.4315382,14.1742157 8.42960923,14.1730034 8.42768026,14.1717911 C6.59055188,13.0065197 5.00251051,11.4213156 3.83512721,9.58754636 C3.83398411,9.58572785 3.83284102,9.583945 3.83166221,9.58209083 C2.5446114,7.5990257 1.73176541,5.3091319 1.48078515,2.95958392 C1.44066974,2.48595173 1.79256365,2.06680346 2.26741145,2.02397938 C2.29302387,2.02169733 2.31895778,2.02048499 2.34403438,2.02048499 L4.75392359,2.02048499 C4.75913895,2.02044934 4.76442575,2.02037802 4.76974828,2.02041368 C5.19915815,2.02041368 5.5671268,2.33793944 5.62863947,2.76275717 C5.73759048,3.58511501 5.94016792,4.3960626 6.23129931,5.17491888 C6.34985944,5.48984168 6.27377234,5.84773118 6.03743795,6.08741767 L5.01876385,7.10424889 C4.78360828,7.33894339 4.73456246,7.70161094 4.89895346,7.99021886 C6.1076667,10.1120968 7.87017258,11.8713785 9.99589612,13.0779407 C10.2850271,13.241963 10.6483162,13.1931129 10.8835075,12.9583114 L11.902003,11.9416584 C12.1420524,11.7055733 12.5008764,11.6295882 12.8179774,11.7485757 C13.5966735,12.0386099 14.4092694,12.2408208 15.2331177,12.3495747 C15.6682073,12.4122241 15.9876302,12.7895467 15.9766994,13.2284133 C15.9765565,13.2345107 15.9764851,13.240608 15.9764851,13.2467054 Z" id="Shape"></path>
                        </g>
                    </g>
                </g>
            </g>
        </g>
    </g>
</svg>