<?xml version="1.0" encoding="UTF-8"?>
<svg width="18px" height="18px" viewBox="0 0 18 18" version="1.1" xmlns="http://www.w3.org/2000/svg" xmlns:xlink="http://www.w3.org/1999/xlink">
    <!-- Generator: Sketch 51.3 (57544) - http://www.bohemiancoding.com/sketch -->
    <title>user</title>
    <desc>Created with Sketch.</desc>
    <defs></defs>
    <g id="Desktop-New" stroke="none" stroke-width="1" fill="none" fill-rule="evenodd">
        <g id="02.0-Contact" transform="translate(-428.000000, -481.000000)" fill="#D8D8D8" fill-rule="nonzero">
            <g id="form" transform="translate(332.000000, 337.000000)">
                <g transform="translate(78.000000, 116.000000)" id="Nombre">
                    <g transform="translate(0.000000, 10.000000)">
                        <g id="user" transform="translate(18.000000, 18.000000)">
                            <path d="M9,11.7692308 C3.95325621,11.7692308 0,13.8592431 0,16.5273775 L0,17.3487271 C0,17.7084355 0.326266956,18 0.728709848,18 C1.13115274,18 1.4574197,17.7084355 1.4574197,17.3487271 L1.4574197,16.5273775 C1.4574197,14.6542357 4.91148042,13.0717766 9,13.0717766 C13.0885196,13.0717766 16.5425803,14.6542357 16.5425803,16.5273775 L16.5425803,17.3487271 C16.5425803,17.7084355 16.868812,18 17.2712902,18 C17.6737683,18 18,17.7084041 18,17.3487271 L18,16.5273775 C18,13.8592431 14.0467438,11.7692308 9,11.7692308 Z" id="Shape"></path>
                            <path d="M13.7971053,3.83952251 C13.654469,2.87754539 13.2155464,2.00558266 12.5278472,1.31789571 C11.8401479,0.63020875 10.9681696,0.191366072 10.0061393,0.0486963129 C9.56826053,-0.0162321043 9.12411917,-0.0162321043 8.68613245,0.0486963129 C6.23187356,0.412640966 4.53128727,2.70536271 4.89520244,5.1595777 C5.07149129,6.34844437 5.70023564,7.3975206 6.66557723,8.11349676 C7.44926717,8.69475726 8.37854477,9.00003599 9.33665197,9 C9.55875864,9 9.78244896,8.98358794 10.0061393,8.9504039 C12.4604342,8.58645925 14.1610204,6.2937375 13.7971053,3.83952251 Z M9.78781176,7.47774534 C8.99246042,7.59576102 8.19847677,7.39687275 7.55256423,6.91775574 C6.9066157,6.43867472 6.48594113,5.73669919 6.36799533,4.94121811 C6.12447341,3.29900424 7.26239667,1.76487243 8.90460393,1.52135487 C9.05116338,1.49965208 9.19869461,1.48878269 9.34626184,1.48878269 C9.49382906,1.48878269 9.64139628,1.49965208 9.78788375,1.52135487 C11.1092223,1.71729185 12.1285879,2.7366752 12.3245283,4.05795409 C12.5679423,5.70013197 11.430019,7.23426378 9.78781176,7.47774534 Z" id="Shape"></path>
                        </g>
                    </g>
                </g>
            </g>
        </g>
    </g>
</svg>