<svg xmlns="http://www.w3.org/2000/svg" width="77" height="77" viewBox="0 0 77 77">
    <g fill="none" fill-rule="evenodd">
        <g>
            <g>
                <g>
                    <g transform="translate(-17 -5284) translate(17 4223) translate(0 129) translate(0 932)">
                        <rect width="77" height="77" fill="#0A0A0A" rx="23"/>
                        <g fill-rule="nonzero">
                            <path fill="#FFF" fill-opacity=".15" d="M37.64 44c-3.506 0-6.359-2.853-6.359-6.36V21.829c0-3.506 2.853-6.36 6.36-6.36 3.506 0 6.359 2.854 6.359 6.36v15.813C44 41.147 41.147 44 37.64 44zm0-25.094c-1.61 0-2.921 1.311-2.921 2.922v15.813c0 1.61 1.31 2.922 2.922 2.922 1.61 0 2.922-1.311 2.922-2.922V21.828c0-1.611-1.311-2.922-2.922-2.922zM6.36 44C2.852 44 0 41.147 0 37.64V26.298c0-3.507 2.853-6.36 6.36-6.36 3.506 0 6.359 2.853 6.359 6.36V37.64c0 3.506-2.853 6.359-6.36 6.359zm0-20.625c-1.612 0-2.923 1.31-2.923 2.922V37.64c0 1.61 1.311 2.922 2.922 2.922 1.612 0 2.922-1.311 2.922-2.922V26.297c0-1.611-1.31-2.922-2.922-2.922zm22 14.266v-6.703c0-.95-.77-1.72-1.72-1.72-.949 0-1.718.77-1.718 1.72v6.703c0 1.61-1.31 2.922-2.922 2.922-1.611 0-2.922-1.311-2.922-2.922V13.234c0-.949-.77-1.718-1.719-1.718h-2.361c-.603 0-.84-.415-.915-.593-.071-.171-.193-.614.212-1.023l5.376-5.422c.664-.671 1.553-1.04 2.5-1.04.949 0 1.837.369 2.502 1.04L30.05 9.9c.405.41.283.852.211 1.023-.074.178-.311.593-.914.593h-2.705c-.95 0-1.72.77-1.72 1.718 0 .95.77 1.72 1.72 1.72h2.705c1.797 0 3.402-1.063 4.087-2.708.69-1.656.33-3.482-.943-4.766l-5.376-5.422C25.8.73 24.044 0 22.172 0c-1.872 0-3.628.73-4.943 2.058L11.854 7.48c-1.273 1.284-1.634 3.11-.944 4.766.686 1.644 2.29 2.707 4.088 2.707h.643v22.688C15.64 41.147 18.493 44 22 44s6.36-2.853 6.36-6.36z" transform="translate(17 17)"/>
                            <path fill="#FFBC00" d="M26.64 26.04c-.949 0-1.718-.77-1.718-1.72v-4.64c0-.95.77-1.72 1.719-1.72.949 0 1.718.77 1.718 1.72v4.64c0 .95-.77 1.72-1.718 1.72z" transform="translate(17 17)"/>
                        </g>
                    </g>
                </g>
            </g>
        </g>
    </g>
</svg>
