<svg width="67" height="66" viewBox="0 0 67 66" xmlns="http://www.w3.org/2000/svg">
    <g fill="none" fill-rule="evenodd">
        <rect fill="#1A1A1A" x=".143" width="66" height="66" rx="23"/>
        <g fill-rule="nonzero">
            <path d="M46.65 52a5.498 5.498 0 0 1-5.492-5.492V32.852a5.498 5.498 0 0 1 5.493-5.493 5.498 5.498 0 0 1 5.492 5.493v13.656A5.498 5.498 0 0 1 46.65 52zm0-21.672a2.526 2.526 0 0 0-2.523 2.524v13.656a2.526 2.526 0 0 0 2.524 2.523 2.526 2.526 0 0 0 2.523-2.523V32.852a2.526 2.526 0 0 0-2.523-2.524zM19.636 52a5.498 5.498 0 0 1-5.492-5.492V36.71a5.498 5.498 0 0 1 5.492-5.492 5.498 5.498 0 0 1 5.492 5.492v9.797A5.498 5.498 0 0 1 19.635 52zm0-17.813a2.526 2.526 0 0 0-2.523 2.524v9.797a2.526 2.526 0 0 0 2.523 2.523 2.526 2.526 0 0 0 2.523-2.523V36.71a2.526 2.526 0 0 0-2.523-2.523zm19 12.32V40.72a1.484 1.484 0 1 0-2.969 0v5.789a2.526 2.526 0 0 1-2.523 2.523 2.526 2.526 0 0 1-2.524-2.523V25.43c0-.82-.664-1.485-1.484-1.485h-2.04a.816.816 0 0 1-.79-.511.783.783 0 0 1 .183-.884l4.643-4.683a3.02 3.02 0 0 1 2.16-.898 3.02 3.02 0 0 1 2.16.898l4.643 4.683c.35.354.245.736.183.884a.816.816 0 0 1-.79.511h-2.336a1.484 1.484 0 1 0 0 2.97h2.336a3.807 3.807 0 0 0 3.53-2.34c.596-1.43.284-3.006-.814-4.115l-4.643-4.683A5.967 5.967 0 0 0 33.29 14a5.968 5.968 0 0 0-4.268 1.777L24.38 20.46c-1.099 1.109-1.41 2.686-.815 4.116a3.807 3.807 0 0 0 3.53 2.338h.556v19.594A5.498 5.498 0 0 0 33.143 52a5.498 5.498 0 0 0 5.492-5.492z" fill="#FFBD00"/>
            <path d="M37.15 36.488c-.82 0-1.484-.664-1.484-1.484v-4.008a1.484 1.484 0 1 1 2.969 0v4.008c0 .82-.665 1.484-1.484 1.484z" fill="#FFF"/>
        </g>
    </g>
</svg>
