<svg xmlns="http://www.w3.org/2000/svg" width="77" height="77" viewBox="0 0 77 77">
    <g fill="none" fill-rule="evenodd">
        <g>
            <g>
                <g>
                    <g transform="translate(-17 -5857) translate(17 4223) translate(0 129) translate(0 1505)">
                        <rect width="77" height="77" fill="#0A0A0A" rx="23"/>
                        <g fill-rule="nonzero">
                            <path fill="#FFBC00" d="M33.414 40.023c-.47 0-.942-.18-1.3-.54-.716-.718-.714-1.88.004-2.596l3.331-3.32c.345-.344.535-.8.535-1.287 0-.483-.188-.939-.53-1.282l-3.323-3.247c-.725-.71-.739-1.872-.03-2.597.709-.725 1.871-.738 2.596-.03l3.331 3.256.014.013c1.04 1.038 1.614 2.418 1.614 3.887 0 1.47-.573 2.85-1.614 3.888l-3.332 3.32c-.358.357-.827.535-1.296.535zm-1.01-7.894c0-1.014-.822-1.836-1.836-1.836h-5.783c-1.014 0-1.836.822-1.836 1.836 0 1.014.822 1.836 1.836 1.836h5.783c1.014 0 1.836-.822 1.836-1.836z" transform="translate(15 15)"/>
                            <path fill="#FFF" fill-opacity=".15" d="M35.984 47H11.016C4.942 47 0 42.058 0 35.984V11.016C0 4.942 4.942 0 11.016 0h24.968C42.058 0 47 4.942 47 11.016v24.968C47 42.058 42.058 47 35.984 47zM11.016 3.672c-4.05 0-7.344 3.294-7.344 7.344v24.968c0 4.05 3.294 7.344 7.344 7.344h24.968c4.05 0 7.344-3.294 7.344-7.344V11.016c0-4.05-3.294-7.344-7.344-7.344H11.016zm28.64 8.17c0-1.014-.822-1.836-1.836-1.836H9.18c-1.014 0-1.836.822-1.836 1.836 0 1.014.822 1.836 1.836 1.836h28.64c1.014 0 1.836-.822 1.836-1.836zM14.886 32.14c.716-.718.714-1.88-.004-2.597l-3.331-3.32c-.345-.343-.535-.8-.535-1.286 0-.484.188-.94.53-1.283l3.323-3.247c.725-.709.739-1.871.03-2.596-.709-.726-1.871-.739-2.596-.03l-3.331 3.255-.014.013c-1.04 1.038-1.614 2.419-1.614 3.887 0 1.47.573 2.85 1.615 3.888l3.33 3.32c.36.357.828.536 1.297.536.47 0 .942-.18 1.3-.54zm9.165-7.355c0-1.014-.822-1.836-1.836-1.836h-5.783c-1.014 0-1.836.822-1.836 1.836 0 1.014.822 1.836 1.836 1.836h5.783c1.014 0 1.836-.822 1.836-1.836z" transform="translate(15 15)"/>
                        </g>
                    </g>
                </g>
            </g>
        </g>
    </g>
</svg>
