<svg xmlns="http://www.w3.org/2000/svg" width="116" height="31" viewBox="0 0 116 31">
    <g fill="none" fill-rule="evenodd" opacity=".6">
        <g fill="#FFF" fill-rule="nonzero">
            <g>
                <g>
                    <g>
                        <g>
                            <path d="M.875 22.771L0 21.906l.02-5.742c.016-6.416 0-6.066.402-7.26.24-.721.458-1.154.89-1.803.376-.55 1.157-1.375 1.662-1.745.604-.443 4.85-3.09 5.282-3.291 1.036-.49 2-.695 3.208-.695 1.245 0 2.24.216 3.266.71.558.268 4.693 2.884 5.308 3.358 1.35 1.035 2.297 2.564 2.693 4.346.104.479.11.628.125 6.334l.02 5.84-.848.839-.85.84H1.75l-.875-.866zm5.756-4.248l-1.73-1.71.01-1.776.016-1.772 4.71-3.661c2.593-2.014 4.718-3.682 4.729-3.713.02-.067-1.042-.705-1.443-.86-.974-.37-2.162-.34-3.11.088-.15.072-1.265.746-2.48 1.508-2.01 1.262-2.239 1.417-2.671 1.844-.401.396-.51.546-.719.953-.469.952-.448.648-.448 6.06v4.754H8.365l-1.734-1.715zm12.777-3.074c0-5.304.015-5.042-.36-5.845-.208-.448-.437-.783-.755-1.123-.25-.262-.687-.602-.781-.602-.037 0-8.918 6.859-9.381 7.245-.01.01 1.135 1.164 2.552 2.565l2.578 2.549 3.074-.01 3.073-.016v-4.763zM27.768 13.827V4.429h3.594v4.505l.797.82.791.813 1.902-3.07 1.9-3.063 2.204-.005c1.75 0 2.198.015 2.167.067-.02.03-1.276 1.9-2.792 4.14-1.51 2.245-2.75 4.11-2.75 4.14 0 .03 1.115 1.184 2.474 2.57 1.36 1.385 2.474 2.528 2.474 2.543 0 .016-.969.031-2.156.031h-2.157l-2.385-2.507c-1.308-1.386-2.401-2.519-2.428-2.529-.02-.01-.041 2.312-.041 5.16v5.18h-3.594v-9.397zM51.259 21.628L51.259 20.032 53.082 20.032 54.905 20.032 54.905 21.628 54.905 23.224 53.082 23.224 51.259 23.224zM73.136 20.032V17.92H71.26v-2.368h1.87l.015-4.336.016-4.341.14-.417c.36-1.036 1.152-1.7 2.35-1.957.468-.103 1.812-.15 2.76-.098l.714.036v2.77h-.823c-.766 0-.844.01-1.057.119-.152.082-.282.206-.386.37l-.156.248-.016 3.805-.01 3.8h2.344V17.92h-2.344V22.143h-3.542v-2.111zM107.461 19.98c-.453-.082-.791-.407-.88-.834-.172-.855.589-1.514 1.469-1.272.24.067.568.345.682.582.12.247.11.71-.02.963-.11.206-.459.494-.646.535-.276.052-.438.057-.605.026zm.63-.479c.407-.267.454-.726.105-1.07-.25-.253-.485-.3-.802-.16-.308.133-.427.319-.427.659 0 .231.026.293.156.432.193.201.302.253.578.253.14.005.276-.036.39-.114z" transform="translate(-240 -1303) translate(26 1076.5) translate(214 227) translate(3.613 2.727) matrix(1 0 0 -1 0 23.682)"/>
                            <path d="M107.305 18.925v-.49h.156c.141 0 .157.016.157.17v.165l.104-.165c.083-.139.135-.17.292-.17h.182l-.115.16c-.093.134-.104.18-.057.257.094.145.073.382-.031.474-.068.062-.193.088-.39.088h-.298v-.49zM63.797 18.204c-.954-.18-1.652-.577-2.495-1.427l-.563-.561v1.705h-3.49V0h3.594v2.961c0 1.684.021 2.961.047 2.961s.089-.062.14-.14c.313-.478 1.11-1.117 1.72-1.384.625-.273 1.11-.35 2.13-.35.839.005.99.015 1.443.139 2.604.684 4.172 2.878 4.422 6.2.198 2.564-.52 4.902-1.932 6.297-.704.696-1.558 1.185-2.5 1.427-.636.165-1.88.211-2.516.093zm.87-2.884c1.062-.222 1.708-.855 2.104-2.06.25-.752.297-1.133.291-2.266-.005-.937-.015-1.076-.14-1.54-.203-.741-.459-1.22-.896-1.658-.568-.571-1.12-.793-1.98-.793-1.463.006-2.479.742-2.968 2.168-.355 1.015-.38 2.544-.073 3.754.312 1.236 1.187 2.168 2.255 2.395.427.093.969.093 1.406 0zM86.132 18.224c-2.24-.283-4.245-1.694-5.256-3.692-.234-.463-.51-1.272-.64-1.864-.136-.628-.136-2.41 0-3.038.473-2.194 1.734-3.878 3.604-4.825 1.02-.515 1.838-.721 3.052-.773 2.235-.093 4.1.613 5.542 2.101.938.968 1.537 2.153 1.834 3.64.125.624.125 2.122 0 2.766-.453 2.328-1.766 4.063-3.813 5.052-.667.32-1.26.5-2.021.607-.589.088-1.703.098-2.302.026zm1.979-2.75c.573-.149.948-.36 1.349-.762.823-.813 1.23-1.988 1.23-3.553 0-1.035-.157-1.818-.5-2.539-.454-.952-1.152-1.54-2.105-1.776-.417-.103-1.406-.093-1.792.025-1.27.376-2.089 1.401-2.406 2.998-.136.669-.125 1.992.015 2.646.355 1.622 1.214 2.663 2.448 2.956.417.103 1.376.103 1.761.005zM100.325 18.25c-2.11-.263-3.495-1.06-4.167-2.415-.328-.649-.39-.958-.39-1.88 0-.7.015-.85.13-1.205.23-.752.823-1.467 1.568-1.9.672-.391 1.562-.66 3.287-.989 2.15-.412 2.578-.545 3.031-.952.323-.294.427-.567.38-.979-.057-.479-.354-.84-.9-1.091-.657-.304-1.845-.381-2.652-.17-1 .257-1.667.916-1.86 1.833l-.062.304h-3.37l.031-.242c.208-1.463.807-2.529 1.85-3.306 1.072-.799 2.328-1.17 4.166-1.226 3.224-.098 5.511 1.184 6.011 3.368.11.484.11 1.488 0 2.013-.25 1.2-1.146 2.143-2.505 2.637-.552.196-2.136.582-3.09.747-2.239.391-2.864.726-2.864 1.534 0 .5.271.886.818 1.164.797.402 2.474.366 3.224-.072.458-.263.807-.819.89-1.396l.032-.226h3.282l-.032.257c-.198 1.643-1.291 3.095-2.792 3.708-.875.355-1.547.474-2.818.49-.557.01-1.099.004-1.198-.006zM48.504 18.023c-.88-.185-1.74-.664-2.318-1.292-.162-.18-.292-.34-.292-.366 0-.02-.02-.041-.052-.041-.031 0-.052.299-.052.798v.798H42.3V4.43h3.646v3.517c0 3.47.021 3.893.188 4.542.224.885.792 1.59 1.588 1.977.625.304.995.386 1.756.386l.635.005v1.556c0 1.19-.015 1.565-.062 1.596-.1.057-1.282.067-1.547.015zM51.259 11.174L51.259 4.429 53.082 4.429 54.905 4.429 54.905 11.174 54.905 17.92 53.082 17.92 51.259 17.92z" transform="translate(-240 -1303) translate(26 1076.5) translate(214 227) translate(3.613 2.727) matrix(1 0 0 -1 0 23.682)"/>
                        </g>
                    </g>
                </g>
            </g>
        </g>
    </g>
</svg>
