<svg xmlns="http://www.w3.org/2000/svg" width="144" height="31" viewBox="0 0 144 31">
    <g fill="none" fill-rule="evenodd" opacity=".6">
        <g fill="#FFF" fill-rule="nonzero">
            <g>
                <g>
                    <g>
                        <path d="M77.527 12.497v9.789h-4.945v-9.143c0-.759-.122-1.338-.365-1.738-.243-.4-.692-.6-1.347-.6-.517.016-1.024.136-1.49.353-.63.278-1.243.591-1.836.939v10.189h-4.948v-9.143c0-.759-.122-1.338-.365-1.738-.243-.4-.692-.6-1.346-.6-.523.017-1.036.137-1.51.353-.637.275-1.257.589-1.855.939v10.189h-4.972V7.357h3.078l.856 1.57c.918-.61 1.908-1.113 2.948-1.495.928-.36 1.916-.556 2.916-.575 2.072 0 3.52.647 4.343 1.94.895-.568 1.852-1.038 2.854-1.4.9-.342 1.855-.525 2.82-.54 1.84 0 3.16.488 3.963 1.462.803.975 1.204 2.365 1.204 4.171M85.28 2.774c.007.729-.269 1.428-.761 1.931-.481.531-1.146.826-1.838.815-1.409-.021-2.546-1.237-2.566-2.742-.01-.739.265-1.45.762-1.964.471-.526 1.126-.82 1.807-.814 1.436 0 2.6 1.244 2.6 2.778m-.24 20.365h-4.686V7.658h4.686v15.485zM104.235 14.88c0 2.557-.721 4.559-2.164 6.006-1.442 1.447-3.412 2.17-5.908 2.17-.837-.013-1.664-.185-2.435-.506v3.796c0 2.018-1.654 3.653-3.693 3.654h-1.306V7.368h2.527l.864.947c1.347-.972 2.757-1.458 4.23-1.458 2.415 0 4.332.697 5.752 2.092 1.42 1.394 2.13 3.37 2.132 5.926m-5.16.032c0-1.267-.288-2.26-.865-2.98-.576-.718-1.377-1.077-2.403-1.076-.663 0-1.357.243-2.083.729v6.845c.748.444 1.485.666 2.211.666.94 0 1.698-.385 2.274-1.157.576-.772.865-1.78.865-3.027M106.82 12.124c0-2.11.43-4.014 1.29-5.712.804-1.635 2.034-3.022 3.56-4.017 1.532-.988 3.312-1.52 5.134-1.538 1.884 0 3.574.469 5.071 1.407 1.51.956 2.723 2.315 3.502 3.923.837 1.674 1.256 3.567 1.256 5.68 0 2.113-.43 4.022-1.29 5.728-.804 1.645-2.042 3.04-3.58 4.034-1.533.987-3.318 1.512-5.143 1.513-1.78.025-3.532-.463-5.042-1.407-1.497-.937-2.664-2.245-3.502-3.923-.837-1.678-1.256-3.574-1.257-5.688m10.017-9.51c-1.46-.02-2.89.407-4.098 1.225-1.203.816-2.145 1.946-2.825 3.39-.68 1.444-1.02 3.065-1.022 4.864 0 1.779.33 3.374.99 4.786.66 1.412 1.57 2.523 2.731 3.333 1.156.804 2.534 1.226 3.942 1.208 1.458.02 2.888-.406 4.097-1.224 1.203-.815 2.145-1.945 2.826-3.39.68-1.444 1.02-3.076 1.02-4.896 0-1.777-.33-3.373-.988-4.785-.66-1.413-1.57-2.517-2.733-3.312-1.159-.794-2.535-1.21-3.94-1.193M135.904 23.129c-.976-.014-1.949-.14-2.899-.377-1.066-.251-1.93-.564-2.593-.939l.451-1.507c.734.37 1.503.66 2.295.864.887.241 1.8.363 2.717.362 1.69 0 3.003-.357 3.94-1.07.936-.712 1.404-1.633 1.403-2.764.018-.738-.2-1.462-.619-2.058-.413-.576-1.006-1.105-1.78-1.586-.774-.482-1.836-1.017-3.185-1.603-3.704-1.634-5.556-3.76-5.556-6.378-.006-.945.275-1.869.8-2.639.533-.797 1.283-1.426 2.25-1.886.966-.46 2.083-.69 3.35-.69.921-.004 1.84.112 2.733.344.808.206 1.592.5 2.34.88l-.664 1.478c-.657-.31-1.333-.572-2.023-.787-.625-.189-1.4-.283-2.325-.282-1.448 0-2.596.324-3.441.974-.818.592-1.294 1.572-1.269 2.608-.019.734.2 1.453.62 2.042.477.625 1.067 1.148 1.736 1.54.744.46 1.84 1.047 3.29 1.76 1.348.648 2.405 1.25 3.17 1.805.709.495 1.306 1.144 1.751 1.901.402.712.603 1.573.604 2.582.013 1.008-.283 1.995-.845 2.816-.564.829-1.385 1.473-2.461 1.933-1.077.46-2.34.69-3.789.69M33.09 1.714c1.707.001 3.09 1.435 3.09 3.204v20.165c0 1.77-1.383 3.203-3.09 3.203H11.705c-1.706 0-3.09-1.434-3.09-3.203V4.918c0-.85.326-1.666.906-2.267.58-.6 1.367-.938 2.187-.937H33.09zM17.198 10.85h-4.39v8.301h4.39v-8.3zm14.791 0H27.6v8.301h4.389v-8.3zM2.373 21.423h-1.3c-.591 0-1.07-.584-1.073-1.304V9.877c.002-.722.481-1.305 1.072-1.306h1.3c.593 0 1.074.587 1.074 1.31V20.12c0 .723-.48 1.31-1.073 1.31M44.314 21.429h-1.625c-.356 0-.696-.138-.948-.384-.25-.246-.392-.58-.392-.926V9.88c0-.347.141-.68.392-.926.252-.246.592-.384.948-.384h1.625c.356 0 .697.137.95.383.251.246.393.58.393.927V20.12c0 .347-.141.68-.392.926s-.592.384-.948.384" transform="translate(-231 -1188) translate(26 1076.5) translate(196.314 81) translate(9 31)"/>
                    </g>
                </g>
            </g>
        </g>
    </g>
</svg>
