<svg width="66" height="66" viewBox="0 0 66 66" xmlns="http://www.w3.org/2000/svg">
    <g fill="none" fill-rule="evenodd">
        <rect fill="#0A0A0A" width="66" height="66" rx="23"/>
        <g fill-rule="nonzero">
            <path d="M43.934 46.626h-22.16c-5.39 0-9.774-4.385-9.774-9.774V23.49c0-5.39 4.385-9.776 9.776-9.776h22.158c5.39 0 9.776 4.386 9.776 9.776v13.36c0 5.39-4.386 9.776-9.776 9.776zM21.776 16.973a6.525 6.525 0 0 0-6.517 6.517v13.362a6.523 6.523 0 0 0 6.515 6.515h22.16a6.525 6.525 0 0 0 6.517-6.517V23.49a6.525 6.525 0 0 0-6.517-6.517H21.776zm20.529 34.54c0-.9-.73-1.629-1.63-1.629h-15.64a1.63 1.63 0 1 0 0 3.259h15.64c.9 0 1.63-.73 1.63-1.63z" fill="#FFF"/>
            <path d="m40.699 33.172-1.085-.651a6.896 6.896 0 0 0 0-4.213l1.085-.651a1.63 1.63 0 1 0-1.677-2.794l-1.105.663a6.922 6.922 0 0 0-3.27-1.84v-1.418a1.63 1.63 0 1 0-3.259 0v1.417a6.923 6.923 0 0 0-3.329 1.903l-1.209-.725a1.63 1.63 0 0 0-1.676 2.794l1.222.733a6.9 6.9 0 0 0 0 4.049l-1.222.733a1.63 1.63 0 1 0 1.676 2.794l1.21-.725a6.923 6.923 0 0 0 3.328 1.902v1.418a1.63 1.63 0 1 0 3.259 0v-1.418a6.922 6.922 0 0 0 3.27-1.84l1.105.663a1.628 1.628 0 1 0 1.677-2.794zm-7.681.908a3.67 3.67 0 0 1-3.666-3.666 3.67 3.67 0 0 1 3.666-3.665 3.67 3.67 0 0 1 3.666 3.665 3.67 3.67 0 0 1-3.666 3.666z" fill="#FFBC00"/>
        </g>
    </g>
</svg>
