<svg xmlns="http://www.w3.org/2000/svg" width="77" height="77" viewBox="0 0 77 77">
    <g fill="none" fill-rule="evenodd">
        <g>
            <g>
                <g>
                    <g transform="translate(-17 -5556) translate(17 4223) translate(0 129) translate(0 1204)">
                        <rect width="77" height="77" fill="#0A0A0A" rx="23"/>
                        <g fill-rule="nonzero">
                            <path fill="#FFF" fill-opacity=".15" d="M37.256 38.397H11.403C5.115 38.397 0 33.28 0 26.994V11.405C0 5.116 5.116 0 11.405 0h25.851c6.289 0 11.405 5.116 11.405 11.405v15.587c0 6.288-5.116 11.405-11.405 11.405zM11.405 3.802c-4.193 0-7.603 3.41-7.603 7.603v15.589c0 4.191 3.41 7.601 7.601 7.601h25.853c4.193 0 7.604-3.41 7.604-7.603V11.405c0-4.193-3.411-7.603-7.604-7.603H11.405zm23.95 40.297c0-1.05-.85-1.9-1.9-1.9H15.207c-1.05 0-1.901.85-1.901 1.9 0 1.05.85 1.901 1.9 1.901h18.249c1.05 0 1.9-.851 1.9-1.9z" transform="translate(14 16)"/>
                            <path fill="#FFBC00" d="M33.482 22.7l-1.266-.76c.248-.774.383-1.6.383-2.457 0-.856-.135-1.682-.383-2.457l1.266-.76c.9-.54 1.192-1.707.652-2.608-.54-.9-1.708-1.192-2.608-.652l-1.29.774c-1.033-1.036-2.347-1.792-3.815-2.147V9.979c0-1.05-.85-1.9-1.9-1.9-1.05 0-1.901.85-1.901 1.9v1.654c-1.502.364-2.84 1.147-3.884 2.22l-1.41-.847c-.9-.54-2.069-.248-2.609.652s-.248 2.068.652 2.608l1.426.856c-.229.747-.353 1.54-.353 2.361 0 .822.124 1.615.353 2.362l-1.426.856c-.9.54-1.192 1.707-.652 2.607.357.594.986.924 1.632.924.333 0 .67-.088.976-.272l1.41-.846c1.045 1.073 2.383 1.856 3.885 2.22v1.654c0 1.05.85 1.9 1.9 1.9 1.05 0 1.901-.85 1.901-1.9v-1.654c1.468-.355 2.782-1.111 3.815-2.147l1.29.774c.306.183.643.27.976.27.646 0 1.276-.328 1.632-.922.54-.9.248-2.068-.652-2.608zm-8.961 1.06c-2.359 0-4.277-1.918-4.277-4.277 0-2.358 1.918-4.276 4.277-4.276 2.358 0 4.277 1.918 4.277 4.276 0 2.359-1.92 4.277-4.277 4.277z" transform="translate(14 16)"/>
                        </g>
                    </g>
                </g>
            </g>
        </g>
    </g>
</svg>
