<svg xmlns="http://www.w3.org/2000/svg" width="77" height="77" viewBox="0 0 77 77">
    <g fill="none" fill-rule="evenodd">
        <g>
            <g>
                <g>
                    <g transform="translate(-17 -4954) translate(17 4223) translate(0 129) translate(0 602)">
                        <rect width="77" height="77" fill="#0A0A0A" rx="23"/>
                        <g fill-rule="nonzero">
                            <path fill="#FFF" fill-opacity=".15" d="M17.139 23.73c-6.543 0-11.866-5.322-11.866-11.865C5.273 5.323 10.596 0 17.14 0c6.542 0 11.865 5.323 11.865 11.865 0 6.543-5.323 11.865-11.865 11.865zm0-20.214c-4.604 0-8.35 3.745-8.35 8.35 0 4.603 3.746 8.349 8.35 8.349 4.604 0 8.35-3.746 8.35-8.35 0-4.604-3.746-8.35-8.35-8.35zm15.996 41.396c-6.543 0-11.865-5.323-11.865-11.865 0-6.543 5.322-11.865 11.865-11.865C39.677 21.182 45 26.504 45 33.047c0 6.542-5.323 11.865-11.865 11.865zm0-20.215c-4.604 0-8.35 3.746-8.35 8.35 0 4.604 3.746 8.35 8.35 8.35 4.604 0 8.35-3.746 8.35-8.35 0-4.604-3.746-8.35-8.35-8.35z" transform="translate(16 16)"/>
                            <g fill="#FFBC00">
                                <path d="M36.122 4.043h-1.23V2.197c0-.97-.786-1.758-1.757-1.758-.971 0-1.758.787-1.758 1.758v3.604c0 .97.787 1.758 1.758 1.758h2.987c.97 0 1.758-.787 1.758-1.758s-.787-1.758-1.758-1.758zM16.26 0h-.023C6.917 0 0 7.176 0 15.996c0 .97.787 1.758 1.758 1.758.97 0 1.758-.787 1.758-1.758 0-6.882 5.273-12.48 12.744-12.48.97 0 1.758-.787 1.758-1.758S17.23 0 16.26 0z" transform="translate(16 16) translate(0 27.246)"/>
                            </g>
                        </g>
                    </g>
                </g>
            </g>
        </g>
    </g>
</svg>
