<svg xmlns="http://www.w3.org/2000/svg" width="174" height="38" viewBox="0 0 174 38">
    <g fill="none" fill-rule="evenodd" opacity=".6">
        <g fill="#FFF" fill-rule="nonzero">
            <g>
                <g>
                    <g>
                        <g>
                            <path d="M37.705 12.632c-.115-.017-.25-.031-.402-.045-.152-.014-.29-.02-.41-.02-.37-.015-.739.062-1.072.226-.267.143-.48.371-.605.649v5.572h-2.254V10.49h2.13l.062 1.016c.192-.346.461-.643.787-.865.325-.212.706-.32 1.093-.311.127 0 .254.01.379.03.109.016.217.04.322.072l-.03 2.199zM42.525 19.162c-.602.01-1.199-.099-1.759-.321-.494-.2-.942-.5-1.317-.881-.363-.375-.645-.821-.827-1.312-.193-.513-.29-1.058-.286-1.607v-.308c-.007-.603.087-1.203.278-1.774.17-.51.437-.98.787-1.384.344-.39.767-.7 1.24-.909 1.038-.427 2.199-.436 3.242-.024.447.191.846.482 1.167.85.324.383.565.83.708 1.313.165.556.246 1.134.238 1.715v.969h-5.374c.031.262.107.518.223.754.105.219.251.415.43.578.177.164.385.291.612.376.252.092.519.137.787.133.391.004.78-.075 1.139-.232.354-.16.663-.408.897-.72l1.106 1.251c-.149.208-.322.398-.514.566-.213.194-.45.36-.703.493-.296.153-.609.27-.932.346-.374.09-.758.133-1.142.128zm-.258-6.987c-.22-.004-.44.04-.643.13-.182.085-.344.208-.475.362-.138.165-.247.353-.324.555-.085.231-.142.472-.172.716h3.136v-.173c-.003-.213-.036-.424-.098-.628-.056-.186-.152-.359-.28-.505-.127-.146-.288-.26-.468-.33-.215-.087-.444-.13-.676-.127zM54.89 14.828c.006.59-.062 1.18-.202 1.754-.118.491-.326.955-.612 1.37-.267.376-.62.682-1.03.892-.449.221-.944.33-1.444.318-.438.012-.873-.083-1.267-.278-.36-.19-.676-.457-.925-.782l-.101.905h-2.033V6.922h2.254v4.326c.241-.288.54-.52.878-.68.369-.168.77-.25 1.174-.241.501-.012.998.1 1.447.324.41.212.762.519 1.03.896.29.413.499.877.617 1.369.138.566.206 1.147.202 1.73l.012.182zm-2.253-.173c0-.32-.023-.64-.07-.955-.04-.277-.126-.544-.255-.791-.12-.219-.296-.4-.51-.528-.24-.14-.517-.209-.795-.197-.322-.013-.641.067-.92.232-.243.16-.436.388-.553.657v3.366c.12.267.311.494.554.656.285.168.613.25.943.235.274.011.545-.054.784-.189.206-.126.376-.305.492-.519.13-.247.216-.515.254-.792.048-.332.072-.667.07-1.002l.006-.173zM61.16 19.007c-.114-.242-.19-.5-.225-.765-.243.27-.534.491-.857.654-.396.189-.83.28-1.268.266-.386.004-.77-.06-1.134-.188-.334-.113-.645-.29-.914-.52-.255-.223-.461-.498-.604-.807-.15-.324-.227-.678-.223-1.035-.008-.41.076-.816.245-1.189.169-.351.423-.654.738-.88.369-.26.782-.447 1.22-.551.555-.134 1.125-.197 1.696-.189h1.007v-.479c.018-.341-.09-.677-.3-.945-.2-.235-.515-.346-.949-.346-.32-.019-.637.08-.892.277-.218.187-.338.466-.324.755h-2.254c0-.362.088-.718.254-1.039.175-.338.42-.633.72-.865.34-.261.724-.46 1.132-.587.48-.15.98-.222 1.483-.216.457-.011.913.044 1.355.165.392.113.758.304 1.077.562.303.254.545.575.705.938.177.413.264.86.254 1.31v3.604c0 .24 0 .457.022.65.022.191.038.362.064.518.025.14.061.277.108.41.04.12.09.235.147.346v.135l-2.283.01zm-1.863-1.584c.18.002.36-.021.534-.069.153-.043.301-.105.44-.185.127-.072.242-.16.344-.265.09-.09.167-.194.23-.306v-1.464h-.929c-.26-.005-.52.029-.772.099-.196.054-.379.147-.538.275-.137.11-.245.25-.316.412-.067.164-.102.34-.101.519-.006.263.103.516.297.692.223.2.513.304.811.292zM67.222 10.491v8.986c.007.433-.059.863-.196 1.272-.116.349-.308.667-.56.933-.254.256-.562.451-.901.57-.393.135-.806.2-1.221.193-.187 0-.373-.01-.558-.031-.188-.022-.374-.057-.557-.104V20.51c.118.02.236.038.353.052.119.012.238.018.357.019.277.019.55-.076.756-.263.172-.173.264-.455.264-.84v-8.986h2.263zM64.781 8.29c-.009-.318.116-.624.343-.843.54-.44 1.31-.44 1.85 0 .226.22.351.525.342.843.002.163-.029.324-.089.475-.058.142-.144.269-.254.374-.114.109-.25.192-.398.244-.339.116-.706.116-1.044 0-.149-.052-.284-.135-.398-.244-.11-.105-.196-.232-.254-.374-.064-.15-.097-.312-.098-.475zM73.876 19.007c-.116-.241-.192-.5-.227-.765-.243.27-.534.491-.857.654-.396.189-.83.28-1.268.266-.386.004-.77-.06-1.136-.188-.334-.113-.643-.29-.912-.52-.256-.222-.462-.498-.604-.807-.15-.324-.227-.678-.223-1.035-.007-.41.077-.816.245-1.189.17-.351.423-.654.738-.88.369-.26.783-.447 1.221-.551.559-.134 1.131-.197 1.705-.187h1.007v-.48c.017-.342-.09-.679-.302-.946-.199-.235-.514-.346-.947-.346-.32-.019-.638.08-.893.277-.218.188-.337.466-.323.755h-2.264c0-.362.088-.718.254-1.039.176-.337.422-.633.722-.865.338-.268.721-.473 1.13-.606.48-.149.98-.222 1.483-.216.458-.004.916.06 1.356.189.393.113.76.304 1.078.562.304.253.545.574.705.938.176.411.263.856.253 1.305v3.604c0 .24.009.457.024.65.016.191.036.362.062.518.024.141.058.28.101.417.042.119.092.235.15.346v.135l-2.278.004zm-1.865-1.584c.18.002.36-.021.535-.069.154-.044.302-.106.441-.185.126-.072.241-.161.343-.265.09-.09.169-.194.232-.306v-1.464h-.935c-.26-.004-.52.029-.772.099-.196.054-.38.148-.539.275-.13.111-.234.253-.301.412-.07.164-.105.34-.103.519-.005.263.103.515.296.692.221.197.508.302.803.292zM79.734 8.43v2.061h1.573v1.125H79.73v5.281c-.006.18.02.361.079.532.042.119.113.225.206.31.085.073.187.123.297.145.112.024.227.036.343.036.127 0 .254-.013.379-.036.132-.023.235-.042.309-.06v1.183c-.115.03-.265.064-.446.102-.219.039-.44.057-.663.053-.255.002-.509-.036-.753-.114-.234-.074-.447-.205-.62-.38-.19-.2-.334-.441-.42-.705-.114-.346-.166-.71-.157-1.074v-5.273H76.74v-1.125h1.544v-2.06h1.45zM88.206 18.17c-.274.32-.62.573-1.007.735-.466.187-.965.277-1.467.263-.384.006-.766-.053-1.13-.173-.331-.114-.63-.305-.873-.56-.26-.28-.454-.615-.567-.982-.143-.47-.21-.96-.198-1.452v-5.51h1.442v5.517c-.009.321.036.642.132.948.072.22.192.423.352.59.139.14.31.243.499.3.188.055.382.083.578.083.495.02.985-.1 1.415-.346.346-.212.62-.526.786-.898V10.49h1.442v8.516h-1.372l-.032-.838zM96.715 16.747c.002-.151-.022-.302-.07-.445-.056-.153-.152-.288-.276-.393-.177-.146-.375-.263-.589-.346-.327-.124-.663-.222-1.006-.29-.43-.087-.852-.202-1.265-.347-.34-.117-.661-.282-.955-.491-.25-.178-.456-.41-.604-.68-.146-.284-.218-.6-.21-.92-.002-.333.074-.66.22-.958.152-.308.366-.582.628-.802.292-.24.625-.425.983-.544.415-.137.85-.203 1.287-.197.46-.007.917.063 1.353.21.37.123.715.316 1.014.569.55.466.865 1.156.857 1.88h-1.45c-.003-.179-.043-.356-.117-.519-.081-.18-.198-.34-.343-.472-.163-.149-.35-.266-.555-.346-.241-.09-.498-.135-.756-.13-.26-.006-.52.03-.768.107-.188.06-.363.156-.515.283-.127.109-.228.246-.295.401-.062.145-.094.302-.094.46-.003.146.024.29.078.426.064.142.166.262.296.346.185.12.386.216.596.282.322.105.65.194.98.265.456.102.905.239 1.341.408.34.129.657.308.944.531.236.185.427.422.559.693.127.286.189.598.182.912.005.354-.074.705-.23 1.022-.156.313-.381.586-.659.796-.31.234-.658.41-1.029.52-.433.128-.883.19-1.335.184-.504.01-1.007-.07-1.485-.235-.396-.138-.763-.35-1.08-.626-.282-.245-.508-.549-.663-.89-.148-.321-.226-.671-.226-1.026H92.9c.005.263.076.52.208.746.122.198.286.366.48.493.194.126.407.216.631.267.225.053.456.08.687.08.263.004.525-.028.78-.096.202-.053.394-.14.566-.26.143-.1.26-.234.343-.389.078-.148.12-.312.12-.48zM103.323 17.33c.193.002.386-.029.57-.092.163-.054.314-.14.443-.254.125-.11.225-.246.294-.398.071-.164.11-.34.111-.52h2.124c-.001.432-.097.858-.281 1.247-.178.375-.43.71-.741.984-.324.283-.699.5-1.103.642-.442.154-.906.23-1.373.227-.589.013-1.173-.1-1.715-.334-.468-.208-.884-.52-1.216-.912-.33-.4-.577-.863-.726-1.362-.165-.547-.246-1.115-.242-1.687v-.225c-.004-.573.078-1.144.242-1.692.148-.497.392-.96.719-1.36.33-.395.745-.708 1.213-.917.537-.234 1.118-.348 1.703-.334.485-.006.967.072 1.425.231.41.144.785.37 1.103.667.31.292.555.649.717 1.045.18.439.274.91.275 1.384h-2.124c-.003-.197-.039-.393-.104-.58-.062-.173-.155-.333-.276-.47-.124-.138-.277-.247-.446-.319-.192-.082-.4-.123-.608-.119-.282-.012-.562.06-.804.206-.207.135-.375.323-.487.545-.123.249-.203.517-.239.793-.042.307-.062.617-.062.927v.222c0 .313.02.625.062.936.035.273.116.539.239.785.112.219.28.403.487.535.249.143.533.212.82.199zM113.198 18.14c-.262.322-.593.58-.968.756-.422.187-.88.278-1.341.266-.386.006-.771-.052-1.139-.173-.335-.113-.638-.304-.885-.558-.263-.28-.459-.616-.573-.983-.146-.468-.214-.956-.204-1.445V10.49h2.256v5.524c-.005.206.025.411.089.607.05.153.136.291.248.405.108.103.238.179.38.223.156.05.32.074.483.071.342.014.683-.058.99-.21.249-.135.452-.341.585-.593v-6.027h2.262v8.516h-2.121l-.062-.867zM120.967 19.162c-.6.01-1.194-.1-1.752-.321-.495-.2-.943-.5-1.319-.881-.362-.376-.643-.822-.827-1.312-.191-.514-.288-1.058-.284-1.607v-.308c-.007-.603.087-1.203.278-1.774.169-.51.437-.98.787-1.384.344-.39.767-.7 1.24-.909 1.038-.427 2.198-.436 3.242-.024.447.192.845.482 1.166.85.322.383.561.83.702 1.313.165.556.246 1.134.238 1.715v.969h-5.374c.032.262.106.517.222.754.106.218.252.414.43.578.178.164.385.291.61.376.254.091.521.137.79.133.391.003.78-.076 1.139-.232.357-.159.669-.406.905-.72l1.107 1.251c-.147.208-.317.398-.506.566-.218.194-.46.359-.719.492-.295.152-.608.268-.931.346-.375.09-.76.134-1.144.13zm-.258-6.987c-.22-.004-.44.04-.643.13-.182.085-.344.208-.475.362-.138.165-.248.353-.324.555-.085.231-.142.472-.172.716h3.136v-.173c-.003-.213-.035-.424-.096-.628-.057-.187-.153-.359-.282-.505-.128-.146-.288-.259-.468-.33-.215-.087-.444-.13-.676-.127zM127.792 10.491l.072.985c.28-.36.64-.65 1.051-.846.43-.201.9-.302 1.373-.296.37-.003.739.055 1.09.173.324.11.615.301.845.555.252.29.438.633.543 1.004.138.497.202 1.01.19 1.526v5.415h-2.248v-5.43c.006-.23-.025-.458-.091-.677-.095-.326-.357-.575-.686-.65-.19-.047-.384-.069-.578-.066-.3-.01-.598.066-.858.22-.237.148-.434.353-.573.598v6.005h-2.25V10.49h2.12zM137.363 8.4v2.091h1.445v1.669h-1.445v4.25c-.003.148.015.297.055.44.056.208.224.364.433.406.124.024.251.036.379.034.135 0 .258-.005.37-.015.112-.01.21-.025.293-.04v1.73c-.2.061-.405.11-.612.146-.249.041-.5.061-.753.058-.338.005-.674-.041-.998-.136-.284-.084-.545-.234-.762-.438-.221-.217-.389-.484-.487-.779-.122-.372-.18-.763-.172-1.156v-4.499h-1.231v-1.67h1.231V8.4h2.254zM144.954 19.007c-.116-.241-.192-.5-.227-.765-.243.27-.534.491-.857.654-.396.189-.83.28-1.268.266-.386.004-.77-.06-1.136-.188-.334-.113-.643-.29-.912-.52-.256-.222-.462-.498-.604-.807-.15-.324-.227-.678-.223-1.035-.008-.41.076-.815.244-1.187.169-.351.422-.654.737-.881.37-.26.784-.446 1.222-.55.555-.134 1.125-.198 1.696-.189h1.007v-.48c.017-.342-.09-.679-.302-.946-.199-.235-.515-.346-.947-.346-.321-.019-.638.08-.893.277-.218.188-.337.466-.323.755h-2.254c.001-.362.088-.718.254-1.039.176-.337.422-.633.722-.865.341-.268.727-.474 1.14-.606.479-.149.979-.222 1.481-.216.46-.004.916.06 1.357.189.392.113.759.304 1.077.562.305.253.546.574.705.938.178.413.264.86.254 1.31v3.6c0 .24 0 .456.024.648s.036.363.062.52c.024.14.057.28.101.416.042.119.091.235.15.346v.135l-2.287.004zm-1.865-1.584c.18.002.36-.021.535-.069.154-.044.302-.106.441-.185.126-.072.242-.161.343-.265.09-.09.169-.194.232-.306v-1.464h-.93c-.26-.004-.52.029-.772.099-.196.054-.379.148-.538.275-.137.11-.245.251-.316.412-.07.164-.104.34-.103.519-.005.263.103.515.297.692.223.2.513.304.811.292zM153.2 16.653c0-.114-.023-.227-.071-.33-.061-.116-.153-.213-.266-.28-.166-.104-.344-.187-.53-.248-.285-.092-.575-.166-.87-.221-.408-.085-.81-.201-1.2-.346-.341-.126-.662-.3-.952-.52-.258-.197-.472-.446-.628-.732-.156-.297-.234-.63-.227-.967 0-.352.079-.7.232-1.016.158-.326.384-.615.662-.846.315-.264.677-.464 1.067-.592.458-.147.936-.22 1.417-.212.498-.007.995.062 1.473.204.403.118.78.312 1.112.57.295.233.536.528.703.866.165.343.249.72.245 1.1h-2.253c.009-.3-.104-.591-.313-.806-.207-.212-.532-.318-.976-.318-.314-.02-.626.072-.88.26-.201.157-.317.403-.312.66-.003.117.025.232.08.334.068.11.159.201.267.269.151.095.314.17.483.225.242.077.489.14.738.188.43.082.855.192 1.271.33.36.116.701.287 1.01.508.276.198.504.456.668.754.328.667.328 1.451 0 2.118-.174.325-.418.606-.714.822-.34.245-.718.429-1.12.543-.476.137-.97.203-1.465.196-.534.01-1.065-.075-1.57-.251-.417-.148-.804-.372-1.142-.661-.294-.254-.532-.567-.698-.92-.153-.325-.232-.68-.233-1.039h2.137c.005.199.054.394.144.571.083.155.2.289.343.39.147.103.313.177.487.22.19.048.386.072.582.07.343.024.686-.063.978-.247.206-.149.326-.39.32-.646zM156.126 18.688c-.004-.107.033-.211.103-.292.081-.083.195-.126.31-.118.117-.008.231.035.314.118.072.08.111.184.108.292.003.105-.036.207-.108.282-.084.082-.198.123-.314.115-.11.011-.218-.026-.298-.102-.08-.076-.122-.184-.115-.295zM159.644 18.559c.117 0 .233-.02.343-.06.105-.035.202-.09.288-.16.083-.067.153-.15.204-.244.052-.094.083-.198.093-.305h.634c-.01.177-.059.349-.144.504-.087.16-.203.303-.343.42-.301.257-.683.398-1.077.398-.266.006-.53-.048-.772-.159-.212-.103-.398-.252-.545-.438-.149-.186-.26-.4-.326-.63-.073-.246-.108-.5-.107-.757v-.154c-.001-.257.034-.512.107-.758.066-.23.177-.444.326-.63.146-.184.332-.33.543-.431.242-.111.505-.165.77-.16.214-.002.426.035.627.11.18.07.345.172.487.302.136.131.244.29.317.464.078.18.122.372.13.568h-.634c-.01-.12-.038-.237-.086-.346-.046-.104-.11-.199-.19-.279-.082-.08-.18-.144-.285-.188-.117-.048-.243-.072-.369-.07-.18-.006-.357.037-.514.125-.135.08-.247.193-.33.327-.083.14-.141.295-.171.457-.035.17-.052.345-.052.519v.147c0 .174.017.348.052.52.03.16.087.315.171.456.083.133.196.245.33.325.16.09.34.133.523.127zM161.783 17.02c-.003-.271.04-.542.125-.8.078-.234.2-.45.362-.638.154-.181.345-.326.56-.425.234-.106.487-.158.742-.154.258-.004.514.048.75.154.216.098.409.243.564.425.158.188.279.405.355.639.084.258.126.528.123.8v.08c.003.272-.039.542-.123.8-.076.234-.196.45-.355.637-.155.18-.347.324-.563.422-.476.203-1.013.203-1.489 0-.215-.098-.407-.242-.562-.422-.16-.187-.281-.403-.357-.637-.086-.258-.128-.528-.125-.8l-.007-.08zm.674.082c0 .189.023.377.069.56.042.165.113.322.209.462.09.13.206.239.343.317.307.157.67.157.976 0 .137-.078.254-.186.343-.317.095-.14.166-.297.21-.462.047-.183.07-.371.07-.56v-.082c0-.188-.024-.376-.07-.559-.044-.166-.115-.323-.212-.465-.092-.131-.212-.24-.351-.319-.15-.08-.319-.12-.49-.117-.168-.004-.335.037-.483.117-.135.08-.252.19-.343.319-.097.141-.167.299-.21.465-.045.183-.068.37-.068.56l.007.08zM166.833 15.075l.017.44c.135-.16.303-.29.492-.377.212-.095.443-.14.674-.135.233-.006.464.047.673.152.2.106.358.276.45.484.132-.192.308-.35.514-.46.228-.121.484-.18.742-.173.19-.003.379.025.56.083.156.05.297.139.411.258.118.127.206.28.256.446.06.21.088.428.082.646v2.595h-.672V16.44c.004-.14-.016-.28-.058-.414-.036-.1-.095-.19-.172-.263-.075-.067-.166-.115-.264-.138-.113-.026-.228-.039-.343-.038-.126-.002-.25.02-.367.065-.102.04-.195.1-.275.174-.077.077-.138.168-.182.268-.045.103-.074.213-.085.325v2.616h-.67V16.44c.004-.134-.017-.268-.06-.395-.068-.201-.229-.356-.432-.415-.11-.034-.227-.05-.343-.048-.391-.03-.757.2-.904.567v2.886h-.672v-3.959h.628zM.172 4.596v10.813c-.056 5.023 2.569 9.688 6.871 12.216 4.303 2.527 9.62 2.527 13.923 0 4.303-2.528 6.927-7.193 6.872-12.216 0-7.224-5.59-13.324-12.73-13.909l-.598-.05L14.237 0l-5.86 4.034 7.143 2.834-.223-1.493 1.153.296c5.023 1.284 8.23 6.24 7.375 11.396-.856 5.156-5.488 8.79-10.652 8.354-5.164-.435-9.134-4.793-9.13-10.02l.01-10.812-3.881.007zM19.898 15.15h-3.861v6.839c1.86-.662 3.295-2.182 3.86-4.089v-2.75zm-7.927-5.21H8.103v7.96c.57 1.906 2.007 3.423 3.868 4.085V9.941z" transform="translate(-26 -1303) translate(26 1076.5) translate(0 200) translate(0 26.997) translate(1.048 4.229)"/>
                        </g>
                    </g>
                </g>
            </g>
        </g>
    </g>
</svg>
