<svg xmlns="http://www.w3.org/2000/svg" width="124" height="35" viewBox="0 0 124 35">
    <defs>
        <radialGradient id="cdgjhzldxb" cx="52.459%" cy="51.318%" r="54.233%" fx="52.459%" fy="51.318%" gradientTransform="matrix(.91768 0 0 1 .043 0)">
            <stop offset="0%" stop-color="#030238"/>
            <stop offset="100%" stop-color="#FFF"/>
        </radialGradient>
        <linearGradient id="weqru307ua" x1="-8.567%" x2="101.789%" y1="-8.117%" y2="101%">
            <stop offset="0%" stop-color="#8846EC"/>
            <stop offset="100%" stop-color="#1E08EF"/>
        </linearGradient>
    </defs>
    <g fill="none" fill-rule="evenodd" opacity=".6">
        <g>
            <g>
                <g>
                    <g>
                        <g transform="translate(-50 -1184) translate(26 1076.5) translate(24.799 81) translate(0 27) translate(0 2.55)">
                            <rect width="4.241" height="4.25" x="111.124" y="19.55" fill="url(#weqru307ua)" rx="1"/>
                            <path fill="#FFF" d="M77.836 10.776c.879-.007 1.75.17 2.559.518.777.338 1.484.82 2.084 1.422.597.607 1.072 1.324 1.4 2.113.346.819.521 1.702.516 2.593.006.886-.17 1.763-.516 2.577-.332.786-.807 1.503-1.4 2.112-.595.611-1.304 1.099-2.084 1.434-1.637.698-3.482.698-5.119 0-.773-.338-1.474-.825-2.063-1.434-.593-.61-1.068-1.326-1.4-2.112-.346-.814-.522-1.691-.516-2.577-.005-.891.17-1.774.516-2.593.328-.789.803-1.506 1.4-2.113.594-.6 1.294-1.082 2.063-1.422.81-.349 1.68-.525 2.56-.518zm-16.598.243v6.957c0 2.024 1.09 2.845 2.542 2.845 1.453 0 2.547-.838 2.547-2.845v-6.953h3.343l-.004 7.25c0 3.993-2.778 5.714-5.89 5.714-3.112 0-5.902-1.721-5.902-5.713v-7.255h3.364zm43.376 1.143l.155.186c.002-.77.622-1.393 1.386-1.393h1.913l-.008 12.626h-3.291v-1.397c-.908 1.133-2.291 1.77-3.735 1.72-3.453 0-6.063-2.853-6.063-6.642 0-3.79 2.61-6.646 6.063-6.646 1.367-.05 2.679.521 3.58 1.546zM47.868 5.345c0 1.885-1.51 3.414-3.372 3.414H42.26v11.25c-.002 1.952-1.513 3.546-3.416 3.649l-.192.005V8.76h-5.59c0-1.886 1.51-3.414 3.371-3.414h11.435zm6.87 5.27c.596-.013 1.189.08 1.753.272l-.501 3.379c-.647-.27-1.339-.412-2.038-.42-1.562 0-2.635.968-2.635 2.848v3.48c.001.903-.353 1.77-.985 2.41-.58.586-1.348.936-2.16.99l-.223.008V10.954h3.264v1.381c.787-1.189 1.989-1.72 3.526-1.72zm37.989 0c.596-.013 1.19.079 1.755.272l-.505 3.379c-.646-.27-1.338-.412-2.037-.42-1.56 0-2.633.968-2.633 2.848v3.48c0 .903-.353 1.77-.985 2.41-.579.586-1.347.936-2.159.99l-.223.008V10.954h3.267v1.381c.787-1.189 1.984-1.72 3.52-1.72zM77.836 13.9c-.919-.018-1.803.35-2.444 1.017-.67.657-1.041 1.565-1.028 2.51-.002.455.09.907.268 1.325.187.425.444.814.76 1.15.638.674 1.522 1.05 2.444 1.042.454.001.904-.088 1.325-.264.424-.174.805-.44 1.118-.778.995-1.002 1.295-2.513.76-3.828-.536-1.314-1.8-2.17-3.203-2.17V13.9zm23.795-.118c-1.93 0-3.232 1.548-3.232 3.48 0 1.928 1.245 3.475 3.232 3.475 1.988 0 3.233-1.484 3.233-3.475 0-1.99-1.303-3.48-3.233-3.48z"/>
                            <g>
                                <path fill="#FFF" d="M19.318.002c-5.165.04-9.381 4.2-9.557 9.434h-.084v19.826c3.985 0 7.558-2.488 8.99-6.257h-.261c-2.086.003-3.997-1.185-4.94-3.071-.943-1.886-.758-4.15.477-5.854 1.236-1.704 3.312-2.558 5.37-2.208V9.761h.076c5.292-.037 9.565-4.395 9.569-9.76h-9.64z"/>
                                <path fill="#FFF" d="M17.997 20.427l-1.652-1.556c-.394-.37-.626-.884-.646-1.429-.02-.544.173-1.075.539-1.474l1.804 1.7 4.877-4.205c.855-.736 2.132-.636 2.866.224l-7.788 6.74zM9.614.002C4.336.045.08 4.387.078 9.728h19.117V.002h-9.58z"/>
                                <path fill="url(#cdgjhzldxb)" fill-rule="nonzero" d="M12.823 17.021c.031-.002.035-.268.1-.652.04-.229.107-.5.197-.779.152-.472.4-.98.716-1.443.153-.222.324-.434.503-.627.125-.134.253-.26.385-.374.187-.161.375-.308.568-.439.561-.38 1.152-.634 1.768-.785.316-.077.751-.16 1.313-.156.12 0 .297.004.525.027.074.007.197.024.368.05-.008-1.385-.008-2.084 0-2.097.787-1.101 3.22-.748 3.838-.978.125-.046.062-.724.062-1.095 0-3.168-1.548-5.97-3.92-7.671H9.463C9.131.01 8.64.078 8.435.088 6.13 1.796 4.633 4.558 4.633 7.673c0 .712.229 1.401.685 2.07h4.336v6.279c1.166.613 2.14.94 2.947.992.076.005.15.012.222.007z"/>
                                <path fill="#FFF" d="M19.318.002c-5.165.039-9.381 4.195-9.557 9.42l-.084 9.87c0-5.266 4.219-9.536 9.423-9.536h.289c5.296-.037 9.57-4.394 9.569-9.754h-9.64z"/>
                            </g>
                        </g>
                    </g>
                </g>
            </g>
        </g>
    </g>
</svg>
