<svg width="66" height="66" viewBox="0 0 66 66" xmlns="http://www.w3.org/2000/svg">
    <g fill="none" fill-rule="evenodd">
        <rect fill="#1A1A1A" width="66" height="66" rx="23"/>
        <g fill-rule="nonzero">
            <path d="M48.703 18.297A21.36 21.36 0 0 0 33.5 12a21.36 21.36 0 0 0-15.203 6.297A21.36 21.36 0 0 0 12 33.5a21.36 21.36 0 0 0 6.297 15.203A21.36 21.36 0 0 0 33.5 55a21.36 21.36 0 0 0 15.203-6.297A21.36 21.36 0 0 0 55 33.5a21.36 21.36 0 0 0-6.297-15.203zM35.18 51.562V48.03a1.68 1.68 0 1 0-3.36 0v3.533c-8.665-.8-15.583-7.717-16.382-16.382h3.533a1.68 1.68 0 1 0 0-3.36h-3.533c.8-8.665 7.717-15.583 16.382-16.382v3.449a1.68 1.68 0 1 0 3.36 0v-3.45c8.665.8 15.583 7.718 16.382 16.383H48.03a1.68 1.68 0 1 0 0 3.36h3.533c-.8 8.665-7.717 15.583-16.382 16.382zm-1.638-28.387a5.045 5.045 0 0 0-5.04 5.039c0 2.778 2.261 5.039 5.04 5.039s5.04-2.26 5.04-5.04c0-2.778-2.261-5.038-5.04-5.038zm0 6.718c-.926 0-1.68-.753-1.68-1.68 0-.925.754-1.679 1.68-1.679.926 0 1.68.754 1.68 1.68 0 .926-.754 1.68-1.68 1.68z" fill="#FFF"/>
            <path d="M39.463 44.404a1.68 1.68 0 0 1-1.68-1.68c0-2.027-1.66-3.676-3.7-3.676h-1.081c-2.04 0-3.701 1.649-3.701 3.676a1.68 1.68 0 1 1-3.36 0c0-3.88 3.168-7.036 7.06-7.036h1.081c3.893 0 7.06 3.157 7.06 7.036a1.68 1.68 0 0 1-1.68 1.68z" fill="#FFBC00"/>
        </g>
    </g>
</svg>
