<svg xmlns="http://www.w3.org/2000/svg" width="77" height="77" viewBox="0 0 77 77">
    <g fill="none" fill-rule="evenodd">
        <g>
            <g>
                <g>
                    <g transform="translate(-17 -4653) translate(17 4223) translate(0 129) translate(0 301)">
                        <rect width="77" height="77" fill="#0A0A0A" rx="23"/>
                        <g fill-rule="nonzero">
                            <path fill="#FFF" fill-opacity=".15" d="M42.678 7.322C37.956 2.6 31.678 0 25 0 18.322 0 12.044 2.6 7.322 7.322 2.6 12.044 0 18.322 0 25c0 6.678 2.6 12.956 7.322 17.678C12.044 47.4 18.322 50 25 50c6.678 0 12.956-2.6 17.678-7.322C47.4 37.956 50 31.678 50 25c0-6.678-2.6-12.956-7.322-17.678zm-15.725 38.68v-4.107c0-1.08-.874-1.954-1.953-1.954-1.079 0-1.953.875-1.953 1.954v4.107c-10.076-.93-18.12-8.973-19.05-19.049h4.108c1.08 0 1.954-.874 1.954-1.953 0-1.079-.875-1.953-1.954-1.953H3.997c.93-10.076 8.974-18.12 19.05-19.05v4.01c0 1.08.874 1.954 1.953 1.954 1.079 0 1.953-.874 1.953-1.953v-4.01c10.076.93 18.12 8.973 19.05 19.049h-4.108c-1.08 0-1.954.874-1.954 1.953 0 1.079.875 1.953 1.954 1.953h4.108c-.93 10.076-8.974 18.12-19.05 19.05zM25.05 12.994c-3.231 0-5.86 2.628-5.86 5.86 0 3.23 2.629 5.858 5.86 5.858 3.23 0 5.86-2.628 5.86-5.859 0-3.23-2.63-5.86-5.86-5.86zm0 7.812c-1.077 0-1.953-.876-1.953-1.953s.876-1.953 1.953-1.953 1.953.876 1.953 1.953-.876 1.953-1.953 1.953z" transform="translate(14 14)"/>
                            <path fill="#FFBC00" d="M31.934 37.679c-1.08 0-1.954-.874-1.954-1.953 0-2.357-1.93-4.275-4.303-4.275h-1.256c-2.373 0-4.304 1.918-4.304 4.275 0 1.079-.874 1.953-1.953 1.953-1.079 0-1.953-.874-1.953-1.953 0-4.511 3.683-8.182 8.21-8.182h1.256c4.527 0 8.21 3.67 8.21 8.182 0 1.079-.875 1.953-1.953 1.953z" transform="translate(14 14)"/>
                        </g>
                    </g>
                </g>
            </g>
        </g>
    </g>
</svg>
