<svg xmlns="http://www.w3.org/2000/svg" width="77" height="77" viewBox="0 0 77 77">
    <g fill="none" fill-rule="evenodd">
        <g>
            <g>
                <g transform="translate(-17 -4352) translate(17 4223) translate(0 129)">
                    <rect width="77" height="77" fill="#0A0A0A" rx="23"/>
                    <g fill-rule="nonzero">
                        <path fill="#FFF" fill-opacity=".148" d="M5.926 41C2.658 41 0 38.342 0 35.074V19.86c0-3.267 2.658-5.925 5.926-5.925 3.267 0 5.926 2.658 5.926 5.925v15.215c0 3.268-2.659 5.926-5.926 5.926zm0-23.863c-1.502 0-2.723 1.221-2.723 2.722v15.215c0 1.502 1.221 2.723 2.723 2.723 1.501 0 2.722-1.221 2.722-2.723V19.86c0-1.5-1.22-2.722-2.722-2.722zM20.5 41c-3.268 0-5.926-2.658-5.926-5.926v-6.566c0-3.268 2.658-5.926 5.926-5.926 3.268 0 5.926 2.658 5.926 5.926v6.566c0 3.268-2.658 5.926-5.926 5.926zm0-15.215c-1.501 0-2.723 1.222-2.723 2.723v6.566c0 1.502 1.222 2.723 2.723 2.723s2.723-1.221 2.723-2.723v-6.566c0-1.501-1.222-2.723-2.723-2.723zM35.074 41c-3.267 0-5.926-2.658-5.926-5.926V21.061c0-3.268 2.659-5.926 5.926-5.926 3.268 0 5.926 2.658 5.926 5.926v14.013C41 38.342 38.342 41 35.074 41zm0-22.662c-1.501 0-2.722 1.221-2.722 2.723v14.013c0 1.502 1.22 2.723 2.722 2.723s2.723-1.221 2.723-2.723V21.061c0-1.502-1.221-2.723-2.723-2.723z" transform="translate(18 18)"/>
                        <path fill="#FFBC00" d="M22.015 19.535c-1.222 0-2.45-.396-3.473-1.205-.028-.022-10.251-9.308-10.251-9.308-.91-.69-2.173-.648-3.034.106l-2.53 2.5c-.628.623-1.642.617-2.264-.011-.622-.63-.617-1.643.012-2.265 0 0 2.596-2.567 2.615-2.584 2.037-1.832 5.076-1.928 7.225-.229.029.023 10.252 9.308 10.252 9.308.99.752 2.403.621 3.238-.306l.03-.033 8.878-9.325c.61-.64 1.624-.666 2.264-.056.64.61.666 1.624.056 2.264l-8.863 9.31c-1.1 1.211-2.623 1.834-4.155 1.834zM41 9.13V4.805C41 2.155 38.845 0 36.195 0h-4.324c-.884 0-1.601.717-1.601 1.602 0 .884.717 1.601 1.601 1.601h4.324c.883 0 1.602.719 1.602 1.602v4.324c0 .884.717 1.601 1.601 1.601.885 0 1.602-.717 1.602-1.601z" transform="translate(18 18)"/>
                    </g>
                </g>
            </g>
        </g>
    </g>
</svg>
