<svg width="135" height="27" viewBox="0 0 135 27" xmlns="http://www.w3.org/2000/svg">
    <g fill="#FFF" fill-rule="nonzero" opacity=".587">
        <path d="M107 22c-4.963 0-9-4.037-9-9s4.037-9 9-9 9 4.037 9 9-4.037 9-9 9zm0-15.373c-3.507 0-6.36 2.86-6.36 6.373 0 3.514 2.853 6.373 6.36 6.373s6.36-2.859 6.36-6.373c0-3.514-2.853-6.373-6.36-6.373zM126 22c-4.963 0-9-4.037-9-9s4.037-9 9-9c4.962 0 9 4.037 9 9s-4.038 9-9 9zm0-15.373c-3.507 0-6.36 2.86-6.36 6.373 0 3.514 2.853 6.373 6.36 6.373s6.36-2.859 6.36-6.373c0-3.514-2.853-6.373-6.36-6.373zM53.348 4 47 22h2.58l4.955-13.89 4.856 13.837L62 22 55.745 4.006zM39.5 10.899 35.107 4H32l6.1 9.397V22h2.798v-8.628L47 4H43.892zM71.5 10.899 67.107 4H64l6.1 9.397V22h2.798v-8.628L79 4H75.892zM86.878 4H80v18h6.878c2.657 0 4.937-.868 6.596-2.51C95.127 17.854 96 15.61 96 13c0-5.383-3.666-9-9.122-9zm0 15.452h-4.073V6.548h4.073c3.747 0 6.265 2.593 6.265 6.452 0 3.86-2.518 6.452-6.265 6.452M12.153 20.35v6.648a2.088 2.088 0 0 1-.129-.12L.611 15.257A2.145 2.145 0 0 1 0 13.754c0-.564.22-1.104.611-1.502l1.795-1.828 9.747 9.927zm0-10.638L7.629 5.105 4.364 8.429l7.79 7.932-.001-6.65zm5.268-6.602L14.981.623a2.052 2.052 0 0 0-2.951 0L9.589 3.11l3.916 3.988 3.917-3.988zm8.969 9.142-1.79-1.825-9.757 9.936V27c.045-.039.09-.078.132-.121l11.414-11.624c.391-.398.61-.938.611-1.501 0-.564-.22-1.104-.61-1.502zm-11.547 4.122 7.8-7.943-3.264-3.326-4.536 4.62v6.649z"/>
    </g>
</svg>
