<svg xmlns="http://www.w3.org/2000/svg" width="22" height="22" viewBox="0 0 22 22">
    <g fill="none" fill-rule="evenodd">
        <g fill="#37EE8C">
            <g>
                <g>
                    <g transform="translate(-17.000000, -2866.000000) translate(17.000000, 2475.000000) translate(0.000000, 385.000000) translate(0.000000, 6.000000)">
                        <circle cx="11" cy="11" r="11" fill-opacity=".156"/>
                        <g fill-rule="nonzero" stroke="#37EE8C">
                            <path d="M.15 5.5C.05 5.4 0 5.25 0 5.15c0-.1.05-.25.15-.35l.7-.7c.2-.2.5-.2.7 0l.05.05L4.35 7.1c.1.1.25.1.35 0L11.4.15h.05c.2-.2.5-.2.7 0l.7.7c.2.2.2.5 0 .7h0l-8 8.3c-.1.1-.2.15-.35.15-.15 0-.25-.05-.35-.15l-3.9-4.2-.1-.15z" transform="translate(5.000000, 6.000000)"/>
                        </g>
                    </g>
                </g>
            </g>
        </g>
    </g>
</svg>
