<svg xmlns="http://www.w3.org/2000/svg" width="25" height="24" viewBox="0 0 25 24">
    <g fill="none" fill-rule="evenodd" opacity=".389">
        <g fill="#FFF">
            <g>
                <g>
                    <g>
                        <path d="M11.978 0C5.395 0 0 5.452 0 12.047 0 18.604 5.346 24 11.978 24c6.624 0 11.978-5.388 11.978-11.953C23.956 5.452 18.561 0 11.978 0zm2.106 22.383c-.674.14-1.39.21-2.106.21s-1.432-.07-2.105-.21v-3.29c0-.788.21-1.07.49-1.45.144-.163.23-.31.871-1.279l-1.08-.169c-2.78-.407-3.875-1.856-4.31-2.981-.562-1.505-.267-3.39.744-4.584.154-.183.28-.493.168-.816-.21-.647-.182-1.673-.042-2.067.744.106 1.51.64 2.148 1.026.294.172.448.127.59.141.512-.107 1.312-.366 2.54-.366.758 0 1.558.113 2.344.338.14-.003.367.116.758-.113.667-.407 1.407-.923 2.148-1.026.14.394.168 1.42-.042 2.067-.113.323.014.633.168.816 1.01 1.195 1.306 3.08.744 4.584-.435 1.125-1.53 2.574-4.31 2.981l-1.08.17c.663 1 .732 1.12.87 1.279.281.38.492.66.492 1.448v3.29zm1.403-.408v-2.883c0-.801-.168-1.336-.393-1.73 2.134-.576 3.65-1.842 4.323-3.656.716-1.912.394-4.19-.8-5.765.211-.943.211-2.447-.294-3.15-.225-.31-.534-.479-.927-.479h-.014c-1.088.06-1.945.609-2.863 1.168-.842-.225-1.699-.338-2.555-.338-.87 0-1.74.127-2.512.338-.967-.584-1.816-1.11-2.934-1.168-.351 0-.66.17-.885.479-.505.703-.505 2.207-.294 3.15-1.194 1.575-1.516 3.867-.8 5.765.673 1.814 2.19 3.08 4.323 3.656-.174.306-.312.7-.366 1.233-.431.148-.805.197-1.153.095-.366-.109-.652-.354-.9-.772-.558-.939-1.507-1.705-2.588-1.605l.123 1.4c.5-.045.999.485 1.258.923.427.72 1.002 1.193 1.71 1.402.525.155 1.006.152 1.523.041v1.896c-4.085-1.434-7.065-5.344-7.065-9.928 0-5.822 4.763-10.64 10.574-10.64s10.574 4.818 10.574 10.64c0 4.584-2.98 8.494-7.065 9.928z" transform="translate(-62 -796) translate(17 531) translate(0 265) translate(45.556)"/>
                    </g>
                </g>
            </g>
        </g>
    </g>
</svg>
