<svg xmlns="http://www.w3.org/2000/svg" width="25" height="24" viewBox="0 0 25 24">
    <g fill="none" fill-rule="evenodd" opacity=".389">
        <g fill="#FFF">
            <g>
                <g>
                    <g>
                        <path d="M20.447 0c1.935 0 3.509 1.577 3.509 3.516v16.968c0 1.939-1.574 3.516-3.51 3.516H3.51C1.574 24 0 22.423 0 20.484V3.516C0 1.577 1.574 0 3.51 0zm0 1.406H3.509c-1.16 0-2.105.947-2.105 2.11v16.968c0 1.163.944 2.11 2.105 2.11h16.938c1.16 0 2.105-.947 2.105-2.11V3.516c0-1.163-.944-2.11-2.105-2.11zm-8.469 4.266c3.483 0 6.317 2.839 6.317 6.328 0 3.49-2.834 6.328-6.317 6.328S5.661 15.49 5.661 12c0-3.49 2.834-6.328 6.317-6.328zm0 1.406c-2.709 0-4.913 2.208-4.913 4.922 0 2.714 2.204 4.922 4.913 4.922s4.913-2.208 4.913-4.922c0-2.714-2.204-4.922-4.913-4.922zm7.018-4.219c1.161 0 2.106.947 2.106 2.11 0 1.163-.945 2.11-2.106 2.11-1.16 0-2.105-.947-2.105-2.11 0-1.163.944-2.11 2.105-2.11zm0 1.407c-.387 0-.701.315-.701.703 0 .387.314.703.701.703.387 0 .702-.316.702-.703 0-.388-.315-.703-.702-.703z" transform="translate(-199 -796) translate(17 531) translate(0 265) translate(182.224)"/>
                    </g>
                </g>
            </g>
        </g>
    </g>
</svg>
