<svg xmlns="http://www.w3.org/2000/svg" xmlns:xlink="http://www.w3.org/1999/xlink" width="37" height="37" viewBox="0 0 37 37">
    <defs>
        <path id="2m4j6mejxa" d="M26.79 15.622c.644 0 1.166.737 1.166 1.645 0 .907-.522 1.644-1.165 1.644H1.165C.522 18.911 0 18.174 0 17.267c0-.908.522-1.645 1.165-1.645H26.79zm0-7.4c.644 0 1.166.737 1.166 1.645 0 .907-.522 1.644-1.165 1.644H1.165C.522 11.511 0 10.774 0 9.867c0-.908.522-1.645 1.165-1.645H26.79zm0-8.222c.644 0 1.166.737 1.166 1.644 0 .908-.522 1.645-1.165 1.645H1.165C.522 3.289 0 2.552 0 1.644 0 .737.522 0 1.165 0H26.79z"/>
    </defs>
    <g fill="none" fill-rule="evenodd">
        <g>
            <g>
                <g>
                    <path d="M0 0H37V37H0z" transform="translate(-360.000000, -71.000000) translate(17.000000, 64.000000) translate(343.000000, 7.000000)"/>
                    <g transform="translate(-360.000000, -71.000000) translate(17.000000, 64.000000) translate(343.000000, 7.000000) translate(4.933333, 9.044444)">
                        <mask id="yryy09xstb" fill="#fff">
                            <use xlink:href="#2m4j6mejxa"/>
                        </mask>
                        <use fill="#000" fill-rule="nonzero" xlink:href="#2m4j6mejxa"/>
                        <g fill="#0D0A12" mask="url(#yryy09xstb)">
                            <rect width="37" height="36.178" rx="3" transform="translate(-4.933333, -8.222222)"/>
                        </g>
                    </g>
                </g>
            </g>
        </g>
    </g>
</svg>
