<svg width="31" height="31" xmlns="http://www.w3.org/2000/svg" xmlns:xlink="http://www.w3.org/1999/xlink">
    <defs>
        <path d="m14.838 0 1.377 3.515h2.936c.912 0 1.653.756 1.653 1.686v10.323c0 .936-.746 1.698-1.664 1.698H1.802c-.917 0-1.664-.762-1.664-1.698V5.2c0-.93.741-1.686 1.653-1.686h.413V1.757h2.067v1.758h.456L6.105 0h8.733zM10.47 3.163c-3.418 0-6.2 2.838-6.2 6.327 0 3.488 2.782 6.326 6.2 6.326 3.419 0 6.2-2.838 6.2-6.326 0-3.489-2.781-6.327-6.2-6.327zm0 2.348a4.138 4.138 0 0 1 4.133 4.133 4.138 4.138 0 0 1-4.133 4.134 4.138 4.138 0 0 1-4.133-4.134 4.138 4.138 0 0 1 4.133-4.133zm7.578-.59c-.76 0-1.378.63-1.378 1.406 0 .775.618 1.405 1.378 1.405.76 0 1.378-.63 1.378-1.405 0-.776-.618-1.406-1.378-1.406zM3.582 2.46h-.689v1.054h.69V2.46z" id="a"/>
    </defs>
    <g fill="none" fill-rule="evenodd">
        <path d="M0 0h31v31H0z"/>
        <g transform="translate(4.822 6.889)">
            <mask id="b" fill="#fff">
                <use xlink:href="#a"/>
            </mask>
            <use fill="#6F57D8" fill-rule="nonzero" xlink:href="#a"/>
            <g mask="url(#b)" fill="#1D262C">
                <rect width="31" height="31" rx="8" transform="translate(-4.822 -6.889)"/>
            </g>
        </g>
    </g>
</svg>
