<svg xmlns="http://www.w3.org/2000/svg" width="24" height="21" viewBox="0 0 24 21">
    <g fill="none" fill-rule="evenodd" opacity=".389">
        <g fill="#FFF">
            <g>
                <g>
                    <g>
                        <path d="M23.956 2.623c-1.507.07-1.474.064-1.644.079l.892-2.554s-2.786 1.027-3.492 1.21C17.857-.312 15.1-.385 13.13.828c-1.614.994-2.48 2.701-2.19 4.697C7.796 5.088 5.15 3.596 3.06 1.08L2.4.286l-.494.909c-.624 1.148-.832 2.46-.584 3.696.102.507.274.99.514 1.443l-.567-.22-.068.949c-.068.964.253 2.09.858 3.01.17.26.39.544.667.825l-.293-.045.358 1.087c.47 1.429 1.446 2.534 2.712 3.149-1.265.538-2.287.88-3.966 1.434L0 17.03l1.42.778c.54.296 2.453 1.286 4.342 1.583 4.2.66 8.93.123 12.113-2.75 2.681-2.419 3.561-5.86 3.378-9.442-.027-.542.12-1.06.418-1.457.594-.795 2.281-3.112 2.285-3.118zM20.548 4.9c-.493.66-.74 1.502-.695 2.371.184 3.613-.797 6.414-2.917 8.326-2.476 2.234-6.47 3.111-10.956 2.406-.813-.127-1.653-.413-2.348-.699 1.408-.485 2.496-.918 4.252-1.75l2.452-1.163-2.707-.174c-1.297-.083-2.376-.712-3.04-1.734.353-.02.692-.078 1.03-.173l2.582-.72-2.603-.639C4.333 10.64 3.612 9.882 3.23 9.3c-.251-.382-.415-.773-.513-1.134.26.07.565.12 1.056.169l2.41.238-1.91-1.492C2.898 6.007 2.346 4.391 2.751 2.84c4.292 4.461 9.333 4.126 9.84 4.244-.111-1.087-.114-1.09-.144-1.193-.65-2.3.775-3.47 1.417-3.865 1.341-.826 3.47-.95 4.946.41.318.294.75.41 1.152.31.362-.09.66-.186.95-.29l-.605 1.732h.772l-.53.712z" transform="translate(-108 -797) translate(17 531) translate(0 265) translate(91.112 1.92)"/>
                    </g>
                </g>
            </g>
        </g>
    </g>
</svg>
