<svg width="57" height="57" viewBox="0 0 57 57" xmlns="http://www.w3.org/2000/svg" xmlns:xlink="http://www.w3.org/1999/xlink">
    <defs>
        <circle id="a" cx="28.5" cy="28.5" r="28.5"/>
    </defs>
    <g fill="none" fill-rule="evenodd">
        <mask id="b" fill="#fff">
            <use xlink:href="#a"/>
        </mask>
        <use fill="#12D67D" xlink:href="#a"/>
        <path d="M41.663 14c.434-.01.868.1 1.25.323.547.32.946.845 1.109 1.463l3.896 14.722c.06.225.086.45.082.672a2.418 2.418 0 0 1-2.405 2.45 2.406 2.406 0 0 1-2.318-1.794l-2.32-8.722c-5.84 10.014-15.212 19.788-26.45 27.444A97.066 97.066 0 0 1 7.39 54.97v-.03C-5.3 62.112-18.902 66-31.597 66A2.411 2.411 0 0 1-34 63.58a2.411 2.411 0 0 1 2.402-2.42c14.048 0 29.355-5.132 43.1-14.45 10.977-7.441 20.062-16.92 25.56-26.543l-9.264 2.514c-.082.022-.165.04-.248.053a2.4 2.4 0 0 1-2.889-1.725 2.422 2.422 0 0 1 1.699-2.964l14.681-3.963c.201-.054.406-.081.61-.082z" fill="#FFF" fill-rule="nonzero" mask="url(#b)"/>
    </g>
</svg>
