<svg xmlns="http://www.w3.org/2000/svg" width="25" height="24" viewBox="0 0 25 24">
    <g fill="none" fill-rule="evenodd" opacity=".389">
        <g fill="#FFF">
            <g>
                <g>
                    <g>
                        <path d="M20.447 0c1.935 0 3.509 1.577 3.509 3.516v16.968c0 1.939-1.574 3.516-3.51 3.516H3.51C1.574 24 0 22.423 0 20.484V3.516C0 1.577 1.574 0 3.51 0zm0 1.406H3.509c-1.16 0-2.105.947-2.105 2.11v16.968c0 1.163.944 2.11 2.105 2.11h16.938c1.16 0 2.105-.947 2.105-2.11V3.516c0-1.163-.944-2.11-2.105-2.11zM8.469 7.078c1.548 0 2.807 1.262 2.807 2.813 0 .839-.37 1.593-.953 2.109.584.516.953 1.27.953 2.11 0 1.55-1.26 2.812-2.807 2.812H4.258V7.078zm7.72 2.813c1.935 0 3.51 1.577 3.51 3.515v.703h-5.495c.29.819 1.07 1.407 1.985 1.407.75 0 1.448-.405 1.824-1.056l1.215.705c-.625 1.084-1.79 1.757-3.039 1.757-1.935 0-3.51-1.577-3.51-3.516 0-1.938 1.575-3.515 3.51-3.515zm-7.72 2.812H5.66v2.813H8.47c.774 0 1.404-.631 1.404-1.407 0-.775-.63-1.406-1.404-1.406zm7.72-1.406c-.915 0-1.696.588-1.985 1.406h3.97c-.29-.818-1.07-1.406-1.985-1.406zm-7.72-2.813H5.66v2.813H8.47c.774 0 1.404-.63 1.404-1.406 0-.776-.63-1.407-1.404-1.407zm10.527-1.406v1.406h-5.614V7.078h5.614z" transform="translate(-153 -796) translate(17 531) translate(0 265) translate(136.668)"/>
                    </g>
                </g>
            </g>
        </g>
    </g>
</svg>
