<svg xmlns="http://www.w3.org/2000/svg" width="24" height="24" viewBox="0 0 24 24">
    <g fill="none" fill-rule="evenodd" opacity=".389">
        <g fill="#FFF">
            <g>
                <g>
                    <path d="M20.447 0c1.935 0 3.509 1.577 3.509 3.516v16.968c0 1.939-1.574 3.516-3.51 3.516H3.51C1.574 24 0 22.423 0 20.484V3.516C0 1.577 1.574 0 3.51 0zm0 1.406H3.509c-1.16 0-2.105.947-2.105 2.11v16.968c0 1.163.944 2.11 2.105 2.11h16.938c1.16 0 2.105-.947 2.105-2.11V3.516c0-1.163-.944-2.11-2.105-2.11zM8.469 9.844v9.937H4.258V9.844h4.21zm5.615 0v.239c.445-.158.918-.24 1.403-.24 2.369.003 4.211 2.164 4.211 4.44v5.498h-4.21v-5.015c0-.388-.316-.704-.703-.704-.387 0-.701.316-.701.704v5.015H9.873V9.844h4.21zM7.065 11.25H5.661v7.125h1.404V11.25zm5.615 0h-1.404v7.125h1.404v-3.61c0-1.162.944-2.109 2.105-2.109s2.106.947 2.106 2.11v3.609h1.404v-4.093c0-1.614-1.311-3.03-2.805-3.032-.616 0-1.198.194-1.687.562l-1.123.845V11.25zM8.469 4.219v4.218H4.258V4.22h4.21zM7.065 5.625H5.661v1.406h1.404V5.625z" transform="translate(-17 -796) translate(17 531) translate(0 265)"/>
                </g>
            </g>
        </g>
    </g>
</svg>
