<svg xmlns="http://www.w3.org/2000/svg" width="51" height="43" viewBox="0 0 51 43">
    <g fill="none" fill-rule="evenodd">
        <g fill="#0091FF" fill-rule="nonzero">
            <g>
                <g>
                    <g>
                        <path d="M16.029 19.154c-1.234-.359-2.467-.54-3.667-.54-1.853 0-3.399.427-4.598.951 1.156-4.276 3.932-11.653 9.463-12.484.512-.077.932-.451 1.072-.955l1.209-4.369c.102-.37.041-.765-.167-1.085-.209-.321-.544-.535-.92-.587C18.013.029 17.597 0 17.185 0 10.545 0 3.97 7.002 1.197 17.028-.43 22.91-.909 31.753 3.102 37.319c2.245 3.115 5.52 4.778 9.734 4.944l.052.001c5.2 0 9.81-3.539 11.213-8.605.838-3.028.46-6.204-1.067-8.945-1.51-2.71-3.998-4.686-7.005-5.56zM48.578 24.714c-1.51-2.71-3.998-4.686-7.005-5.56-1.233-.359-2.467-.54-3.666-.54-1.853 0-3.4.427-4.598.951 1.155-4.276 3.932-11.653 9.463-12.484.512-.077.931-.451 1.072-.955l1.209-4.369c.101-.37.041-.765-.168-1.085-.208-.321-.543-.535-.919-.587C43.558.029 43.142 0 42.73 0c-6.638 0-13.213 7.002-15.988 17.028-1.628 5.882-2.105 14.725 1.907 20.292 2.244 3.114 5.52 4.778 9.733 4.944h.052c5.2 0 9.81-3.538 11.214-8.604.836-3.029.457-6.205-1.069-8.946z" transform="translate(-17.000000, -3295.000000) translate(17.000000, 2475.000000) translate(0.000000, 820.455481) translate(0.000148, 0.000000)"/>
                    </g>
                </g>
            </g>
        </g>
    </g>
</svg>
