<svg width="184" height="40" xmlns="http://www.w3.org/2000/svg">
    <path d="M44.409 0v14.201H14.32V25.8h29.627V40H0V10.878h10.97V0h33.439zm-33.44 14.201H3.351v22.476h37.246V29.12H10.969v-14.92zm167.1 2.163c1.454 0 3.32.384 5.064 2.474l-2.23 1.657c-.993-1.032-2.083-1.393-2.833-1.393-.848 0-1.817.288-1.817.961 0 .625.557 1.105 1.671 1.465 2.714.865 5.305 2.259 5.305 4.661 0 2.234-1.792 3.988-4.602 3.988-2.156 0-4.409-1.297-5.717-3.315l2.156-1.61c.654.865 2.058 2.115 3.56 2.115.945 0 1.745-.457 1.745-1.082 0-1.009-1.284-1.513-2.882-2.066-3.392-1.177-4.118-2.811-4.143-4.18-.048-2.162 2.011-3.675 4.724-3.675zM67.484 11.439c2.956 0 5.427 1.441 7.099 3.772l-2.423 1.777c-1.163-1.561-2.714-2.57-4.676-2.57-3.535 0-6.248 2.955-6.248 6.39 0 3.412 2.76 6.294 6.297 6.294 2.108 0 3.755-1.153 4.941-2.882l2.35 1.849c-1.622 2.498-4.166 4.084-7.29 4.084-5.184 0-9.278-4.18-9.278-9.345 0-5.165 4.045-9.37 9.228-9.37zm52.338 4.925c1.672 0 3.223.817 4.118 1.993l.122-1.633h2.737v13.092h-2.713l-.146-1.633c-.895 1.201-2.495 1.97-4.118 1.97-3.826 0-6.854-2.907-6.854-6.895 0-3.891 3.028-6.894 6.854-6.894zm36.913-4.565v18.017h-2.713l-.146-1.633c-.896 1.201-2.495 1.97-4.118 1.97-3.827 0-6.855-2.907-6.855-6.895 0-3.891 3.028-6.894 6.855-6.894 1.672 0 3.222.817 4.118 1.993V11.8h2.859zm-74.598 4.564c3.803 0 6.88 3.124 6.88 6.896 0 3.771-3.077 6.87-6.88 6.87s-6.855-3.099-6.855-6.87c0-3.772 3.052-6.896 6.855-6.896zm82.976 0c3.804 0 6.88 3.124 6.88 6.896 0 3.771-3.076 6.87-6.88 6.87-3.802 0-6.854-3.099-6.854-6.87 0-3.772 3.052-6.896 6.854-6.896zm-59.07 0c2.52 0 5.208.866 5.208 6.246v7.207h-2.907V23.45c0-2.425-.315-4.18-2.543-4.18-1.89 0-2.955 1.322-3.464 2.283.024.336.048.672.048 1.056v7.207h-2.906V23.45c0-2.425-.315-4.18-2.543-4.18-1.89 0-2.956 1.322-3.465 2.283v8.263h-2.906V16.724h2.688l.122 1.658c.848-.913 2.058-2.018 3.802-2.018 1.623 0 3.294.336 4.313 2.018.847-.961 2.809-2.018 4.553-2.018zm30.273 0c2.52 0 5.353.818 5.353 6.246v7.207h-2.906V23.45c0-2.425-.46-4.18-2.689-4.18-1.89 0-3.149 1.322-3.658 2.283v8.263h-2.906V16.724h2.688l.122 1.658c.848-.913 2.253-2.018 3.996-2.018zm-16.396 2.62c-2.35 0-4.118 1.945-4.118 4.275s1.768 4.228 4.118 4.228c2.35 0 4.07-1.898 4.07-4.228s-1.842-4.276-4.07-4.276zm29.935 0c-2.35 0-4.118 1.945-4.118 4.275s1.769 4.228 4.118 4.228c2.35 0 4.07-1.898 4.07-4.228s-1.842-4.276-4.07-4.276zm-67.742.215c-2.204 0-3.948 1.874-3.948 4.06 0 2.187 1.744 3.988 3.948 3.988 2.205 0 3.972-1.801 3.972-3.987 0-2.187-1.767-4.06-3.972-4.06zm82.976 0c-2.204 0-3.948 1.874-3.948 4.06 0 2.187 1.744 3.988 3.948 3.988 2.205 0 3.973-1.801 3.973-3.987 0-2.187-1.768-4.06-3.973-4.06zM41.058 3.323H14.32v7.556h26.738V3.323z" fill="#000" fill-rule="evenodd"/>
</svg>
