<svg xmlns="http://www.w3.org/2000/svg" width="184" height="40" viewBox="0 0 184 40">
    <g fill="none" fill-rule="evenodd">
        <g fill="#FFF">
            <path d="M44.082 0v13.942h-30.14v12.116H43.62V40H0V10.988h10.988V0h33.094zM10.988 13.942H2.953v23.105h37.714v-8.035H10.988v-15.07zm145.663-1.892v17.874h-2.38l-.172-1.961-.282.382c-.864 1.166-2.43 1.92-3.99 1.92-3.819 0-6.7-2.923-6.7-6.798 0-3.812 2.944-6.798 6.7-6.798 1.556 0 3.084.746 3.991 1.947l.323.428V12.05h2.51zm-36.873 4.619c1.555 0 3.083.746 3.99 1.947l.287.38.145-1.962h2.4v12.89h-2.378l-.174-1.961-.282.382c-.863 1.166-2.43 1.92-3.988 1.92-3.82 0-6.7-2.923-6.7-6.798 0-3.812 2.942-6.798 6.7-6.798zm-52.54-4.984c2.727 0 5.161 1.276 6.874 3.598l-2.145 1.587c-1.29-1.68-2.881-2.53-4.729-2.53-3.558 0-6.453 2.982-6.453 6.647 0 3.612 2.917 6.55 6.502 6.55 1.953 0 3.677-.98 4.999-2.837l2.08 1.65c-1.684 2.527-4.192 3.916-7.079 3.916-5.035 0-9.132-4.163-9.132-9.28 0-5.215 3.99-9.301 9.083-9.301zm98.004 4.984c3.709 0 6.726 3.05 6.726 6.798 0 3.735-3.017 6.774-6.726 6.774-3.695 0-6.7-3.039-6.7-6.774 0-3.749 3.005-6.798 6.7-6.798zm-83.295 0c3.709 0 6.726 3.05 6.726 6.798 0 3.735-3.017 6.774-6.726 6.774-3.695 0-6.701-3.039-6.701-6.774 0-3.749 3.006-6.798 6.701-6.798zm96.283-.153c1.227 0 3.05.242 4.821 2.295l-1.959 1.469c-.856-.85-1.917-1.352-2.862-1.352-.998 0-2.004.356-2.004 1.152 0 .718.59 1.26 1.803 1.655 3.45 1.108 5.2 2.638 5.2 4.545 0 2.27-1.826 3.857-4.44 3.857-2.066 0-4.206-1.225-5.495-3.134l1.888-1.42c.67.829 2.071 2.069 3.607 2.069 1.083 0 1.93-.56 1.93-1.275 0-1.121-1.306-1.666-3.013-2.26-2.686-.94-4.006-2.269-4.037-4.065-.019-.83.285-1.589.88-2.196.833-.852 2.174-1.34 3.68-1.34zm-41.895.153c2.418 0 5.193.698 5.193 6.141v7.114h-2.558v-6.262c0-2.182-.342-4.411-2.879-4.411-1.895 0-3.247 1.296-3.83 2.406l-.021 8.267h-2.557v-12.89h2.35l.14 1.925.283-.306c.833-.905 2.183-1.984 3.879-1.984zm-30.391 0c2.35 0 5.047.698 5.047 6.141v7.114h-2.557v-6.262c0-2.232-.212-4.411-2.733-4.411-2.064 0-3.165 1.508-3.637 2.406l-.024.046.004.05c.024.332.049.675.049 1.057v7.114h-2.558v-6.262c0-2.232-.21-4.411-2.733-4.411-2.064 0-3.164 1.508-3.636 2.406l-.021 8.267h-2.557v-12.89h2.35l.14 1.925.283-.306c.903-.981 2.047-1.984 3.684-1.984 1.397 0 3.134.222 4.174 1.955l.127.211.163-.185c.832-.952 2.766-1.981 4.435-1.981zm43.981 2.29c-2.419 0-4.312 1.98-4.312 4.508 0 2.5 1.893 4.459 4.312 4.459 2.392 0 4.265-1.959 4.265-4.459 0-2.444-1.953-4.507-4.265-4.507zm-30.05 0c-2.42 0-4.313 1.98-4.313 4.508 0 2.5 1.894 4.459 4.313 4.459 2.392 0 4.264-1.959 4.264-4.459 0-2.444-1.953-4.507-4.264-4.507zm45.343.22c-2.285 0-4.144 1.923-4.144 4.288 0 2.325 1.859 4.216 4.144 4.216 2.298 0 4.167-1.891 4.167-4.216 0-2.365-1.87-4.289-4.167-4.289zm-83.295 0c-2.285 0-4.143 1.923-4.143 4.288 0 2.325 1.858 4.216 4.143 4.216 2.298 0 4.167-1.891 4.167-4.216 0-2.365-1.87-4.289-4.167-4.289zM41.129 2.953H13.942v8.034h27.187V2.954z" transform="translate(-61 -37) translate(61 37)"/>
        </g>
    </g>
</svg>
