<svg width="101" height="28" xmlns="http://www.w3.org/2000/svg">
    <g fill-rule="nonzero" fill="none">
        <path d="M45.707 10.446c.396-.172.792-.344 1.188-.46a18.763 18.763 0 0 1 3.057-.918c.735-.115 1.528-.23 2.263-.172.623.057 1.245.172 1.868.46.792.401 1.358 1.033 1.81 1.78.51.918.793 1.951.906 2.985.057.516.114.976.114 1.492v9.588c0 .345-.057.69-.057 1.034-.113.861-.566 1.32-1.415 1.435a7.855 7.855 0 0 1-2.32 0h-.113c-.906-.172-1.245-.631-1.302-1.55-.057-.344-.057-.746-.057-1.09V15.44c0-.402-.056-.746-.113-1.148 0-.115-.113-.287-.17-.402-.17-.23-.34-.402-.679-.402-.566-.057-1.132.057-1.698.23-1.018.287-2.037.746-2.999 1.148-.113.057-.17.115-.17.23V25.2c0 .402-.056.862-.113 1.264-.113.631-.453 1.033-1.075 1.205-.227.058-.51.058-.736.115a5.832 5.832 0 0 1-1.415 0c-.283-.057-.566-.057-.849-.172a1.237 1.237 0 0 1-.905-.919 33.19 33.19 0 0 1-.17-.976V11.365c0-.402.057-.747.113-1.149.113-.516.453-.86.962-.976.283-.057.566-.114.906-.114h1.245c.283 0 .566.057.849.114.51.115.792.46.962.92.056.114.113.171.113.286zM95.283 19.69v5.741c0 .402-.057.747-.113 1.148-.114.632-.51.976-1.132 1.091-.227.058-.453.115-.68.115-.735.058-1.414.058-2.15-.115-.51-.115-.905-.459-1.019-.976l-.17-1.033V13.89c0-.402 0-.402-.395-.402-.397 0-.793-.057-1.132-.172-.453-.172-.793-.46-.906-.919-.17-.517-.17-.976-.113-1.493 0-.23.057-.459.113-.689.17-.516.453-.86.962-.976.283-.057.623-.114.906-.114h.396c.17 0 .17 0 .17-.173 0-.344 0-.746.056-1.09.057-1.149.17-2.24.51-3.33.113-.402.283-.747.452-1.091.227-.46.623-.804 1.076-1.091.566-.345 1.245-.574 1.867-.69.906-.171 1.811-.171 2.717-.171.566 0 1.188 0 1.754.172.226.057.453.115.68.23.565.23.905.631 1.018 1.205.113.517.113.976 0 1.493-.17.746-.68 1.206-1.358 1.435-.453.173-.85.23-1.302.23-.396 0-.736 0-1.132.057-.056 0-.17 0-.226.058-.51.115-.736.402-.85.918-.056.173-.056.402-.056.575v1.09c0 .23 0 .23.227.23h1.754c.34 0 .68.057 1.019.115.509.115.849.46 1.018 1.033.114.402.17.862.114 1.32 0 .173-.057.345-.057.518-.113.746-.51 1.205-1.302 1.32-.396.057-.735.057-1.132.115H95.68c-.51 0-.453-.058-.453.46.057 1.779.057 3.731.057 5.626zM86.228 18.427v6.947c0 .402-.057.746-.113 1.148-.113.632-.51 1.033-1.132 1.148-.623.115-1.189.173-1.811.115-.283 0-.623-.057-.906-.115-.735-.172-1.075-.574-1.188-1.32-.057-.402-.113-.747-.113-1.149v-13.55c0-.458 0-.918.113-1.32.113-.631.51-.976 1.132-1.148.283-.057.51-.115.792-.115h1.189c.283 0 .622.058.905.115.51.115.849.46.962 1.033.113.402.113.747.113 1.149v3.33c.057 1.263.057 2.526.057 3.732zM19.787 18.829c-.056-.575-.113-1.091-.283-1.665-.396-1.321-1.075-2.354-2.263-3.043-.057 0-.057-.058-.17-.115l.17-.172c.056-.058.113-.115.17-.115.905-.804 1.358-1.838 1.584-3.043.17-.919.226-1.895.17-2.87-.057-.632-.113-1.264-.283-1.896a5.322 5.322 0 0 0-1.811-2.87c-.736-.574-1.528-.919-2.377-1.149-1.132-.344-2.32-.459-3.509-.459H2.583c-.34 0-.68.058-1.019.115-.679.115-1.132.46-1.301 1.263-.114.46-.114.861-.114 1.32v21.071c0 .402 0 .747.057 1.149.113.861.453 1.263 1.302 1.435.396.058.848.115 1.245.115h8.375c.963 0 1.925-.057 2.887-.172.905-.115 1.81-.345 2.66-.747 1.245-.574 2.15-1.492 2.66-2.813.509-1.32.622-2.641.622-4.076a5.19 5.19 0 0 1-.17-1.263zM5.695 6.083h5.264c.396 0 .792.057 1.188.172.849.23 1.245.746 1.358 1.608.057.574.057 1.205.057 1.837 0 .402-.057.746-.226 1.09-.114.288-.34.575-.623.69-.34.172-.736.287-1.132.344-.622.057-1.301.057-1.924.057H5.695c-.056 0-.113-.057-.113-.114V6.312c-.056-.172-.056-.23.113-.23zm8.49 14.238c0 .402-.057.747-.114 1.149-.17.918-.679 1.435-1.64 1.55-.397.057-.793.115-1.246.115h-5.49c-.113 0-.17-.058-.17-.115v-6.144c0-.172 0-.172.227-.23h5.942c.34 0 .68.058 1.076.116.113 0 .17.057.283.057.566.172.905.574 1.075 1.148.056.287.113.574.113.862-.057.459-.057.976-.057 1.492zM79.04 19c-.056-.803-.17-1.607-.452-2.353-.283-.804-.793-1.493-1.472-2.067-.226-.172-.509-.345-.792-.574l.17-.172a4.04 4.04 0 0 0 1.188-1.55c.453-.977.623-1.953.68-3.044V8.092c0-.746-.114-1.493-.284-2.239-.283-1.033-.792-2.01-1.584-2.698-.736-.69-1.641-1.091-2.603-1.378-1.132-.345-2.32-.46-3.566-.46h-8.602c-.34 0-.68.058-1.019.115-.792.115-1.245.517-1.358 1.32-.057.345-.057.69-.113 1.034v21.301c0 .459.056.86.113 1.263.113.631.51.976 1.132 1.148.453.115.905.115 1.358.115h8.433c.905 0 1.867-.058 2.773-.172.849-.115 1.64-.287 2.433-.632 1.472-.631 2.49-1.665 3.056-3.215.34-.976.453-1.952.51-2.986.056-.402.056-1.033 0-1.607zM64.78 6.428c0-.344 0-.344.283-.344h5.093c.453 0 .906.057 1.359.23.622.229 1.018.63 1.131 1.32.114.631.114 1.263.057 1.895-.057.287-.057.631-.113.918-.113.632-.51 1.034-1.132 1.206a4.25 4.25 0 0 1-1.188.172h-5.32c-.113 0-.17-.057-.17-.172V6.427zm8.602 14.985c-.17.976-.622 1.378-1.641 1.55a8.36 8.36 0 0 1-1.245.115h-5.546c-.113 0-.113-.057-.113-.172v-6.143c0-.173 0-.173.17-.173H70.89c.453 0 .906.058 1.358.173.623.172 1.019.574 1.132 1.205.057.287.113.574.113.862 0 .23.057.516.057.746-.113.689-.113 1.263-.17 1.837zM38.237 11.594c0-.344-.057-.746-.113-1.09-.057-.575-.397-1.034-.963-1.206-.17-.058-.34-.058-.452-.115-.623-.115-1.245-.057-1.811-.057-.283 0-.566.114-.85.172-.395.115-.622.402-.792.804-.056.114-.056.23-.113.402-.056 0-.113-.058-.17-.058-.396-.172-.792-.344-1.188-.46-1.245-.458-2.547-.86-3.905-.975-.736-.058-1.528-.058-2.264.115-.962.23-1.754.689-2.32 1.492-.51.69-.792 1.436-1.019 2.24-.34 1.263-.452 2.526-.509 3.846-.057.861 0 1.723 0 2.584 0 1.148.057 2.239.226 3.387.114.861.283 1.665.623 2.47.283.688.679 1.377 1.245 1.836.736.632 1.641.919 2.603.976.906.058 1.868 0 2.773-.23 1.245-.286 2.49-.746 3.679-1.262.057-.058.17-.058.226-.115 0 .057.057.057.057.057 0 .058 0 .058.056.115.17.574.51.919 1.132 1.033.227.058.51.058.736.115.623.058 1.189.058 1.811-.057.792-.115 1.245-.574 1.302-1.378.056-.345.056-.689.056-1.034-.056-4.535-.056-9.07-.056-13.607zm-5.377 10.45c-.962.402-1.98.804-3 1.09a5.398 5.398 0 0 1-1.64.23c-.283 0-.51-.115-.68-.402a3.029 3.029 0 0 1-.339-.918 9.636 9.636 0 0 1-.17-1.838c0-.574-.056-1.205-.056-1.78 0-.86.056-1.722.113-2.583.056-.517.113-1.033.283-1.55.056-.172.17-.345.226-.517.113-.23.34-.287.566-.344.566-.058 1.075.057 1.641.172 1.076.287 2.094.746 3.113 1.148.17.058.17.172.17.345v6.545c-.057.23-.113.344-.227.402z" fill="#05A4E1"/>
        <path d="M86.85 3.04c-.17-.747-.566-1.32-1.188-1.78-.623-.517-1.358-.689-2.15-.689h-.453c-1.359.23-2.264.976-2.773 2.297-.227.574-.227 1.148-.114 1.722a4.913 4.913 0 0 0 1.359 2.698c.509.46 1.132.747 1.867.747 1.076 0 1.924-.46 2.604-1.263.962-1.149 1.188-2.412.848-3.732zm-3.225 2.583c-.566.23-1.132.058-1.528-.402a2.283 2.283 0 0 1-.566-1.55c0-.803.735-1.492 1.471-1.55.849-.057 1.528.46 1.698 1.32.056.115.056.288.056.403.057.746-.452 1.492-1.131 1.78z" fill="#B9D40F"/>
    </g>
</svg>
