<svg width="88" height="28" xmlns="http://www.w3.org/2000/svg">
    <path d="M69.542 17.969h7.383l-3.691-12.51-3.692 12.51zM75.79.455c2.101 0 2.499.512 3.237 2.786L87.15 27.92h-7.27l-1.76-5.914h-9.713l-1.761 5.914h-4.146L70.678.455h5.112zM31.713 24.28c3.181 0 5.624-1.762 5.624-5.913 0-3.412-1.534-5.232-3.92-5.8l2.216-3.412c.568-.853.681-1.365.681-1.99 0-1.706-1.42-3.07-3.067-3.07h-3.465v20.242h1.931v-.057zm6.76-13.021c9.144 4.89 6.19 16.717-3.692 16.717H23.478V.455h11.7c5.453 0 7.384 4.549 4.6 8.757l-1.305 2.047zM9.05 24.28H7.176V4.037h3.408c1.647 0 3.124 1.422 3.124 3.07 0 .57-.113 1.138-.681 1.991L10.81 12.51c2.33.568 3.92 2.388 3.92 5.8-.114 4.208-2.5 5.97-5.68 5.97zM15.81 11.26l1.306-1.99c2.726-4.265.852-8.814-4.657-8.814H.815V27.92H12.06c9.883 0 12.893-11.828 3.749-16.661zM61.363.455l-6.021 20.869L50.23 4.037C49.264.967 48.81.455 46.936.455H42.22l8.747 27.465h6.419L65.622.455h-4.26z" fill="#1B478A" fill-rule="nonzero"/>
</svg>
