<svg width="109" height="28" xmlns="http://www.w3.org/2000/svg">
    <g fill-rule="nonzero" fill="none">
        <path d="M37.36 13.433c2.656.912 4.166 2.431 4.347 5.105.241 2.978-1.027 5.166-3.441 6.807-1.389.973-2.898 1.52-4.528 1.823-3.078.547-6.157.608-9.296.122-3.079-.486-4.467-2.431-3.803-5.53a1110.5 1110.5 0 0 1 4.346-19.327c.12-.487.242-.912.906-.912 3.5-.304 6.942-.85 10.443-.243 1.268.243 2.535.547 3.682 1.094 3.985 1.945 4.347 6.746.846 9.42-.906.73-2.053 1.216-3.502 1.641zm-9.115 2.492c-.483 2.066-.906 4.011-1.328 5.895-.181.73-.06 1.276.785 1.337 1.992.122 3.984 0 5.795-1.033 1.388-.79 1.932-2.066 1.75-3.647-.18-1.519-1.267-2.127-2.595-2.552-1.389-.365-2.838.304-4.407 0zM32.652 5.41c-.604.425-1.811-.547-2.174.729-.422 1.459-.664 2.917-1.026 4.437-.12.486.06.972.604.972 2.173.122 4.286.122 6.037-1.398 1.69-1.52 1.147-3.829-.966-4.497-.725-.243-1.57-.243-2.475-.243zM89.276 5.775c-1.208-3.342-4.286-4.132-7.426-4.497-2.897-.304-5.855-.122-8.753.182-1.026.122-1.509.486-1.75 1.58-1.69 7.901-3.502 15.802-5.252 23.642-.06.304-.242.608.18.973h2.295c2.897 0 3.803-.669 4.407-3.525.362-1.702.784-3.404 1.147-5.045.603-.243 1.086-.06 1.57 0 4.225.122 8.209-.547 11.288-3.707 2.535-2.735 3.622-5.956 2.294-9.603zM84.024 9.97c-.544 2.735-2.898 4.436-6.158 4.497-2.113 0-2.294-.243-1.81-2.37.361-1.762.784-3.464 1.086-5.227.12-.85.543-1.215 1.388-1.215.906 0 1.75-.061 2.656.121 2.294.365 3.26 1.884 2.838 4.194zM65.672 1.764C60.18-.242 54.867.124 50.28 4.074c-4.347 3.828-5.735 8.873-5.192 14.525.302 3.221 1.69 5.956 4.588 7.597 3.682 2.127 7.606 2.188 11.59 1.033a2.513 2.513 0 0 0 1.811-1.823c.363-1.398.664-2.857 1.027-4.437-1.268.669-2.234 1.277-3.38 1.641-3.623 1.155-7.245-.243-8.452-3.282-1.75-4.193.724-10.757 4.89-12.702 3.38-1.58 6.64-.85 9.96.973.181-.73.362-1.398.543-2.006.363-2.066-.06-3.1-1.992-3.829z" fill="#004192"/>
        <path d="M10.256 3.709c3.26 1.64 5.855 4.011 7.787 7.11 1.147 1.885 1.026 4.012-.302 5.835-2.716 3.83-6.278 6.564-10.443 8.509C4.46 26.5 1.382 24.98.235 21.88c1.69-.912 3.32-1.823 4.89-2.917 2.293-1.702 4.286-3.647 5.251-6.382 1.328-2.978 1.45-5.956-.12-8.873zM99.84 3.709c3.26 1.64 5.855 4.072 7.787 7.11 1.147 1.824 1.087 3.89-.181 5.714-2.717 3.89-6.399 6.746-10.625 8.69-2.776 1.277-5.795-.303-6.942-3.281 1.57-.851 3.2-1.702 4.648-2.796 2.355-1.702 4.468-3.707 5.494-6.564 1.268-2.978 1.388-5.956-.181-8.873z" fill="#F96A53"/>
        <path d="M10.256 3.709c1.57 2.917 1.388 5.895.06 8.812C8.264 10.334 5.728 8.814 3.072 7.6c1.388-3.83 4.588-5.47 7.184-3.89zM99.84 3.709c1.57 2.917 1.509 5.895.12 8.873-1.992-2.188-4.527-3.707-7.304-4.983.906-2.128 2.294-3.647 4.346-4.437 1.027-.425 1.993-.122 2.838.547z" fill="#004192"/>
    </g>
</svg>
