<?xml version="1.0" encoding="UTF-8"?>
<svg width="142px" height="25px" viewBox="0 0 142 25" version="1.1" xmlns="http://www.w3.org/2000/svg" xmlns:xlink="http://www.w3.org/1999/xlink">
    <title>hsbc</title>
    <g id="Design-2021" stroke="none" stroke-width="1" fill="none" fill-rule="evenodd">
        <g id="02.4-Projects-RTC" transform="translate(-1215.000000, -7252.000000)" fill-rule="nonzero">
            <g id="hsbc" transform="translate(1215.000000, 7252.000000)">
                <path d="M18.3020078,13.4503999 C18.2834582,13.4503999 18.3020078,22.0953534 18.3020078,22.0953534 C18.3020078,23.1825402 17.3688821,24.1315047 16.1486407,24.1315047 L14.9808221,24.1315047 L14.9808221,24.5752709 L24.8758264,24.5752709 L24.8758264,24.1315047 L23.7063948,24.1315047 C22.5038965,24.1315047 21.5546407,23.1655655 21.5546407,22.0953534 L21.5546407,13.3154109 L21.5546407,2.83800204 C21.5546407,1.78557292 22.4845404,0.801042444 23.7063948,0.801042444 L24.8758264,0.801042444 L24.8758264,0.361317833 L14.9808221,0.361317833 L14.9808221,0.801042444 L16.1486407,0.801042444 C17.3858186,0.801042444 18.3020078,1.78557292 18.3020078,2.83800204 L18.3020078,12.2274158 L6.57623813,12.2274158 L6.57623813,2.83800204 C6.57623813,1.78557292 7.52388097,0.801042444 8.72718577,0.801042444 L9.89500436,0.801042444 L9.89500436,0.361317833 L0,0.361317833 L0,0.801042444 L1.17185112,0.801042444 C2.39289901,0.801042444 3.32441177,1.78557292 3.32441177,2.83800204 L3.32441177,22.0961617 C3.32441177,23.1655655 2.39289901,24.132313 1.17185112,24.132313 L0,24.132313 L0,24.5760792 L9.89500436,24.5760792 L9.89500436,24.132313 L8.72718577,24.132313 C7.52388097,24.132313 6.57623813,23.1663738 6.57623813,22.0961617 C6.57623813,22.0961617 6.59317472,13.4512082 6.57623813,13.4512082 L18.3020078,13.4512082 L18.3020078,13.4503999 L18.3020078,13.4503999 Z M41.8325847,18.2388716 C41.9196872,19.66151 41.0397907,21.8189089 39.8155168,22.9263036 C38.6412461,23.9868159 36.9701687,24.9123392 34.7337316,24.9123392 C32.1940487,24.9123392 30.0076149,23.5527495 29.2091754,23.2455889 C28.7276922,23.0604843 28.0961991,23.0847338 27.718755,23.3167208 C27.27921,23.5883155 27.0082245,24.0288484 26.9049919,24.8452489 L26.5331933,24.8452489 L26.5331933,16.4532986 L26.9049919,16.4532986 C27.2445303,19.0358724 28.4462221,20.550659 29.1930453,21.4155585 C30.4132867,22.822839 32.7174702,23.6214565 34.9377772,23.2666052 C36.7007962,22.9796525 38.6315681,21.0623239 38.4178444,18.6866793 C38.343646,17.829863 38.1533109,16.5858627 36.3773879,15.4186525 C35.2611856,14.6879337 33.6772106,13.6516709 32.1746926,12.6525907 C30.2777939,11.3908074 28.5575197,10.0271761 28.072004,9.47428707 C27.4413174,8.75245973 26.6517495,7.70892209 26.6517495,6.04459677 C26.6517495,4.61953337 27.1921075,2.98834906 28.3462155,1.90197061 C29.497904,0.815592156 31.0576838,0 33.2933145,0 C35.5297516,0 37.2242176,1.18984307 37.8008684,1.46062936 C38.3775192,1.73141566 39.0138512,1.66755859 39.3751653,1.46062936 C39.7324468,1.25531677 39.9695591,0.947347876 40.0719852,0.137413941 L40.4413643,0.137413941 L40.4413643,8.08155637 L40.0719852,8.08155637 C39.7324468,5.50140754 38.613825,3.56548761 37.8339351,2.85093512 C37.0540452,2.13880758 35.5297516,1.1542771 33.2602478,1.59723499 C31.0810725,2.01675166 30.0213255,3.00532372 29.8196993,4.75290572 C29.6680765,6.083396 30.3882851,6.90545469 30.8036349,7.40256983 C31.6512712,8.42347458 37.0274305,11.4748724 39.4606548,13.5837722 C40.7163824,14.6717673 41.6995114,15.9634584 41.8325847,18.2388716 L41.8325847,18.2388716 Z M57.5053876,12.2096328 C61.8105089,13.6912784 63.0380089,16.739443 62.2387629,19.8757141 C61.3007981,23.5689158 57.1481061,24.3206509 55.800437,24.5000974 C55.1931391,24.5760792 53.6422308,24.567996 52.1082592,24.5696127 C49.3693697,24.5744626 45.9078522,24.5647628 43.126218,24.5647628 L43.126218,24.1209966 L44.5496985,24.1209966 C45.4554031,24.1209966 46.490955,23.3571367 46.490955,22.201243 L46.490955,2.87033473 C46.490955,1.71444099 45.4554031,0.932798164 44.5593766,0.932798164 L43.135896,0.932798164 L43.135896,0.489031967 L51.7251695,0.489031967 C53.7922407,0.489031967 54.914895,0.690302974 55.6391361,0.833375136 C56.8593775,1.06859547 60.4184821,2.12264123 61.2636989,5.45129187 C61.9193871,8.02901574 60.6386578,11.2784513 57.5053876,12.2096328 L57.5053876,12.2096328 Z M49.7089081,11.5322629 C50.8952763,11.8361902 54.387441,11.917022 55.7423687,11.056164 C57.8650887,9.70304087 58.6006208,7.53755882 58.2102726,5.61861355 C57.9747733,4.46837803 57.3658624,3.40463247 56.3182129,2.66825541 C54.2503353,1.20843436 51.2703009,1.44284638 49.7097146,1.91894527 L49.7097146,11.5322629 L49.7089081,11.5322629 L49.7089081,11.5322629 Z M49.7089081,23.2043647 C51.3832116,23.7257294 54.5689046,24.1218049 56.7900181,22.5294198 C59.4547091,20.6177494 60.0160363,15.9481003 56.2544991,13.5142569 C54.74069,12.5329597 50.9630227,12.602475 49.7089081,12.8958942 L49.7089081,23.2043647 Z M84.8862172,0.781642829 L85.2362402,8.98525511 L84.7450789,9.00222977 C84.5071601,6.92970421 83.7304962,5.46745822 82.7457541,4.52011034 C82.4602515,4.24366583 81.9247325,3.68996847 81.1496816,3.20255314 C79.8608873,2.38696099 77.9406,1.66513364 75.6614181,2.07333387 C72.2402258,2.68442175 70.4764004,4.9525601 69.5989234,7.13420849 C68.5101423,9.81782193 67.8246134,14.4017893 69.6618308,18.2752458 C71.1570902,21.4163669 74.0266334,22.7234159 76.2364559,23.0596759 C78.1236765,23.3514785 82.3021766,23.2633719 85.4910956,18.9518074 L86,19.2913007 C83.525644,22.7913146 80.2367185,25.0327785 76.4735682,24.9996375 C71.6643816,24.9535634 68.642409,22.300666 67.2592537,20.7204057 C65.800287,19.0568887 64.6840847,15.8979847 64.6694168,13.1440476 C64.659083,10.6988878 65.1962151,7.9756668 66.072079,6.38409004 C67.581049,3.6535942 70.7328688,0.933606482 74.8847543,0.529447832 C77.9914098,0.22147894 80.0326728,0.834183454 81.7795617,1.83407195 C82.6554256,2.336037 83.1433609,2.39342753 83.6191986,2.19296484 C84.0918102,1.98846056 84.4732869,1.58268527 84.4732869,0.781642829 L84.8862172,0.781642829 L84.8862172,0.781642829 Z" id="Shape" fill="#000000"></path>
                <path d="M94,13.0024051 L106.000802,25 L106.000802,1 L94,13.0024051 Z M106.000802,25 L129.999198,25 L118.001603,13.0024051 L106.000802,25 Z M118.001603,13.0024051 L129.999198,1 L106.000802,1 L118.001603,13.0024051 Z M130.002405,1 L130.002405,25 L142,13.0024051 L130.002405,1 Z" id="Shape" fill="#CE3729"></path>
            </g>
        </g>
    </g>
</svg>