<svg width="155" height="28" xmlns="http://www.w3.org/2000/svg">
    <g fill-rule="nonzero" fill="none">
        <path d="M3.7.571C1.881.571.336 2.134.336 3.974v24.004h23.99c1.817 0 3.362-1.563 3.362-3.403V.571H3.699zm17.355 20.51L6.88 23.562V8.573l14.175-2.484V21.08z" fill="#3B408D"/>
        <path d="M102.747 9.4c-2.636-.736-4.725-.276-6.634 1.656V4.434H92.57V17.31c0 4.598 2.999 7.725 7.452 7.725 4.089 0 7.45-3.127 7.36-8.093.09-3.863-1.636-6.714-4.634-7.542zm-2.726 12.692a3.818 3.818 0 0 1-3-1.472c-.726-1.011-.999-2.115-.999-3.31 0-1.472.091-2.76.727-3.771.818-1.196 1.909-1.84 3.18-1.84 2.272 0 4.09 2.024 4.09 5.15.09 3.128-1.727 5.243-3.998 5.243zM89.662 8.572h1v3.587h-1c-.727 0-1.454.368-2 .828-.545.552-.817 1.196-.817 2.023v9.75H83.3v-9.842c0-1.747.727-3.31 1.908-4.506 1.181-1.196 2.726-1.84 4.453-1.84zM80.666 12.527c-.182-.368-.455-.736-.637-1.012-.272-.276-.545-.643-.817-.92-1.545-1.379-3.908-2.115-6.452-1.379h-.091c-3.18 1.012-4.998 3.955-5.089 7.266v.092c-.181 3.954 2.09 7.541 6.18 8.277.272.092.636.092.908.092h.909c1 0 3.635-.092 3.907-1.563.091-.46.182-1.656.091-2.392-.818.46-2.09 1.012-3.726.92h-.636c-.181 0-.454-.092-.636-.092-1.545-.276-2.908-1.104-3.544-2.76-.09-.183-.09-.367-.181-.55h5.088c1.09 0 2.181-.185 3.09-.645.636-.276 1.09-.735 1.545-1.195.454-.552.727-1.288.727-2.116a7.297 7.297 0 0 0-.636-2.023zM76.03 15.93h-5.27c.272-1.564.818-2.76 1.545-3.403.181-.184.363-.276.545-.368.181-.092.454-.184.636-.276 1.454-.46 2.726 0 3.544.92.181.184.363.368.454.552.091.184.182.368.273.46.818 1.563-.546 2.115-1.727 2.115zM61.583 4.618v4.138h5.725l-.091 1.288c-.091 1.195-.818 1.563-2.09 1.563h-3.453v7.542c0 .184 0 .736.09.92.273 1.195.91 1.471 2 1.563 1.09.184 2.817-.092 3.635-.46.09 1.288 0 3.035-.818 3.311-.727.276-2.181.368-3.18.368-.455 0-1-.092-1.455-.184-.817-.184-1.999-.828-2.635-1.38C58.221 22 58.13 20.62 58.13 19.15V4.617h3.453zM47.77 8.572h1.273c1.727 0 3.362.736 4.453 1.84 1.18 1.195 1.817 2.759 1.817 4.506v9.75h-3.544v-9.75c0-.827-.363-1.471-.818-2.023a2.802 2.802 0 0 0-1.999-.828H47.68c-.727 0-1.454.368-2 .828-.453.552-.817 1.196-.817 2.023v9.75H41.32v-9.75c0-1.747.727-3.31 1.818-4.506 1.363-1.196 2.907-1.84 4.634-1.84zM38.32 4.25v20.51h-3.543V4.25zM130.28 8.572h1.272c1.727 0 3.271.736 4.453 1.84 1.09 1.195 1.817 2.759 1.817 4.506v9.75h-3.544v-9.75c0-.827-.272-1.471-.818-2.023-.545-.552-1.18-.828-1.999-.828h-1.272c-.818 0-1.454.368-1.999.828-.545.552-.818 1.196-.818 2.023v9.75h-3.544v-9.75c0-1.747.727-3.31 1.818-4.506 1.272-1.196 2.817-1.84 4.634-1.84zM144.183 4.25v20.51h-3.544V4.25zM151.362 24.667h3.453l-7.088-8.093 6.36-7.266h-3.543l-6.361 7.266zM120.92 11.607c-.363-.735-.908-1.287-1.453-1.747-1.454-1.104-3.544-1.288-5.27-1.104-1.091.092-3 .368-3.454 1.196-.182.368-.272.828-.272 1.287v1.38c1.363-.828 2.271-1.012 3.543-1.104.91-.092 2.09 0 2.817.276.636.184 1 .736 1.182 1.196.272.552.454 1.655.363 2.391-.818.184-2.998-.092-4.18 0-2.635.184-4.907 1.38-5.088 3.955-.273 3.679 2.726 5.702 6.633 5.61 1 0 1.817-.184 2.544-.552 2.363-1.103 3.09-3.127 3.09-5.518v-4.782c-.091-.644-.091-1.656-.454-2.484zm-2.453 6.07c0 .644 0 1.564-.182 2.208-.181.92-.636 1.655-1.272 1.931-.818.368-1.817.552-3.18.368-1.182-.184-1.818-1.104-1.727-2.391V19.7c.091-.552.455-1.288 1.182-1.564.726-.368 1.544-.46 2.907-.46.636 0 1.454.092 2.272 0z" fill="#289448"/>
    </g>
</svg>
