<svg width="357" height="61" xmlns="http://www.w3.org/2000/svg">
    <g fill-rule="nonzero" fill="none">
        <path d="M78.793 26.13a14.799 14.799 0 0 0-.832-.092c-.316-.029-.6-.04-.85-.04a4.62 4.62 0 0 0-2.22.463 2.843 2.843 0 0 0-1.255 1.332v11.444h-4.67V21.734h4.414l.128 2.086a5.207 5.207 0 0 1 1.631-1.777 4.016 4.016 0 0 1 2.264-.64c.263.002.526.023.785.064.226.033.45.081.669.146l-.064 4.517zM88.78 39.543a9.507 9.507 0 0 1-3.643-.661 8.021 8.021 0 0 1-2.73-1.809 7.734 7.734 0 0 1-1.713-2.694 9.134 9.134 0 0 1-.593-3.302v-.632c-.015-1.238.18-2.47.575-3.643a8.373 8.373 0 0 1 1.632-2.843 7.435 7.435 0 0 1 2.57-1.866 9.045 9.045 0 0 1 6.716-.05 6.71 6.71 0 0 1 2.417 1.745 7.431 7.431 0 0 1 1.468 2.698c.342 1.142.509 2.33.494 3.522v1.99H84.838c.064.539.22 1.063.462 1.55a3.91 3.91 0 0 0 2.157 1.958 4.62 4.62 0 0 0 1.632.273 5.822 5.822 0 0 0 2.36-.476 4.79 4.79 0 0 0 1.858-1.478l2.293 2.57c-.31.426-.667.816-1.067 1.161-.44.398-.93.738-1.457 1.013a8.565 8.565 0 0 1-1.93.711 9.77 9.77 0 0 1-2.366.263zm-.534-14.351a3.142 3.142 0 0 0-1.332.266 2.932 2.932 0 0 0-.985.743c-.286.34-.513.726-.672 1.141a6.554 6.554 0 0 0-.355 1.471H91.4v-.355a4.67 4.67 0 0 0-.203-1.29 2.804 2.804 0 0 0-.58-1.038 2.53 2.53 0 0 0-.97-.679 3.64 3.64 0 0 0-1.4-.26zM114.4 30.64c.011 1.214-.13 2.425-.419 3.604a8.33 8.33 0 0 1-1.269 2.811 5.925 5.925 0 0 1-2.132 1.834 6.479 6.479 0 0 1-2.993.654 5.626 5.626 0 0 1-2.626-.572 5.857 5.857 0 0 1-1.916-1.607l-.21 1.86h-4.21V14.401h4.67v8.885c.499-.59 1.12-1.067 1.819-1.397a5.59 5.59 0 0 1 2.43-.494 6.433 6.433 0 0 1 3 .665 6 6 0 0 1 2.133 1.84 8.206 8.206 0 0 1 1.28 2.812 14.44 14.44 0 0 1 .419 3.554l.025.373zm-4.67-.355a12.8 12.8 0 0 0-.145-1.962 5.018 5.018 0 0 0-.526-1.624 2.886 2.886 0 0 0-1.056-1.084 3.056 3.056 0 0 0-1.649-.405 3.487 3.487 0 0 0-1.905.476c-.505.33-.904.799-1.148 1.35v6.913a3.199 3.199 0 0 0 1.148 1.347c.592.346 1.27.514 1.955.483a3.07 3.07 0 0 0 1.624-.387c.428-.26.78-.627 1.02-1.066.27-.508.448-1.059.526-1.628.1-.681.15-1.37.146-2.058l.01-.355zM127.39 39.223a5.267 5.267 0 0 1-.465-1.57 6.088 6.088 0 0 1-1.777 1.343c-.82.388-1.72.576-2.626.547a6.934 6.934 0 0 1-2.35-.387 5.793 5.793 0 0 1-1.894-1.067 4.997 4.997 0 0 1-1.251-1.66 4.876 4.876 0 0 1-.462-2.125 5.576 5.576 0 0 1 .508-2.441 4.766 4.766 0 0 1 1.528-1.81 7.392 7.392 0 0 1 2.527-1.13 14.191 14.191 0 0 1 3.515-.387h2.086v-.984a2.872 2.872 0 0 0-.621-1.94c-.416-.484-1.067-.712-1.966-.712a2.761 2.761 0 0 0-1.848.57c-.452.384-.7.956-.672 1.549h-4.67a4.62 4.62 0 0 1 .526-2.133c.362-.694.872-1.3 1.493-1.777a7.524 7.524 0 0 1 2.346-1.205 9.951 9.951 0 0 1 3.07-.444 9.845 9.845 0 0 1 2.808.338 6.397 6.397 0 0 1 2.232 1.155 5.306 5.306 0 0 1 1.46 1.926c.368.848.548 1.766.527 2.69v7.404c0 .494 0 .938.046 1.332.046.395.078.747.131 1.067a5.687 5.687 0 0 0 .53 1.553v.277l-4.73.021zm-3.86-3.252c.374.004.746-.044 1.106-.142.319-.09.626-.217.914-.38.26-.147.5-.33.71-.544.188-.186.348-.398.477-.629v-3.007h-1.923a5.608 5.608 0 0 0-1.6.203c-.406.11-.786.303-1.115.565a2.246 2.246 0 0 0-.654.846c-.14.338-.212.7-.21 1.066-.012.54.213 1.06.615 1.422.461.41 1.064.625 1.68.6zM139.95 21.734V40.19a7.783 7.783 0 0 1-.405 2.612 5.146 5.146 0 0 1-1.162 1.916 4.89 4.89 0 0 1-1.866 1.169 7.431 7.431 0 0 1-2.53.398c-.386 0-.772-.021-1.155-.064a8.885 8.885 0 0 1-1.155-.213v-3.7c.245.043.49.078.732.107.245.025.492.038.74.039a2.132 2.132 0 0 0 1.566-.54c.356-.356.548-.935.548-1.724V21.734h4.687zm-5.057-4.524c-.019-.652.24-1.28.71-1.731a3.042 3.042 0 0 1 3.832 0c.471.45.73 1.08.711 1.73.003.335-.06.667-.185.978a2.257 2.257 0 0 1-1.35 1.269 3.383 3.383 0 0 1-2.165 0 2.257 2.257 0 0 1-1.35-1.269 2.506 2.506 0 0 1-.203-.977zM153.737 39.223a5.16 5.16 0 0 1-.47-1.57 6.07 6.07 0 0 1-1.777 1.343 5.73 5.73 0 0 1-2.626.547 6.952 6.952 0 0 1-2.353-.387 5.775 5.775 0 0 1-1.89-1.067 4.947 4.947 0 0 1-1.252-1.66 4.876 4.876 0 0 1-.462-2.125 5.626 5.626 0 0 1 .509-2.441 4.798 4.798 0 0 1 1.528-1.81 7.378 7.378 0 0 1 2.53-1.13 14.17 14.17 0 0 1 3.533-.383h2.086v-.988a2.875 2.875 0 0 0-.625-1.94c-.412-.484-1.066-.712-1.962-.712a2.772 2.772 0 0 0-1.852.57c-.45.384-.697.956-.668 1.549h-4.691a4.62 4.62 0 0 1 .526-2.133c.364-.693.875-1.3 1.496-1.777.7-.55 1.494-.971 2.342-1.244a9.994 9.994 0 0 1 3.07-.444 9.827 9.827 0 0 1 2.812.387 6.369 6.369 0 0 1 2.232 1.156 5.228 5.228 0 0 1 1.46 1.926c.367.845.546 1.759.527 2.68v7.403c0 .494.018.938.05 1.332.032.395.074.747.127 1.067.05.29.12.576.21.856.086.244.19.482.31.71v.278l-4.72.007zm-3.864-3.252c.375.004.748-.044 1.11-.142.318-.09.624-.218.913-.38.26-.148.5-.33.71-.544.188-.187.35-.399.48-.629v-3.007h-1.937a5.644 5.644 0 0 0-1.6.203 3.138 3.138 0 0 0-1.115.565c-.272.23-.486.519-.626.846-.143.337-.215.7-.213 1.066a1.87 1.87 0 0 0 .615 1.422c.457.405 1.053.62 1.663.6zM165.874 17.501v4.233h3.259v2.31h-3.266V34.89c-.014.37.042.74.163 1.091.086.244.233.463.426.636.176.152.388.254.615.299.234.05.472.075.711.074.264-.001.527-.026.786-.074.273-.047.486-.086.64-.121v2.427c-.239.064-.548.132-.925.21-.452.08-.912.117-1.372.11a5.1 5.1 0 0 1-1.56-.234 3.145 3.145 0 0 1-1.286-.782 3.835 3.835 0 0 1-.871-1.447 6.518 6.518 0 0 1-.324-2.207v-10.83h-3.198v-2.31h3.198v-4.232h3.004zM183.427 37.503a5.544 5.544 0 0 1-2.086 1.51c-.966.385-2 .57-3.039.54a7.15 7.15 0 0 1-2.342-.355 4.542 4.542 0 0 1-1.809-1.148 5.178 5.178 0 0 1-1.173-2.018 9.422 9.422 0 0 1-.412-2.982V21.734h2.989v11.33c-.018.66.074 1.318.273 1.948.15.453.399.867.73 1.212.287.287.643.498 1.033.614.39.115.793.172 1.198.171a5.473 5.473 0 0 0 2.932-.71 4.133 4.133 0 0 0 1.628-1.845v-12.72h2.989v17.49h-2.843l-.068-1.72zM201.059 34.582c.003-.31-.047-.62-.146-.914a1.92 1.92 0 0 0-.572-.806 4.393 4.393 0 0 0-1.22-.711 13.15 13.15 0 0 0-2.086-.597 19.803 19.803 0 0 1-2.619-.711 7.88 7.88 0 0 1-1.98-1.01 4.194 4.194 0 0 1-1.25-1.396 3.91 3.91 0 0 1-.438-1.891 4.386 4.386 0 0 1 .459-1.965 5.1 5.1 0 0 1 1.3-1.65 6.372 6.372 0 0 1 2.037-1.115 8.2 8.2 0 0 1 2.666-.406 8.48 8.48 0 0 1 2.804.43c.767.254 1.48.65 2.1 1.17a4.976 4.976 0 0 1 1.777 3.863h-3.007a2.64 2.64 0 0 0-.241-1.066c-.167-.37-.41-.7-.711-.97a3.71 3.71 0 0 0-1.148-.711 4.265 4.265 0 0 0-1.567-.267 5.065 5.065 0 0 0-1.593.22c-.389.123-.751.32-1.066.58a2.282 2.282 0 0 0-.611.824c-.129.299-.195.62-.196.946-.005.3.051.597.164.874.131.29.343.538.611.71.384.249.8.444 1.237.58.667.217 1.344.398 2.03.544.945.21 1.874.491 2.779.839a7.549 7.549 0 0 1 1.954 1.09c.49.38.887.866 1.159 1.422a4.36 4.36 0 0 1 .377 1.873 4.595 4.595 0 0 1-.477 2.1 4.656 4.656 0 0 1-1.364 1.636c-.642.48-1.364.84-2.133 1.066a9.372 9.372 0 0 1-2.765.38 8.981 8.981 0 0 1-3.078-.483 6.92 6.92 0 0 1-2.239-1.287 5.37 5.37 0 0 1-1.371-1.827 5.011 5.011 0 0 1-.47-2.107h2.99c.008.539.157 1.067.43 1.532.253.406.593.752.995 1.013.4.257.843.443 1.307.547.467.109.944.163 1.422.163.546.01 1.09-.056 1.617-.195a3.721 3.721 0 0 0 1.173-.533c.296-.208.54-.482.71-.8.162-.303.247-.64.25-.984zM214.749 35.78c.4.004.8-.06 1.18-.189a2.69 2.69 0 0 0 .92-.522c.258-.227.465-.505.608-.818.148-.336.227-.699.23-1.066h4.4a5.97 5.97 0 0 1-.582 2.559 6.273 6.273 0 0 1-1.535 2.022 7.005 7.005 0 0 1-2.286 1.319 8.476 8.476 0 0 1-2.843.465 8.562 8.562 0 0 1-3.554-.686 7.062 7.062 0 0 1-2.52-1.873 7.943 7.943 0 0 1-1.503-2.797 11.6 11.6 0 0 1-.501-3.465v-.462c-.009-1.177.16-2.349.5-3.476a8.043 8.043 0 0 1 1.49-2.793 7.012 7.012 0 0 1 2.513-1.884 8.451 8.451 0 0 1 3.529-.686 8.771 8.771 0 0 1 2.953.476c.848.295 1.626.761 2.286 1.369.643.6 1.15 1.333 1.485 2.146.374.902.567 1.868.569 2.844h-4.4a3.76 3.76 0 0 0-.217-1.191 2.953 2.953 0 0 0-.572-.967 2.612 2.612 0 0 0-.924-.654 3.056 3.056 0 0 0-1.258-.245 3.01 3.01 0 0 0-1.667.423c-.43.278-.778.664-1.01 1.12a5.143 5.143 0 0 0-.493 1.627 13.79 13.79 0 0 0-.128 1.905v.455c-.002.643.04 1.286.128 1.923.072.562.24 1.107.494 1.613.233.45.581.828 1.009 1.099a3.138 3.138 0 0 0 1.699.408zM235.21 37.443a5.686 5.686 0 0 1-2.005 1.553 6.529 6.529 0 0 1-2.78.547 7.29 7.29 0 0 1-2.36-.355 4.62 4.62 0 0 1-1.833-1.148 5.2 5.2 0 0 1-1.187-2.019 9.24 9.24 0 0 1-.423-2.968v-11.32h4.673v11.345c-.01.424.053.846.185 1.248.105.313.282.598.516.831.223.21.492.367.785.459.324.101.663.15 1.002.146a4.265 4.265 0 0 0 2.05-.434c.516-.276.938-.7 1.213-1.215v-12.38h4.688v17.49h-4.397l-.128-1.78zM251.306 39.543a9.507 9.507 0 0 1-3.63-.661 8.071 8.071 0 0 1-2.732-1.809 7.837 7.837 0 0 1-1.713-2.694 9.209 9.209 0 0 1-.59-3.302v-.632c-.014-1.238.18-2.47.576-3.643a8.373 8.373 0 0 1 1.63-2.843 7.435 7.435 0 0 1 2.57-1.866 9.045 9.045 0 0 1 6.718-.05c.925.394 1.75.99 2.416 1.745a7.431 7.431 0 0 1 1.454 2.698c.342 1.142.509 2.33.494 3.522v1.99h-11.135c.065.538.22 1.062.459 1.55.22.447.523.85.892 1.186a3.91 3.91 0 0 0 1.265.772 4.652 4.652 0 0 0 1.635.273 5.832 5.832 0 0 0 2.36-.476 4.79 4.79 0 0 0 1.876-1.478l2.292 2.57a6.827 6.827 0 0 1-1.048 1.161 7.147 7.147 0 0 1-1.49 1.01 8.565 8.565 0 0 1-1.929.71 9.77 9.77 0 0 1-2.37.267zm-.534-14.351a3.142 3.142 0 0 0-1.332.266 2.897 2.897 0 0 0-.985.743c-.286.34-.513.726-.672 1.141a6.55 6.55 0 0 0-.355 1.471h6.497v-.355a4.67 4.67 0 0 0-.2-1.29 2.804 2.804 0 0 0-.582-1.038 2.559 2.559 0 0 0-.97-.679 3.64 3.64 0 0 0-1.4-.26zM265.447 21.734l.15 2.022a6.06 6.06 0 0 1 2.178-1.738 6.55 6.55 0 0 1 2.843-.608 6.984 6.984 0 0 1 2.26.356c.67.225 1.273.618 1.75 1.14.522.596.907 1.3 1.126 2.062.285 1.02.418 2.076.394 3.135v11.12h-4.66V28.071c.013-.47-.05-.94-.187-1.39a1.923 1.923 0 0 0-1.422-1.336 4.833 4.833 0 0 0-1.198-.135 3.309 3.309 0 0 0-1.777.451c-.492.304-.9.727-1.187 1.23v12.332h-4.663v-17.49h4.393zM285.279 17.437v4.297h2.992v3.426h-2.992v8.729c-.008.306.03.611.113.906.116.425.464.747.896.832.259.05.522.073.785.07.28 0 .536-.01.768-.031a6.88 6.88 0 0 0 .608-.082v3.554c-.417.125-.84.225-1.27.298a8.95 8.95 0 0 1-1.56.121c-.699.01-1.396-.085-2.068-.28a3.945 3.945 0 0 1-1.578-.9 4.009 4.009 0 0 1-1.01-1.599 7.076 7.076 0 0 1-.354-2.374v-9.24h-2.552v-3.43h2.552v-4.297h4.67zM301.005 39.223a5.16 5.16 0 0 1-.469-1.57 6.07 6.07 0 0 1-1.777 1.343 5.73 5.73 0 0 1-2.626.547 6.952 6.952 0 0 1-2.353-.387 5.775 5.775 0 0 1-1.891-1.067 4.947 4.947 0 0 1-1.251-1.66 4.876 4.876 0 0 1-.462-2.125 5.626 5.626 0 0 1 .505-2.438 4.798 4.798 0 0 1 1.528-1.809 7.378 7.378 0 0 1 2.53-1.13 14.17 14.17 0 0 1 3.515-.387h2.087v-.988a2.875 2.875 0 0 0-.626-1.94c-.412-.484-1.066-.712-1.962-.712a2.772 2.772 0 0 0-1.851.57c-.451.384-.698.956-.669 1.549h-4.67a4.656 4.656 0 0 1 .526-2.133c.365-.693.875-1.3 1.497-1.777a7.545 7.545 0 0 1 2.36-1.244 9.994 9.994 0 0 1 3.07-.444 9.827 9.827 0 0 1 2.811.387 6.369 6.369 0 0 1 2.232 1.156 5.228 5.228 0 0 1 1.461 1.926c.368.848.547 1.766.526 2.69v7.393c0 .494 0 .938.05 1.332.05.395.074.747.128 1.067.05.29.12.576.21.856.086.244.189.482.309.71v.278l-4.738.007zm-3.863-3.252c.374.004.747-.044 1.109-.142.318-.09.625-.218.913-.38.261-.148.5-.33.711-.544.187-.187.349-.399.48-.629v-3.007h-1.927a5.644 5.644 0 0 0-1.599.203 3.138 3.138 0 0 0-1.116.565 2.275 2.275 0 0 0-.654.846c-.143.337-.215.7-.213 1.066a1.87 1.87 0 0 0 .615 1.422c.461.41 1.064.625 1.68.6zM318.09 34.39a1.57 1.57 0 0 0-.146-.68 1.471 1.471 0 0 0-.551-.575 5.182 5.182 0 0 0-1.098-.508c-.591-.189-1.193-.34-1.802-.455a17.27 17.27 0 0 1-2.488-.71 7.68 7.68 0 0 1-1.973-1.067 4.826 4.826 0 0 1-1.3-1.503 4.073 4.073 0 0 1-.47-1.987 4.713 4.713 0 0 1 .48-2.086 5.21 5.21 0 0 1 1.372-1.738 6.689 6.689 0 0 1 2.21-1.216 9.198 9.198 0 0 1 2.936-.437 10.396 10.396 0 0 1 3.053.42 6.959 6.959 0 0 1 2.303 1.172 5.203 5.203 0 0 1 1.457 1.777c.342.705.516 1.478.509 2.26h-4.67a2.264 2.264 0 0 0-.647-1.655c-.429-.436-1.103-.654-2.022-.654a2.786 2.786 0 0 0-1.824.533 1.674 1.674 0 0 0-.646 1.357c-.006.24.051.476.167.686.138.224.326.413.55.551.314.195.65.35 1.003.462.5.16 1.011.29 1.528.388a20.44 20.44 0 0 1 2.633.678 7.634 7.634 0 0 1 2.094 1.042 4.71 4.71 0 0 1 1.382 1.55 4.89 4.89 0 0 1 0 4.35 5.015 5.015 0 0 1-1.478 1.688 7.495 7.495 0 0 1-2.32 1.116c-.988.28-2.01.415-3.036.401a9.404 9.404 0 0 1-3.252-.515 7.503 7.503 0 0 1-2.367-1.358 5.686 5.686 0 0 1-1.447-1.89 5.011 5.011 0 0 1-.483-2.133h4.428c.01.408.113.81.299 1.173.171.318.415.592.71.8.306.212.648.365 1.01.45.394.1.799.15 1.205.147a3.383 3.383 0 0 0 2.026-.509c.427-.305.675-.8.664-1.325zM324.153 38.57a.874.874 0 0 1 .213-.601.825.825 0 0 1 .643-.242.835.835 0 0 1 .65.242.85.85 0 0 1 .224.6.803.803 0 0 1-.224.58.846.846 0 0 1-.65.234.775.775 0 0 1-.856-.814zM331.442 38.303c.242.001.483-.04.71-.121.218-.074.42-.186.598-.33.172-.138.316-.309.423-.502.106-.193.172-.406.192-.625h1.315a2.42 2.42 0 0 1-.299 1.034c-.181.33-.422.622-.71.864a3.462 3.462 0 0 1-2.233.817c-.55.012-1.097-.1-1.599-.327a3.248 3.248 0 0 1-1.13-.9 3.742 3.742 0 0 1-.675-1.293 5.331 5.331 0 0 1-.22-1.556v-.317a5.331 5.331 0 0 1 .22-1.556 3.71 3.71 0 0 1 .675-1.294 3.199 3.199 0 0 1 1.126-.885c.501-.228 1.046-.34 1.596-.327a3.6 3.6 0 0 1 1.297.224c.373.142.715.353 1.01.622.282.269.506.593.657.952.162.369.253.764.27 1.166h-1.315a2.182 2.182 0 0 0-.177-.71 1.912 1.912 0 0 0-.395-.573 1.87 1.87 0 0 0-1.354-.53 2.061 2.061 0 0 0-1.066.256 2.022 2.022 0 0 0-.682.672c-.174.29-.294.607-.356.938-.071.351-.107.708-.106 1.067v.302c-.001.358.035.715.106 1.066.06.332.181.65.356.938.17.274.404.504.682.668a2.09 2.09 0 0 0 1.084.26zM335.874 35.143a5 5 0 0 1 .26-1.642c.16-.482.416-.928.75-1.311a3.37 3.37 0 0 1 1.161-.874 3.625 3.625 0 0 1 1.536-.317c.534-.008 1.064.1 1.553.317.449.202.848.5 1.169.874.329.385.578.83.736 1.311.174.53.26 1.085.256 1.642v.167a5.096 5.096 0 0 1-.256 1.642c-.157.48-.407.925-.736 1.308-.322.37-.72.665-1.166.867a3.96 3.96 0 0 1-3.085 0 3.408 3.408 0 0 1-1.165-.867 3.831 3.831 0 0 1-.74-1.308 5 5 0 0 1-.259-1.642l-.014-.167zm1.397.167c-.001.389.046.775.142 1.152.087.34.234.66.433.949.186.267.428.49.711.65a2.235 2.235 0 0 0 2.022 0c.284-.16.527-.382.711-.65.197-.29.343-.611.434-.95.098-.375.147-.762.145-1.15v-.168a4.497 4.497 0 0 0-.145-1.148 3.064 3.064 0 0 0-.437-.956 2.253 2.253 0 0 0-.729-.654 2.061 2.061 0 0 0-1.013-.241 2.022 2.022 0 0 0-1.002.241c-.28.165-.523.388-.711.654-.2.29-.347.614-.434.956a4.66 4.66 0 0 0-.142 1.148l.015.167zM346.337 31.148l.035.903a2.96 2.96 0 0 1 1.02-.775c.44-.193.917-.288 1.397-.277.483-.01.961.097 1.393.313.414.217.742.568.931.995a3.042 3.042 0 0 1 2.606-1.3c.392-.007.784.05 1.158.17.324.103.617.285.853.53.245.26.426.574.53.916.125.43.183.878.17 1.326v5.331h-1.393V33.95a2.53 2.53 0 0 0-.12-.85 1.372 1.372 0 0 0-.356-.54 1.262 1.262 0 0 0-.547-.284 3.199 3.199 0 0 0-.711-.078 2.019 2.019 0 0 0-.76.135c-.21.083-.403.203-.57.355-.159.159-.287.345-.376.551a2.21 2.21 0 0 0-.178.668v5.374h-1.386V33.95a2.367 2.367 0 0 0-.124-.81 1.34 1.34 0 0 0-.896-.853 2.37 2.37 0 0 0-.71-.1 1.87 1.87 0 0 0-1.874 1.166v5.928h-1.393v-8.132h1.3z" fill="#0F2035"/>
        <path d="M1.027 9.625v22.21a28.663 28.663 0 1 0 57.323 0c0-14.839-11.583-27.367-26.375-28.568l-1.24-.103L30.17.186 18.03 8.47l14.798 5.822-.462-3.067 2.389.607c10.407 2.64 17.052 12.819 15.28 23.408-1.773 10.59-11.37 18.05-22.07 17.157-10.7-.894-18.926-9.843-18.917-20.58L9.07 9.61l-8.043.014zm40.871 21.68h-8V45.35a12.795 12.795 0 0 0 8-8.398v-5.647zM25.475 20.604h-8.014v16.348a12.834 12.834 0 0 0 8.014 8.391v-24.74z" fill="#3C9CD7"/>
    </g>
</svg>
