<?xml version="1.0" encoding="UTF-8"?>
<svg width="143px" height="25px" viewBox="0 0 143 25" version="1.1" xmlns="http://www.w3.org/2000/svg" xmlns:xlink="http://www.w3.org/1999/xlink">
    <title>santander</title>
    <g id="Design-2021" stroke="none" stroke-width="1" fill="none" fill-rule="evenodd">
        <g id="02.4-Projects-RTC" transform="translate(-1214.000000, -7305.000000)" fill="#EA1D25" fill-rule="nonzero">
            <g id="santander" transform="translate(1214.000000, 7305.000000)">
                <path d="M18.9105793,11.5060241 C18.8505458,10.6024096 18.6104114,9.69879518 18.1301427,8.91566265 L14.0478589,1.74698795 C13.747691,1.20481928 13.5075567,0.602409639 13.3874895,0 L13.2073887,0.301204819 C12.1868178,2.04819277 12.1868178,4.27710843 13.2073887,6.02409639 L16.5092359,11.746988 C17.5298069,13.4939759 17.5298069,15.7228916 16.5092359,17.4698795 L16.3291352,17.7710843 C16.209068,17.1686747 15.9689337,16.5662651 15.6687657,16.0240964 L12.6670865,10.7831325 L10.7460118,7.40963855 C10.4458438,6.86746988 10.2057095,6.26506024 10.0856423,5.6626506 L9.90554156,5.96385542 C8.88497061,7.71084337 8.88497061,9.87951807 9.90554156,11.686747 L9.90554156,11.686747 L13.2073887,17.4096386 C14.2279597,19.1566265 14.2279597,21.3855422 13.2073887,23.1325301 L13.027288,23.4337349 C12.9072208,22.8313253 12.6670865,22.2289157 12.3669186,21.686747 L8.22460118,14.5180723 C7.68429891,13.5542169 7.44416457,12.4698795 7.44416457,11.3855422 C3.06171285,12.5301205 0,15 0,17.8313253 C0,21.8072289 5.88329135,25 13.1473552,25 C20.411419,25 26.2947103,21.8072289 26.2947103,17.8313253 C26.3547439,15.1204819 23.3530647,12.6506024 18.9105793,11.5060241 Z M31.3375315,23.7349398 C31.3975651,22.7108434 31.5176322,22.0481928 31.8178002,21.2048193 C33.1985726,21.8674699 34.9995802,22.1686747 36.3203191,22.1686747 C38.6015953,22.1686747 39.9223342,21.4457831 39.9223342,19.939759 C39.9223342,18.4939759 38.9617968,17.8313253 36.6805206,16.8072289 L35.4198153,16.3253012 C33.0785055,15.3012048 31.5176322,13.9759036 31.5176322,11.3855422 C31.5176322,8.55421687 33.4987406,6.74698795 37.4609572,6.74698795 C39.081864,6.74698795 40.5827036,6.98795181 41.9634761,7.46987952 C41.9034425,8.43373494 41.7233417,9.21686747 41.4832074,9.93975904 C40.1624685,9.45783133 38.5415617,9.21686747 37.4009236,9.21686747 C35.2397145,9.21686747 34.2791772,10.060241 34.2791772,11.3855422 C34.2791772,12.6506024 35.2397145,13.4337349 36.9806885,14.1566265 L38.3014274,14.6987952 C41.4231738,16.0240964 42.7439127,17.4698795 42.7439127,19.8795181 C42.7439127,22.7108434 40.5827036,24.6987952 36.3803526,24.6987952 C34.3992443,24.6987952 32.7183039,24.3975904 31.3375315,23.7349398 Z M56.011335,11.8674699 L56.011335,24.2771084 L53.4899244,24.2771084 L53.3698573,22.7710843 C52.6494542,23.8554217 51.6288833,24.5783133 49.8879093,24.5783133 C46.6460957,24.5783133 44.4248531,22.1686747 44.4248531,18.0120482 C44.4248531,13.6746988 46.7661629,11.1445783 51.3287154,11.1445783 C53.1297229,11.2048193 54.6305626,11.3855422 56.011335,11.8674699 Z M53.3098237,21.4457831 L53.3098237,13.6746988 C52.7695214,13.5542169 52.109152,13.5542169 51.3287154,13.5542169 C48.5071369,13.5542169 47.186398,15.3012048 47.186398,18.0722892 C47.186398,20.6024096 48.2069689,22.4096386 50.6083123,22.4096386 C51.7489505,22.3493976 52.5894207,21.9879518 53.3098237,21.4457831 Z M69.9391268,15.9638554 L69.9391268,24.2771084 L67.2376154,24.2771084 L67.2376154,16.4457831 C67.2376154,14.4578313 66.577246,13.5542169 63.8757347,13.5542169 C63.2153652,13.5542169 62.4949622,13.6144578 61.7145256,13.7349398 L61.7145256,24.2771084 L59.0130143,24.2771084 L59.0130143,11.8674699 C60.7539882,11.4457831 62.675063,11.1445783 63.9357683,11.1445783 C68.4983207,11.2048193 69.9391268,12.9518072 69.9391268,15.9638554 Z M77.5033585,22.2891566 C78.2837951,22.2891566 79.0642317,22.1686747 79.604534,21.9277108 C79.5445004,22.6506024 79.4244332,23.4939759 79.3043661,24.2168675 C78.5839631,24.5180723 77.7434929,24.6385542 77.0230898,24.6385542 C74.3816121,24.6385542 72.7006717,23.4337349 72.7006717,20.4216867 L72.7006717,7.34939759 C73.5411419,7.04819277 74.5617128,6.92771084 75.402183,6.92771084 L75.402183,11.626506 L79.7246012,11.626506 C79.6645676,12.4698795 79.604534,13.253012 79.4844668,13.9759036 L75.402183,13.9759036 L75.402183,20.060241 C75.402183,21.626506 76.1826196,22.2891566 77.5033585,22.2891566 Z M92.0915197,11.8674699 L92.0915197,24.2771084 L89.5701092,24.2771084 L89.450042,22.7710843 C88.729639,23.8554217 87.709068,24.5783133 85.968094,24.5783133 C82.7262804,24.5783133 80.5050378,22.1686747 80.5050378,18.0120482 C80.5050378,13.6746988 82.8463476,11.1445783 87.4089001,11.1445783 C89.2099076,11.2048193 90.6507137,11.3855422 92.0915197,11.8674699 Z M89.3299748,21.4457831 L89.3299748,13.6746988 C88.7896725,13.5542169 88.1293031,13.5542169 87.3488665,13.5542169 C84.527288,13.5542169 83.2065491,15.3012048 83.2065491,18.0722892 C83.2065491,20.6024096 84.2271201,22.4096386 86.6284635,22.4096386 C87.7691016,22.3493976 88.6696054,21.9879518 89.3299748,21.4457831 Z M106.019312,15.9638554 L106.019312,24.2771084 L103.257767,24.2771084 L103.257767,16.4457831 C103.257767,14.4578313 102.597397,13.5542169 99.8958858,13.5542169 C99.2355164,13.5542169 98.5151134,13.6144578 97.7346767,13.7349398 L97.7346767,24.2771084 L95.0331654,24.2771084 L95.0331654,11.8674699 C96.7741394,11.4457831 98.6952141,11.1445783 99.9559194,11.1445783 C104.518472,11.2048193 106.019312,12.9518072 106.019312,15.9638554 Z M119.767003,6.92771084 L119.767003,24.2771084 L117.245592,24.2771084 L117.125525,22.7108434 C116.405122,23.8554217 115.384551,24.5783133 113.583543,24.5783133 C110.34173,24.5783133 108.120487,22.1686747 108.120487,18.0120482 C108.120487,13.6746988 110.461797,11.1445783 115.024349,11.1445783 C115.744752,11.1445783 116.405122,11.2048193 117.065491,11.3253012 L117.065491,7.22891566 C117.905961,6.98795181 118.866499,6.92771084 119.767003,6.92771084 Z M117.065491,21.4457831 L117.065491,13.7951807 C116.345088,13.6746988 115.624685,13.5542169 114.904282,13.5542169 C112.202771,13.5542169 110.942065,15.2409639 110.942065,18.0722892 C110.942065,20.6024096 111.962636,22.4096386 114.36398,22.4096386 C115.444584,22.3493976 116.345088,21.9879518 117.065491,21.4457831 Z M133.45466,18.9759036 L124.74979,18.9759036 C125.109992,21.2048193 126.370697,22.2289157 128.832074,22.2289157 C130.332914,22.2289157 131.833753,21.9277108 133.154492,21.2650602 C133.034425,21.9879518 132.914358,22.9518072 132.734257,23.7349398 C131.473552,24.2771084 130.212846,24.5180723 128.712007,24.5180723 C124.149454,24.5180723 121.988245,21.9879518 121.988245,17.7710843 C121.988245,14.0963855 123.669186,11.1445783 127.991604,11.1445783 C131.893787,11.1445783 133.574727,13.6746988 133.574727,16.8072289 C133.574727,17.6506024 133.574727,18.253012 133.45466,18.9759036 Z M124.74979,16.686747 L130.873216,16.686747 C130.873216,14.6385542 129.792611,13.4337349 127.93157,13.4337349 C125.950462,13.4939759 124.929891,14.5783133 124.74979,16.686747 Z M143,11.3253012 C143,12.1686747 142.879933,13.1325301 142.759866,13.6746988 C142.099496,13.6144578 141.49916,13.5542169 140.718724,13.5542169 C140.058354,13.5542169 139.397985,13.6144578 138.737615,13.6746988 L138.737615,24.2771084 L136.036104,24.2771084 L136.036104,11.8674699 C137.176742,11.4457831 139.157851,11.1445783 140.65869,11.1445783 C141.439127,11.2048193 142.399664,11.2048193 143,11.3253012 Z" id="Shape"></path>
            </g>
        </g>
    </g>
</svg>