<?xml version="1.0" encoding="UTF-8"?>
<svg width="206px" height="32px" viewBox="0 0 206 32" version="1.1" xmlns="http://www.w3.org/2000/svg" xmlns:xlink="http://www.w3.org/1999/xlink">
    <title>citibanamex</title>
    <g id="Design-2021" stroke="none" stroke-width="1" fill="none" fill-rule="evenodd">
        <g id="02.4-Projects-RTC" transform="translate(-1214.000000, -7351.000000)">
            <g id="citibanamex" transform="translate(1214.000000, 7351.000000)">
                <path d="M183.28144,12.9835663 C182.744895,14.1381618 181.744312,16.7200339 182.744895,19.7072427 C182.947912,20.3877171 183.414368,20.5228293 183.747896,20.3877171 C184.28444,20.1838204 184.349696,19.7072427 184.349696,18.8228717 C184.349696,17.7370606 184.216768,15.8381194 185.485624,15.4278695 C185.618552,15.3615417 185.686224,15.3615417 185.821568,15.3615417 C185.285024,15.0888607 184.417368,14.273274 183.28144,12.9835663 M191.699392,7.8222787 C190.229936,7.8222787 188.291608,8.09495976 186.488624,9.45099534 C186.087424,9.72367641 186.019752,9.99635748 186.019752,10.2002541 C186.019752,10.4041508 186.220352,10.9470563 186.822152,10.9470563 C187.692224,10.9470563 188.893408,10.1314697 190.162264,10.1314697 C191.298192,10.1314697 191.634136,10.9470563 191.634136,11.0821686 C191.699392,10.539263 192.168264,9.38466751 193.103592,7.8222787 C192.767647,7.8222787 192.301192,7.8222787 191.699392,7.8222787 M196.042504,29.2142313 C196.042504,31.7961033 193.171264,32 191.566464,32 C190.029336,32 188.15868,31.7273189 186.621552,30.9829733 C184.951496,30.1673867 184.417368,29.3518001 184.417368,26.6348158 C184.417368,25.5490047 184.482624,24.7997459 184.550296,23.9866158 C183.614968,24.3256247 182.611968,24.733418 181.67664,25.0060991 C179.204184,25.8192291 178.135928,23.1022448 177.667056,21.6086404 C177.2006,20.115036 177,18.8228717 177,17.6707327 C177,14.9537484 177.867656,14.0693774 179.873656,13.3913596 C180.876656,13.0523507 182.213184,12.7133418 182.947912,12.5069886 C182.346112,11.7626429 181.67664,10.9470563 181.077256,10.0626853 C180.676056,9.58856417 180.540712,9.11444303 180.540712,8.63786531 C180.540712,7.14180432 182.07784,5.92088098 183.08084,5.17407878 C184.349696,4.28970775 186.689224,3 188.76048,3 C189.896408,3 190.631136,3.47657772 191.566464,4.69750106 C192.235936,5.58187209 192.968247,6.7364676 193.371864,7.41448539 C193.903575,6.59889877 194.507792,5.71698433 195.107176,4.90139771 C195.641303,4.22337992 196.310776,3.95069886 197.045504,3.95069886 C198.249104,3.95069886 199.585632,4.69750106 200.385615,5.30919102 C201.521543,6.19356205 202.925744,7.54959763 203.660472,8.97687421 C204.126927,9.72367641 204.329944,10.4041508 204.329944,11.0133842 C204.329944,11.7626429 203.993999,12.4406607 203.326944,13.3225752 C202.657471,14.2069462 201.857488,15.2927573 201.320943,15.8381194 C202.256271,16.0395595 203.259272,16.3785684 204.262272,16.7200339 C205.5988,17.194155 206,18.2136383 206,19.2994494 C206,21.4047438 204.5958,24.5295214 203.058672,26.158238 C202.191016,27.1113935 201.521543,27.5191868 200.653888,27.5191868 C200.117343,27.5191868 199.585632,27.381618 198.91616,27.1777213 C197.915576,26.8387124 196.644304,26.3621347 195.909576,26.0919102 C195.977248,27.1113935 196.042504,27.654299 196.042504,29.2142313 M195.107176,18.3487505 C195.641303,16.7200339 196.243104,15.9707751 196.844904,15.6342228 C196.042504,15.7005506 194.906576,15.2239729 193.63772,14.273274 C192.235936,13.2562474 191.699392,12.4406607 191.566464,11.7626429 C191.433536,12.575773 190.563464,13.460144 189.294608,14.4108429 C187.890408,15.4278695 186.95508,15.7005506 186.288024,15.5654384 C187.022752,15.9707751 187.624552,17.0590428 188.091008,18.5526472 C188.35928,19.4345616 188.492208,20.0462516 188.492208,20.5916137 C188.492208,21.0657349 188.426952,21.4047438 188.291608,21.7462092 C188.893408,21.2008471 190.097008,20.9306226 191.634136,20.9306226 C193.371864,20.9306226 194.307192,21.2696315 194.773648,21.7462092 C194.64072,21.4735282 194.573048,21.1345193 194.573048,20.726726 C194.705975,20.0462516 194.84132,19.2331216 195.107176,18.3487505 M195.641303,23.3749259 C195.776648,23.9866158 195.841903,24.7997459 195.909576,25.6841169 C196.711976,25.2763236 198.048504,24.3944091 199.184432,22.8320203 C199.984415,21.6086404 200.453288,20.5228293 200.453288,20.0462516 C200.453288,19.5721305 199.984415,19.3682338 199.71856,19.3682338 C199.31736,19.3682338 198.91616,19.7072427 198.51496,20.3189327 C197.915576,21.2008471 196.912576,22.8320203 195.641303,22.3578992 C195.508376,22.2866582 195.375448,22.2203304 195.24252,22.151546 C195.440703,22.5593393 195.508376,22.9671326 195.641303,23.3749259 M196.777231,9.72367641 C196.376031,9.72367641 196.042504,10.0626853 196.042504,10.4704786 C196.042504,10.8094875 196.310776,11.2172808 196.644304,11.7626429 C197.178432,12.4406607 197.980832,13.3913596 197.980832,14.3420584 C197.980832,14.9537484 197.647304,15.2927573 197.446704,15.4278695 C197.647304,15.3615417 197.780232,15.3615417 197.980832,15.3615417 C198.647887,15.3615417 199.783815,15.5654384 200.92216,15.8381194 C200.72156,14.5459551 200.052088,11.8977552 197.446704,9.99635748 C197.178432,9.79246082 196.980248,9.72367641 196.777231,9.72367641 M187.022752,22.8983482 C186.488624,23.2398136 185.821568,23.5100381 185.019168,23.9178314 C185.821568,24.7997459 188.025752,26.5660313 191.232936,26.5660313 C191.967664,26.5660313 192.235936,26.2270224 192.235936,25.8192291 C192.235936,25.2763236 191.699392,25.0060991 190.899408,24.733418 C189.828736,24.3944091 188.091008,23.9866158 188.091008,22.6281237 C188.091008,22.4905548 188.091008,22.3578992 188.15868,22.2203304 C187.75748,22.4905548 187.35628,22.6944515 187.022752,22.8983482" id="Fill-1" fill="#D6332F"></path>
                <path d="M54.916796,28 C53.1797578,28 51.3123254,27.0800951 50.4112077,26.0270773 L50.4112077,27.6695949 L47,27.6695949 L47,6.83980984 L50.4112077,5 L50.4112077,12.0288342 C51.6336541,10.8474576 53.3078237,9.99410914 55.110059,9.99410914 C58.7797268,9.99410914 62,12.6872675 62,19.2597148 C62,25.1737288 58.458398,28 54.916796,28 M54.4674014,13.1484084 C52.8584291,13.1484084 51.2494567,14.2656056 50.348339,15.3804258 L50.348339,22.6754857 C51.1190624,23.7285035 52.9212977,24.9764365 54.5954672,24.9764365 C56.9774915,24.9764365 58.651661,23.1366267 58.651661,19.457007 C58.651661,15.0523977 56.9122943,13.1484084 54.4674014,13.1484084" id="Fill-2" fill="#204F82"></path>
                <path d="M93.5650645,28 L93.5650645,18.0667203 C93.5650645,14.5337621 92.2684642,13.2676849 90.0644783,13.2676849 C87.7948417,13.2676849 86.4349355,14.9340836 86.4349355,17.7339228 L86.4349355,28 L83,28 L83,10.4003215 L86.4349355,10.4003215 L86.4349355,12.0667203 C87.2766706,10.8006431 89.1570926,10 90.908558,10 C94.8616647,10 97,12.266881 97,17.8665595 L97,27.9348875 L93.5650645,27.9348875 L93.5650645,28" id="Fill-3" fill="#204F82"></path>
                <path d="M75.4534693,28.5851092 L75.4534693,26.7905814 C74.2277211,28.0327545 72.3163433,29 70.4098981,29 C67.4774745,29 64,27.3429361 64,22.851618 C64,18.7726914 67.2727721,16.9781636 71.2952976,16.9781636 C72.9995067,16.9781636 74.4324235,17.2555906 75.4534693,17.6679821 L75.4534693,16.2858458 C75.4534693,14.2838727 74.0230187,13.176664 71.7737586,13.176664 C69.931437,13.176664 68.4985202,13.5240726 67.0680697,14.3513549 L65.7042091,11.6570639 C67.4084183,10.5523546 69.3863861,10 71.9094048,10 C75.9319303,10 79,12.0044725 79,16.0784004 L79,28.5176269 L75.4534693,28.5176269 L75.4534693,28.5851092 Z M75.4534693,20.7796632 C74.4990135,20.2947908 73.1376192,19.9498816 71.2262414,19.9498816 C68.9769813,19.9498816 67.4084183,20.9846093 67.4084183,22.6441726 C67.4084183,24.4411997 68.7032226,25.6833728 71.021539,25.6833728 C72.9329168,25.6833728 74.7037159,24.5086819 75.5225255,23.3339911 L75.5225255,20.7796632 L75.4534693,20.7796632 L75.4534693,20.7796632 Z" id="Fill-4" fill="#204F82"></path>
                <path d="M110.455936,28.5851092 L110.455936,26.7905814 C109.227721,28.0327545 107.31881,29 105.409898,29 C102.477475,29 99,27.3429361 99,22.851618 C99,18.7726914 102.272772,16.9781636 106.295298,16.9781636 C107.999507,16.9781636 109.432424,17.2555906 110.455936,17.6679821 L110.455936,16.2858458 C110.455936,14.2838727 109.023019,13.176664 106.773759,13.176664 C104.931437,13.176664 103.500987,13.5240726 102.06807,14.3513549 L100.704209,11.6570639 C102.408418,10.5523546 104.386386,10 106.909405,10 C110.93193,10 114,12.0044725 114,16.0784004 L114,28.5176269 L110.455936,28.5176269 L110.455936,28.5851092 Z M110.455936,20.7796632 C109.499013,20.2947908 108.135153,19.9498816 106.226241,19.9498816 C103.976981,19.9498816 102.408418,20.9846093 102.408418,22.6441726 C102.408418,24.4411997 103.703223,25.6833728 106.021539,25.6833728 C107.930451,25.6833728 109.703716,24.5086819 110.522525,23.3339911 L110.522525,20.7796632 L110.455936,20.7796632 L110.455936,20.7796632 Z" id="Fill-5" fill="#204F82"></path>
                <path d="M137.496263,28 L137.496263,18.0667203 C137.496263,14.5337621 136.372197,13.2676849 134.124066,13.2676849 C131.81136,13.2676849 130.818834,14.9340836 130.818834,17.7339228 L130.818834,28 L127.315097,28 L127.315097,18.0667203 C127.315097,14.5337621 126.255605,13.2676849 124.009865,13.2676849 C121.694768,13.2676849 120.503737,14.9340836 120.503737,17.7339228 L120.503737,28 L117,28 L117,10.4003215 L120.503737,10.4003215 L120.503737,12.0667203 C121.364723,10.8006431 123.017339,10 124.801495,10 C127.181166,10 128.637668,10.9332797 129.563229,12.5996785 C130.818834,11.0008039 132.208371,10 134.918087,10 C138.952765,10 141,11.8665595 141,17.7339228 L141,27.9348875 L137.496263,27.9348875 L137.496263,28" id="Fill-6" fill="#204F82"></path>
                <path d="M158.908741,20.1821782 L147.314078,20.1821782 C147.696649,23.5326733 149.733954,24.8467327 151.773564,24.8467327 C153.174787,24.8467327 154.64054,24.3215842 155.788253,23.4661386 L157.636577,25.699802 C156.170824,27.1445545 154.131214,28 151.582278,28 C147.632119,28 144,24.7136634 144,18.9988119 C144,13.1532673 147.314078,10 151.646808,10 C156.424335,10 158.973271,14.0063366 158.973271,18.6708911 C159.037801,19.2625743 158.973271,19.8542574 158.908741,20.1821782 M151.455523,13.0867327 C149.224628,13.0867327 147.632119,14.6645545 147.376303,17.4233663 L155.659193,17.4233663 C155.532438,15.0566337 154.195744,13.0867327 151.455523,13.0867327" id="Fill-7" fill="#204F82"></path>
                <path d="M170.967973,28 L169.316444,24.8651685 C168.589866,23.5702932 167.796367,21.9325843 167.466539,21.2518498 C167.136711,21.9325843 166.211759,23.7059468 165.549713,24.9317621 L163.831262,28 L160,28 L165.351338,18.7286928 L160.39675,10 L164.361855,10 L165.748088,12.523157 C166.474665,13.8180323 167.268164,15.4532749 167.597992,16.1364757 C167.994742,15.4532749 168.788241,13.7489723 169.447897,12.454097 L170.769598,10 L174.734704,10 L169.646272,18.6596328 L175,27.9334064 L170.967973,27.9334064 L170.967973,28" id="Fill-8" fill="#204F82"></path>
                <path d="M43,8 C39.9934161,3.31025881 34.4467039,0 28.4987916,0 C22.6862239,0 17.1395116,3.17056439 14,7.93015279 L18.1425119,7.93015279 C21.016168,4.89678828 24.624552,3.31025881 28.4987916,3.31025881 C32.3077756,3.31025881 35.983832,4.96414094 38.8574881,7.93015279 L43,7.93015279 L43,8" id="Fill-9" fill="#D6332F"></path>
                <path d="M12.9957905,22.6399787 L12.9303087,22.7070089 C11.7025257,23.963825 10.2806361,24.6915813 8.79326473,24.6915813 C5.75537886,24.6915813 3.49158092,22.3742519 3.49158092,19.0658332 C3.49158092,15.8220508 5.6898971,13.4400851 8.79326473,13.4400851 C10.2806361,13.4400851 11.7025257,14.1032052 12.9303087,15.4246575 L12.9957905,15.4940817 L15,13.0426918 L14.9368569,12.9780556 C13.2530402,10.9910892 11.3143124,10 8.92188962,10 C6.46632367,10 4.26800748,10.8594228 2.65201123,12.3149355 C0.90505145,13.9691448 0,16.2864743 0,18.998803 C0,21.7135257 0.90505145,24.0284612 2.65201123,25.6850645 C4.26800748,27.2076074 6.46632367,28 8.92188962,28 C11.3143124,28 13.318522,27.0089108 14.9368569,25.0219444 L15,24.9573082 L12.9957905,22.6399787" id="Fill-10" fill="#204F82"></path>
                <polygon id="Fill-11" fill="#204F82" points="16 28 20 28 20 10 16 10"></polygon>
                <path d="M34.71324,23.9210749 C33.7134553,24.512804 32.7136706,24.7742105 31.8585576,24.7742105 C30.5720129,24.7742105 30.0708288,24.1824813 30.0708288,22.8041564 L30.0708288,13.6074018 L34.0002153,13.6074018 L34.0002153,10.3208097 L30.0708288,10.3208097 L30.0708288,5 L26.2861141,6.83935091 L26.2861141,10.3873495 L23,10.3873495 L23,13.6715652 L26.2861141,13.6715652 L26.2861141,23.4624254 C26.2861141,26.1549119 28.001507,27.927723 30.5720129,27.9942628 C32.2848224,28.0608026 33.3569429,27.5332369 34.0002153,27.2052906 L34.0725511,27.2052906 L35,23.854535 L34.71324,23.9210749" id="Fill-12" fill="#204F82"></path>
                <polygon id="Fill-13" fill="#204F82" points="36 28 40 28 40 10 36 10"></polygon>
            </g>
        </g>
    </g>
</svg>