<svg width="153" height="28" xmlns="http://www.w3.org/2000/svg">
    <path d="M5.41 13.617c-.859-1.388-1.03-3.296-1.03-4.684C4.38 4.076 8.672 0 13.137 0h14.083l-5.41 5.55h-8.758c-3.521 0-7.729 3.557-7.643 8.067zm5.324-3.99c.344-1.127 1.46-2.689 2.576-3.47-2.06 0-4.293.955-6.097 3.47h3.521zm2.834-2.775c-.773.694-1.632 1.821-2.147 2.775h4.208c-.43-.954-1.288-2.081-2.061-2.775zM6.87 10.32c-.515.954-.773 1.995-.859 3.122h3.95c0-1.04.172-2.168.515-3.122H6.87zm4.293 0c-.343.954-.515 1.995-.6 3.122h5.924c-.085-1.04-.257-2.168-.6-3.122h-4.724zm8.588-.694c-1.632-2.515-3.95-3.47-5.926-3.47 1.03.781 2.061 2.256 2.577 3.47h3.349zm-3.092.694c.344.954.515 1.995.515 3.122h3.95c-.085-1.04-.343-2.168-.858-3.122h-3.607zM7.213 17.78c1.718 2.602 4.036 3.47 6.097 3.47-1.03-.781-2.232-2.343-2.576-3.47h-3.52zm6.355 2.862c.773-.694 1.631-1.821 2.06-2.862h-4.207c.43.954 1.374 2.168 2.147 2.862zm-3.092-3.47a10.327 10.327 0 0 1-.515-3.122h-3.95a8.515 8.515 0 0 0 .859 3.123h3.606zm5.41 0c.344-.953.516-2.08.601-3.122h-5.925c.086 1.041.258 2.082.601 3.123h4.723zm.516.608c-.43 1.127-1.546 2.689-2.577 3.47 1.975 0 4.294-.868 5.926-3.47H16.4zm3.778-.607c.515-.954.773-2.082.859-3.123h-3.95c0 1.041-.172 2.082-.516 3.123h3.607zm1.546-3.47c.086 4.684-4.122 8.24-7.643 8.24H5.41L0 27.407h14.083c4.465 0 8.759-4.076 8.759-8.933 0-1.388-.172-3.296-1.03-4.684l-.086-.086zm41.047 7.546c-3.607 0-6.27-2.255-6.27-5.637 0-3.383 2.749-5.725 6.27-5.725 3.52 0 6.268 2.255 6.268 5.725 0 3.382-2.662 5.637-6.268 5.637zm62.343-11.101v10.841h-3.607l-.086-1.128h-.086c-.429.347-1.288 1.301-3.606 1.301-2.576 0-4.895-2.255-4.895-5.724 0-3.122 2.06-5.724 5.152-5.724 2.147 0 3.006.954 3.263 1.214h.086v-.954h3.779v.174zm-28.08 0v10.841h-3.607l-.086-1.128h-.086c-.43.347-1.288 1.301-3.606 1.301-2.577 0-4.895-2.255-4.895-5.724 0-3.122 2.06-5.724 5.152-5.724 2.147 0 3.006.954 3.263 1.214h.086v-.954l3.779.174zm-17.69 0h3.778v10.928h-3.778V10.148zM99.44 20.989V5.638h3.778v5.29c.258-.173 1.46-1.04 3.263-1.04 2.92 0 5.067 2.341 5.067 5.463 0 3.903-2.404 5.898-5.067 5.898-2.06 0-3.09-.954-3.349-1.214h-.085l-.086 1.04H99.44v-.086zm-36.667-2.515c1.545 0 2.404-1.388 2.404-2.95 0-1.647-.859-2.948-2.404-2.948-1.632 0-2.405 1.388-2.405 2.949 0 1.648.859 2.949 2.405 2.949zm14.77-.434c-.172.087-.687.174-1.03.174-.774 0-1.632-.347-1.632-1.648v-3.643h2.318v-2.775h-2.318v-3.47h-3.779v3.47h-1.631v2.775h1.631v4.337c0 2.341 1.116 4.076 3.864 4.076.773 0 1.546-.087 2.061-.174l.516-3.122zM34.95 20.642c1.03.347 2.662.607 4.294.607 3.177 0 6.354-1.127 6.354-4.683 0-4.857-6.612-4.163-6.612-6.158 0-.954 1.03-1.214 2.06-1.214 1.375 0 3.178.693 3.522.867l.343-3.383c-.944-.347-2.404-.52-3.864-.52-3.177 0-6.269 1.214-6.269 4.423 0 4.77 6.612 3.816 6.612 6.332 0 .954-.944 1.3-2.146 1.3-1.632 0-3.264-.867-3.95-1.127l-.344 3.556zm81.922-5.204c0 1.822 1.03 2.949 2.319 2.949 1.202 0 2.318-1.127 2.318-2.775s-1.03-2.863-2.318-2.863c-1.374 0-2.319 1.215-2.319 2.69zm-28.08 0c0 1.822 1.03 2.949 2.318 2.949 1.203 0 2.319-1.127 2.319-2.775s-1.03-2.863-2.319-2.863c-1.374 0-2.318 1.215-2.318 2.69zm-33.233-5.117c-.257-.087-1.288-.434-2.662-.434-3.349 0-5.925 2.169-5.925 5.725 0 3.209 2.233 5.724 5.753 5.724 1.46 0 2.577-.434 2.834-.434l-.171-3.209c-.258.174-1.03.52-1.89.52-1.545 0-2.576-1.04-2.576-2.601 0-1.562 1.202-2.602 2.662-2.602.859 0 1.546.433 1.89.52l.085-3.209zm85.529 10.668h3.778v-5.03l3.35 5.03h4.121l-4.036-5.811 3.864-5.117h-4.121l-3.264 4.51V5.638h-3.778v15.351h.086zm-13.482 0h3.607v-5.638c0-1.3.858-2.255 1.975-2.255 1.288 0 1.975.868 1.975 2.255v5.638h3.606v-6.592c0-2.428-1.545-4.596-4.465-4.596-1.89 0-2.92 1.04-3.349 1.474h-.086v-1.214h-3.263v10.928zM81.236 4.597c-1.203 0-2.062.954-2.148 2.168 0 1.214.945 2.082 2.147 2.168 1.202 0 2.061-.954 2.147-2.168 0-1.214-.945-2.168-2.147-2.168zm26.448 10.928c0-1.475-.859-2.776-2.233-2.776-1.288 0-2.233 1.128-2.233 2.776s.859 2.775 2.233 2.775c1.288 0 2.233-1.04 2.233-2.775z" fill="#DD1725" fill-rule="nonzero"/>
</svg>
