<svg width="195" height="41" viewBox="0 0 195 41" xmlns="http://www.w3.org/2000/svg">
    <g fill="#FFF" fill-rule="nonzero">
        <path d="M105.924 17.08v13.377h-6.725V17.962c0-1.037-.165-1.829-.496-2.375-.33-.547-.94-.82-1.832-.82a5.18 5.18 0 0 0-2.025.482 24.3 24.3 0 0 0-2.497 1.283v13.925H85.62V17.962c0-1.037-.165-1.829-.496-2.375-.33-.547-.94-.82-1.83-.82-.71.023-1.41.187-2.053.482-.867.377-1.71.805-2.522 1.283v13.925h-6.762V10.055h4.186l1.164 2.144a19.178 19.178 0 0 1 4.008-2.042 11.51 11.51 0 0 1 3.965-.786c2.818 0 4.787.884 5.907 2.65a19.832 19.832 0 0 1 3.88-1.913 11.25 11.25 0 0 1 3.836-.737c2.5 0 4.297.667 5.388 1.999 1.092 1.332 1.638 3.232 1.638 5.7M116.467 3.791a3.74 3.74 0 0 1-1.035 2.64c-.654.725-1.559 1.128-2.499 1.113-1.916-.03-3.463-1.69-3.49-3.748a3.798 3.798 0 0 1 1.037-2.683c.64-.72 1.53-1.122 2.458-1.113 1.952.001 3.533 1.7 3.533 3.796m-.324 27.833h-6.373V10.466h6.373V31.63zM142.243 20.336c0 3.494-.98 6.23-2.942 8.208-1.962 1.978-4.64 2.967-8.035 2.967a8.996 8.996 0 0 1-3.311-.693v5.188c0 2.758-2.249 4.993-5.022 4.994h-1.776V10.07h3.437l1.175 1.294c1.831-1.328 3.749-1.993 5.753-1.993 3.283 0 5.89.953 7.82 2.859 1.932 1.905 2.898 4.605 2.9 8.1m-7.016.043c0-1.732-.393-3.089-1.177-4.071-.784-.983-1.874-1.474-3.268-1.473-.901 0-1.846.333-2.833.997v9.355c1.018.607 2.02.91 3.007.91 1.279 0 2.31-.527 3.092-1.581.784-1.055 1.176-2.434 1.177-4.137M145.757 16.57c0-2.884.585-5.486 1.754-7.807a13.833 13.833 0 0 1 4.843-5.49 13.06 13.06 0 0 1 6.981-2.102c2.561 0 4.86.641 6.896 1.923a13.087 13.087 0 0 1 4.761 5.361c1.139 2.288 1.708 4.876 1.708 7.763 0 2.888-.585 5.498-1.754 7.829a13.742 13.742 0 0 1-4.867 5.512 12.89 12.89 0 0 1-6.994 2.068 12.555 12.555 0 0 1-6.857-1.922c-2.036-1.282-3.623-3.069-4.761-5.362-1.139-2.293-1.709-4.884-1.71-7.774m13.621-12.996a9.66 9.66 0 0 0-5.573 1.674c-1.636 1.115-2.916 2.659-3.841 4.633-.925 1.973-1.388 4.19-1.39 6.648 0 2.43.45 4.61 1.347 6.54.897 1.93 2.135 3.448 3.714 4.554a9.143 9.143 0 0 0 5.36 1.652 9.667 9.667 0 0 0 5.57-1.672c1.637-1.115 2.918-2.66 3.844-4.633.926-1.974 1.388-4.204 1.387-6.691 0-2.43-.448-4.61-1.344-6.541-.896-1.93-2.135-3.44-3.716-4.526a9.235 9.235 0 0 0-5.358-1.63M185.308 31.61a17.272 17.272 0 0 1-3.942-.515c-1.45-.344-2.626-.771-3.526-1.283l.613-2.061a15.6 15.6 0 0 0 3.12 1.182c1.206.33 2.448.495 3.695.494 2.298 0 4.084-.487 5.357-1.461 1.274-.974 1.91-2.234 1.91-3.778a4.721 4.721 0 0 0-.843-2.813c-.56-.787-1.368-1.51-2.42-2.169-1.053-.658-2.497-1.388-4.332-2.19-5.036-2.232-7.554-5.138-7.554-8.716a6.353 6.353 0 0 1 1.088-3.607c.724-1.09 1.743-1.948 3.058-2.577 1.314-.629 2.833-.943 4.556-.945a14.511 14.511 0 0 1 3.717.472c1.098.281 2.165.684 3.181 1.203l-.903 2.019a21.265 21.265 0 0 0-2.75-1.075c-.85-.258-1.904-.387-3.162-.386-1.97 0-3.53.444-4.68 1.33-1.11.81-1.759 2.15-1.724 3.566a4.623 4.623 0 0 0 .842 2.79 8.184 8.184 0 0 0 2.36 2.104c1.013.63 2.504 1.432 4.475 2.406 1.834.886 3.27 1.709 4.311 2.468a8.264 8.264 0 0 1 2.381 2.598c.546.973.82 2.149.82 3.528a6.695 6.695 0 0 1-1.148 3.849c-.767 1.132-1.883 2.012-3.347 2.641s-3.18.944-5.151.945M45.497 2.343c2.32.002 4.202 1.96 4.203 4.378v27.56c0 2.417-1.882 4.376-4.203 4.376h-29.08c-2.32 0-4.202-1.959-4.203-4.376V6.72c0-1.162.444-2.276 1.233-3.098a4.119 4.119 0 0 1 2.975-1.28h29.075zm-21.61 12.486h-5.97v11.344h5.97V14.829zm20.113 0h-5.968v11.344H44V14.829zM3.726 29.278H1.958C1.155 29.277.504 28.48.5 27.496V13.498c.003-.986.655-1.783 1.458-1.784h1.768c.806 0 1.46.802 1.46 1.79v13.992c0 .988-.654 1.79-1.46 1.79M60.76 29.286h-2.21c-.483 0-.947-.189-1.289-.525a1.773 1.773 0 0 1-.532-1.266v-13.99c0-.475.19-.93.532-1.266a1.838 1.838 0 0 1 1.289-.525h2.21c.484-.001.948.187 1.291.523.343.336.535.792.535 1.268v13.99c0 .475-.192.93-.533 1.266a1.838 1.838 0 0 1-1.289.525"/>
    </g>
</svg>
