<svg width="22" height="22" viewBox="0 0 22 22" xmlns="http://www.w3.org/2000/svg">
    <path d="M11.015 6.975a3.372 3.372 0 0 0-3.888.582 3.295 3.295 0 0 0 0 4.658l3.109 3.163a1.098 1.098 0 0 0 1.56 0l3.108-3.108a3.295 3.295 0 0 0 0-4.658 3.372 3.372 0 0 0-3.889-.637zm2.33 3.691-2.33 2.329-2.328-2.329a1.098 1.098 0 1 1 1.549-1.56 1.098 1.098 0 0 0 1.56 0 1.098 1.098 0 1 1 1.548 1.56zM11.014 0C4.95 0 .031 4.918.031 10.985a10.864 10.864 0 0 0 2.482 6.953L.317 20.135a1.098 1.098 0 0 0-.231 1.197c.187.404.599.656 1.043.637h9.886C17.082 21.969 22 17.051 22 10.985 22 4.918 17.082 0 11.015 0zm0 19.772H3.777l1.021-1.021a1.098 1.098 0 0 0 0-1.55 8.788 8.788 0 1 1 6.217 2.571z" fill-rule="nonzero"/>
</svg>
