<svg width="22" height="22" viewBox="0 0 22 22" xmlns="http://www.w3.org/2000/svg">
    <path d="M21.064.953a3.18 3.18 0 0 0-3.3-.781L2.198 5.373a3.19 3.19 0 0 0-.132 6.015l5.764 2.2c.265.101.477.308.583.571l2.2 5.774A3.157 3.157 0 0 0 13.594 22h.077a3.168 3.168 0 0 0 2.96-2.2l5.203-15.582a3.177 3.177 0 0 0-.77-3.265zm-1.265 2.573L14.54 19.119a.968.968 0 0 1-.924.682 1.012 1.012 0 0 1-.957-.638l-2.2-5.773a3.2 3.2 0 0 0-1.837-1.848l-5.775-2.2a.99.99 0 0 1-.65-.956c.001-.424.278-.798.683-.924l15.599-5.2a1.001 1.001 0 0 1 1.32 1.264z" fill-rule="nonzero"/>
</svg>
