<svg width="22" height="18" viewBox="0 0 22 18" xmlns="http://www.w3.org/2000/svg">
    <path d="M11.315 8.732a4.927 4.927 0 0 0 1.703-3.725 5.007 5.007 0 1 0-10.014 0c0 1.43.621 2.789 1.702 3.725A8.01 8.01 0 0 0 0 16.022a1.001 1.001 0 0 0 2.003 0 6.008 6.008 0 1 1 12.016 0 1.001 1.001 0 0 0 2.003 0 8.01 8.01 0 0 0-4.707-7.29zM8.011 8.01a3.004 3.004 0 1 1 0-6.008 3.004 3.004 0 0 1 0 6.008zm9.753.32A5.007 5.007 0 0 0 14.02 0a1.001 1.001 0 0 0 0 2.003 3.004 3.004 0 0 1 3.004 3.004A3.004 3.004 0 0 1 15.521 7.6a1.001 1.001 0 0 0-.05 1.703l.39.26.13.07a7.01 7.01 0 0 1 4.006 6.389 1.001 1.001 0 0 0 2.003 0 9.012 9.012 0 0 0-4.236-7.69z" fill-rule="nonzero"/>
</svg>
