<?xml version="1.0" encoding="UTF-8"?>
<svg width="195px" height="41px" viewBox="0 0 195 41" version="1.1" xmlns="http://www.w3.org/2000/svg" xmlns:xlink="http://www.w3.org/1999/xlink">
    <title>40920EFE-F158-4D44-918E-C8CE8C8419FF</title>
    <g id="Design-2021" stroke="none" stroke-width="1" fill="none" fill-rule="evenodd">
        <g id="06.0-Projects-miposIntegrator" transform="translate(-60.000000, -175.000000)" fill="#FFFFFF" fill-rule="nonzero">
            <g id="mipOS/Horizontal/White" transform="translate(60.500000, 175.000000)">
                <path d="M105.423742,17.0792383 L105.423742,30.4571429 L98.6993244,30.4571429 L98.6993244,17.9621957 C98.6993244,16.9252706 98.5340446,16.1334369 98.2034851,15.5866946 C97.8729256,15.0399523 97.2622491,14.7665812 96.3714557,14.7665812 C95.6694676,14.7889282 94.9798646,14.9531649 94.3462421,15.2489084 C93.4889515,15.6287814 92.6552195,16.0573793 91.8493372,16.532496 L91.8493372,30.4571429 L85.1200902,30.4571429 L85.1200902,17.9621957 C85.1200902,16.9252706 84.9548104,16.1334369 84.6242509,15.5866946 C84.2936914,15.0399523 83.6835515,14.7665812 82.7938313,14.7665812 C82.0831559,14.7895246 81.3847365,14.9536431 80.74125,15.2489084 C79.8740328,15.6255699 79.0315346,16.0542519 78.2185873,16.532496 L78.2185873,30.4571429 L71.4571429,30.4571429 L71.4571429,10.0548565 L75.6427989,10.0548565 L76.8067333,12.199406 C78.0548855,11.3653547 79.4005964,10.6796944 80.8153039,10.1569779 C82.0776209,9.66382219 83.4209693,9.3976838 84.7804081,9.37142857 C87.5976766,9.37142857 89.5665448,10.2549097 90.6870127,12.0218719 C91.9037327,11.2458648 93.2049616,10.6040685 94.5667939,10.1082738 C95.790297,9.6413213 97.0895397,9.39177432 98.4031087,9.37142857 C100.90377,9.37142857 102.699846,10.0375744 103.791336,11.369866 C104.882826,12.7021576 105.428571,14.6021395 105.428571,17.0698117" id="Path"></path>
                <path d="M115.966877,3.79139514 C115.976075,4.78685393 115.601557,5.74209795 114.932072,6.4307622 C114.277739,7.15603846 113.373374,7.55873861 112.433064,7.54353239 C110.516955,7.51463002 108.970171,5.85374096 108.943254,3.79628286 C108.928911,2.78657034 109.303974,1.81541666 109.979576,1.11292635 C110.620773,0.393617972 111.510355,-0.00910161908 112.437616,0.000156163314 C114.389532,0.00105569413 115.971429,1.70037607 115.971429,3.79628286 M115.646724,31.6285714 L109.274027,31.6285714 L109.274027,10.466387 L115.646724,10.466387 L115.646724,31.6285714 Z" id="Shape"></path>
                <path d="M141.742857,20.3359569 C141.742857,23.8301116 140.762101,26.5661211 138.800589,28.5439853 C136.839077,30.5218494 134.160983,31.5107815 130.766308,31.5107815 C129.628168,31.4914264 128.504188,31.2564403 127.454629,30.8184212 L127.454629,36.0062705 C127.454629,38.7635995 125.20645,40.9991068 122.432594,41 L120.657143,41 L120.657143,10.0702595 L124.094129,10.0702595 L125.269083,11.3643909 C127.100407,10.0357494 129.01798,9.37142857 131.021804,9.37142857 C134.304733,9.37142857 136.911765,10.3242328 138.8429,12.2298413 C140.774035,14.1354498 141.740145,16.8353314 141.74123,20.3294862 M134.725677,20.3731631 C134.725677,18.6411839 134.333483,17.2839636 133.549095,16.3015022 C132.764707,15.3190408 131.675461,14.8283493 130.281355,14.829426 C129.379797,14.829426 128.435385,15.1615881 127.44812,15.8259089 L127.44812,25.1808613 C128.465763,25.7880246 129.468217,26.0916063 130.455482,26.0916063 C131.733503,26.0916063 132.764165,25.5642477 133.547468,24.5095306 C134.330771,23.4548135 134.722965,22.0760244 134.72405,20.3731631" id="Shape"></path>
                <path d="M145.257143,16.5691566 C145.257143,13.6856869 145.84184,11.0836225 147.011235,8.76296342 C148.105186,6.52913524 149.77813,4.63271835 151.854124,3.27315757 C153.936548,1.92345912 156.357292,1.1946896 158.835412,1.17142857 C161.396386,1.17142857 163.694779,1.81219961 165.730589,3.09374168 C167.783955,4.40049435 169.433117,6.25749633 170.492152,8.45539332 C171.630717,10.7429459 172.2,13.330593 172.2,16.2183344 C172.2,19.1060759 171.615303,21.7156159 170.445908,24.0469546 C169.35251,26.2945779 167.669935,28.2002922 165.579099,29.5591874 C163.49343,30.9081083 161.065591,31.626003 158.585055,31.6272759 C156.162981,31.6620879 153.782275,30.9946639 151.728149,29.7049628 C149.692339,28.4234207 148.105151,26.6362035 146.966585,24.3433112 C145.82802,22.0504188 145.258206,19.4590339 145.257143,16.5691566 M158.878467,3.57271803 C156.893924,3.54431044 154.94854,4.12863962 153.305237,5.24673236 C151.669147,6.36167396 150.38866,7.90593216 149.463775,9.87950695 C148.53889,11.8530817 148.075916,14.0690816 148.074853,16.5275064 C148.074853,18.9581646 148.523475,21.138388 149.42072,23.0681768 C150.317965,24.9979656 151.555929,26.5160589 153.134612,27.6224569 C154.705772,28.7213862 156.579847,29.2988973 158.494161,29.2740443 C160.477935,29.3021818 162.422579,28.7184668 164.065796,27.6016319 C165.701885,26.4866903 166.982904,24.9424321 167.908852,22.9688573 C168.834801,20.9952825 169.297243,18.7648653 169.296182,16.2776057 C169.296182,13.8480156 168.848089,11.6677921 167.951907,9.73693539 C167.055726,7.80607867 165.81723,6.29759686 164.236421,5.21148995 C162.660571,4.12585714 160.78912,3.55625707 158.878467,3.58072767" id="Shape"></path>
                <path d="M184.808003,31.6093273 C183.479909,31.5901967 182.157907,31.4175545 180.866086,31.0945466 C179.415657,30.7513594 178.240186,30.3237119 177.339673,29.8116039 L177.952962,27.7508774 C178.951161,28.2565503 179.996785,28.6526371 181.073071,28.9327883 C182.279472,29.2621712 183.521315,29.4281727 184.76814,29.4267212 C187.06593,29.4267212 188.851624,28.9397375 190.125222,27.9657703 C191.398819,26.991803 192.035107,25.732381 192.034085,24.1875042 C192.057831,23.1784401 191.761888,22.1894847 191.192345,21.3746525 C190.631185,20.5877811 189.824199,19.8650567 188.771385,19.2064795 C187.718572,18.5479023 186.274787,17.8176941 184.44003,17.015855 C179.403902,14.7835348 176.885714,11.8782044 176.885714,8.29986359 C176.877807,7.00793462 177.258656,5.7461183 177.974427,4.69319115 C178.698109,3.60375904 179.717191,2.74472205 181.031674,2.11608016 C182.346158,1.48743828 183.865071,1.17258278 185.588414,1.17142857 C186.841138,1.16721796 188.089527,1.32558931 189.304947,1.64299507 C190.403411,1.92406142 191.469963,2.32727682 192.486385,2.84575378 L191.583317,4.86478472 C190.690505,4.44256347 189.771566,4.08359931 188.832714,3.79032028 C187.983309,3.53159352 186.929473,3.4027647 185.671208,3.40383382 C183.701527,3.40383382 182.141728,3.84751814 180.991811,4.73488678 C179.880189,5.54413433 179.232039,6.88373226 179.266934,8.29986359 C179.24107,9.30231245 179.537461,10.2848603 180.108674,11.0902638 C180.758346,11.9446053 181.56019,12.6591259 182.469838,13.1942897 C183.481765,13.8240007 184.97308,14.6258398 186.943783,15.5998071 C188.777518,16.4861066 190.21466,17.3087936 191.255207,18.0678679 C192.218714,18.7441491 193.030981,19.6303953 193.636303,20.6658268 C194.18213,21.6387249 194.455555,22.8147556 194.456577,24.193919 C194.474366,25.5718801 194.072136,26.9199617 193.308193,28.0427468 C192.540559,29.1749437 191.424884,30.055363 189.961167,30.6840049 C188.49745,31.3126468 186.78024,31.6275023 184.809537,31.6285714" id="Path"></path>
                <path d="M44.9974384,2.34285991 C47.3178336,2.34450473 49.1991296,4.30366517 49.2,6.72100511 L49.2,6.72100511 L49.2,34.2806399 C49.1991296,36.6979798 47.3178336,38.6571401 44.9974384,38.6571401 L44.9974384,38.6571401 L15.9168473,38.6571401 C13.5964521,38.6571401 11.7151561,36.6979798 11.7142857,34.2806399 L11.7142857,34.2806399 L11.7142857,6.72100511 C11.7142857,5.55899545 12.1577027,4.44465052 12.946859,3.62344778 C13.7360153,2.80224503 14.8061686,2.3415551 15.9215764,2.34285991 L15.9215764,2.34285991 L44.9974384,2.34285991 Z M23.3871921,14.8286155 L17.4175369,14.8286155 L17.4175369,26.1730295 L23.3871921,26.1730295 L23.3871921,14.8286155 Z M43.4999015,14.8286155 L37.5318227,14.8286155 L37.5318227,26.1730295 L43.4999015,26.1730295 L43.4999015,14.8286155 Z" id="Combined-Shape"></path>
                <path d="M3.22646383,29.2777439 L1.45795103,29.2777439 C0.655066771,29.2768766 0.00357441969,28.4805056 0,27.4955742 L0,13.4980495 C0.00286126923,12.5124952 0.654561856,11.7151571 1.45795103,11.7142857 L3.22646383,11.7142857 C4.0323856,11.7142857 4.68571429,12.5157587 4.68571429,13.5044258 L4.68571429,27.4955742 C4.68571429,28.4842413 4.0323856,29.2857143 3.22646383,29.2857143" id="Path"></path>
                <path d="M60.2594153,29.2857143 L58.0500003,29.2857143 C57.5666461,29.2857143 57.1031125,29.0970431 56.7614818,28.7612504 C56.4198511,28.4254578 56.2281414,27.9700833 56.2285714,27.4954124 L56.2285714,13.504594 C56.2281414,13.0299231 56.4198511,12.5745486 56.7614818,12.238756 C57.1031125,11.9029633 57.5666461,11.7142857 58.0500003,11.7142857 L60.2594153,11.7142857 C60.7436128,11.7130205 61.208399,11.9011306 61.551084,12.2370613 C61.893769,12.572992 62.0861468,13.0290932 62.0857143,13.504594 L62.0857143,27.4954124 C62.0861444,27.9700833 61.8944346,28.4254578 61.5528039,28.7612504 C61.2111732,29.0970431 60.7476396,29.2857143 60.2642854,29.2857143" id="Path"></path>
            </g>
        </g>
    </g>
</svg>